<svg width="190" height="58" viewBox="0 0 190 58" fill="none" xmlns="http://www.w3.org/2000/svg">
<path d="M24.3933 49.6379C23.2751 49.6379 22.0975 49.3707 20.8803 48.8561C19.6928 48.3515 18.4954 47.6588 17.3277 46.8176C16.1699 45.9666 15.0516 45.0166 13.9928 43.9775C12.9438 42.9186 11.9938 41.8004 11.1527 40.6525C10.3016 39.465 9.61883 38.2775 9.13394 37.1296C8.61935 35.9025 8.36206 34.715 8.36206 33.5968C8.36206 32.8249 8.5006 32.0926 8.76779 31.4098C9.04487 30.7072 9.49019 30.0541 10.0938 29.49C10.8558 28.7379 11.7266 28.3619 12.6569 28.3619C13.0428 28.3619 13.4386 28.4509 13.7751 28.6093C14.161 28.7874 14.4876 29.0546 14.7251 29.4108L17.0209 32.6468C17.2287 32.9338 17.3871 33.2108 17.4959 33.4879C17.6246 33.7848 17.6938 34.0817 17.6938 34.3686C17.6938 34.7447 17.585 35.1108 17.3772 35.4572C17.2287 35.7244 17.0011 36.0114 16.7141 36.2983L16.0412 37.0009C16.0511 37.0306 16.061 37.0504 16.0709 37.0702C16.1897 37.278 16.4272 37.6343 16.8824 38.1686C17.3673 38.7228 17.8225 39.2275 18.2777 39.6926C18.8615 40.2666 19.3464 40.7218 19.8016 41.0978C20.3657 41.5728 20.7319 41.8103 20.9496 41.9192L20.9298 41.9686L21.6522 41.2561C21.9589 40.9494 22.2558 40.7218 22.5428 40.5733C23.0871 40.2369 23.7798 40.1775 24.4725 40.4645C24.7298 40.5733 25.0069 40.7218 25.3037 40.9296L28.5891 43.265C28.9553 43.5124 29.2225 43.8291 29.3808 44.2051C29.5292 44.5812 29.5985 44.9275 29.5985 45.2739C29.5985 45.7489 29.4897 46.2239 29.2819 46.6692C29.074 47.1145 28.8167 47.5004 28.4902 47.8567C27.9261 48.4801 27.3126 48.9254 26.6001 49.2124C25.9173 49.4895 25.1751 49.6379 24.3933 49.6379ZM12.6569 29.8463C12.1126 29.8463 11.6079 30.0838 11.123 30.5588C10.6678 30.9843 10.3511 31.4494 10.1532 31.9541C9.94539 32.4686 9.84644 33.0129 9.84644 33.5968C9.84644 34.5171 10.0641 35.5166 10.4996 36.5457C10.9449 37.5947 11.5683 38.6832 12.36 39.7718C13.1516 40.8603 14.0522 41.9192 15.0417 42.9186C16.0313 43.8983 17.1001 44.8088 18.1985 45.6103C19.2673 46.3921 20.3657 47.0254 21.4542 47.4806C23.1464 48.203 24.7298 48.3713 26.036 47.827C26.5407 47.6192 26.986 47.3025 27.3917 46.8473C27.6194 46.5999 27.7975 46.3327 27.9459 46.016C28.0647 45.7687 28.124 45.5114 28.124 45.2541C28.124 45.0957 28.0944 44.9374 28.0152 44.7593C27.9855 44.6999 27.9261 44.591 27.7381 44.4624L24.4527 42.127C24.2548 41.9884 24.0766 41.8895 23.9084 41.8202C23.6907 41.7311 23.6016 41.6421 23.2652 41.8499C23.0673 41.9489 22.8891 42.0973 22.6912 42.2952L21.9391 43.0374C21.5532 43.4134 20.9595 43.5025 20.5042 43.3343L20.2371 43.2155C19.8313 42.9978 19.3563 42.6614 18.8319 42.216C18.3569 41.8103 17.8423 41.3353 17.2188 40.7218C16.7339 40.227 16.249 39.7025 15.7444 39.1186C15.2792 38.5744 14.9428 38.1093 14.735 37.7233L14.6162 37.4265C14.5569 37.1989 14.5371 37.0702 14.5371 36.9317C14.5371 36.5754 14.6657 36.2588 14.9131 36.0114L15.6553 35.2395C15.8532 35.0416 16.0016 34.8535 16.1006 34.6853C16.1798 34.5567 16.2095 34.4478 16.2095 34.3489C16.2095 34.2697 16.1798 34.1509 16.1303 34.0322C16.061 33.8739 15.9522 33.6957 15.8136 33.5077L13.5178 30.2619C13.4188 30.1233 13.3001 30.0244 13.1516 29.9551C12.9933 29.8858 12.8251 29.8463 12.6569 29.8463ZM20.9298 41.9785L20.7714 42.6515L21.0386 41.9588C20.9891 41.9489 20.9496 41.9588 20.9298 41.9785Z" fill="#11224E"/>
<path d="M25.4323 36.7735C25.0266 36.7735 24.6901 36.4371 24.6901 36.0314C24.6901 35.6751 24.3339 34.9329 23.7401 34.2996C23.1563 33.6761 22.513 33.31 21.9688 33.31C21.563 33.31 21.2266 32.9735 21.2266 32.5678C21.2266 32.1621 21.563 31.8256 21.9688 31.8256C22.9286 31.8256 23.938 32.3402 24.8187 33.2803C25.6401 34.161 26.1745 35.2397 26.1745 36.0314C26.1745 36.4371 25.838 36.7735 25.4323 36.7735Z" fill="#11224E"/>
<path d="M28.8958 36.7733C28.4901 36.7733 28.1536 36.4369 28.1536 36.0311C28.1536 32.6171 25.3828 29.8463 21.9688 29.8463C21.563 29.8463 21.2266 29.5098 21.2266 29.1041C21.2266 28.6983 21.563 28.3619 21.9688 28.3619C26.1943 28.3619 29.638 31.8056 29.638 36.0311C29.638 36.4369 29.3016 36.7733 28.8958 36.7733Z" fill="#11224E"/>
<mask id="path-4-inside-1_150_7349" fill="white">
<path d="M94.8749 28.8799C89.2911 28.8799 84.7549 33.4161 84.7549 38.9999C84.7549 40.7947 85.2471 42.4697 86.068 43.9318L84.7712 48.5613C84.7505 48.6354 84.7496 48.7136 84.7685 48.7881C84.7874 48.8627 84.8256 48.931 84.8791 48.9862C84.9327 49.0414 84.9998 49.0816 85.0738 49.1028C85.1477 49.124 85.2259 49.1255 85.3006 49.107L90.1277 47.9107C91.5461 48.668 93.1556 49.1199 94.8749 49.1199C100.459 49.1199 104.995 44.5837 104.995 38.9999C104.995 33.4161 100.459 28.8799 94.8749 28.8799ZM94.8749 29.7599C99.9831 29.7599 104.115 33.8917 104.115 38.9999C104.115 44.1081 99.9831 48.2399 94.8749 48.2399C93.2372 48.2399 91.7034 47.8129 90.37 47.0668C90.2725 47.0123 90.1579 46.997 90.0495 47.0239L85.8222 48.0714L86.9557 44.0272C86.972 43.9701 86.9764 43.9102 86.9689 43.8513C86.9614 43.7924 86.942 43.7356 86.9119 43.6843C86.1016 42.3103 85.6349 40.7115 85.6349 38.9999C85.6349 33.8917 89.7667 29.7599 94.8749 29.7599ZM91.1976 33.7199C90.9156 33.7199 90.5127 33.8248 90.1818 34.1814C89.9831 34.3955 89.1549 35.2025 89.1549 36.6211C89.1549 38.1002 90.1807 39.3765 90.3047 39.5404H90.3056V39.5413C90.2938 39.5258 90.463 39.7708 90.6889 40.0646C90.9147 40.3584 91.2305 40.7443 91.6273 41.1621C92.4208 41.9976 93.5365 42.9631 94.9213 43.5537C95.559 43.8253 96.0621 43.9892 96.4432 44.1089C97.1496 44.3307 97.793 44.297 98.2763 44.2257C98.638 44.1725 99.0359 43.9988 99.4296 43.7496C99.8232 43.5005 100.209 43.1908 100.379 42.7201C100.501 42.3827 100.563 42.0709 100.585 41.8143C100.597 41.6861 100.598 41.5728 100.59 41.468C100.581 41.3632 100.59 41.2829 100.493 41.1225C100.288 40.7862 100.056 40.7774 99.8137 40.6576C99.6792 40.5911 99.2963 40.4041 98.9122 40.2211C98.5286 40.0382 98.1964 39.8763 97.9918 39.8034C97.8626 39.7569 97.7048 39.69 97.4771 39.7157C97.2494 39.7415 97.0245 39.9058 96.8936 40.0999C96.7695 40.2838 96.2699 40.8736 96.1175 41.0469C96.1155 41.0457 96.1287 41.0518 96.0686 41.022C95.8802 40.9288 95.6498 40.8495 95.3089 40.6696C94.9679 40.4898 94.5415 40.2242 94.0748 39.8129V39.812C93.3802 39.2005 92.8937 38.4328 92.7402 38.1749C92.7505 38.1626 92.739 38.1775 92.7608 38.156L92.7617 38.1551C92.9185 38.0006 93.0576 37.8161 93.175 37.6807C93.3416 37.4889 93.4151 37.3197 93.4947 37.1617C93.6534 36.8467 93.5651 36.5001 93.4732 36.3178V36.3169C93.4796 36.3295 93.4236 36.206 93.3632 36.0634C93.3027 35.9204 93.2256 35.7351 93.1432 35.5375C92.9785 35.1422 92.7946 34.6988 92.6852 34.4392V34.4383C92.5563 34.1325 92.382 33.9121 92.1541 33.8058C91.9262 33.6995 91.7248 33.7297 91.7167 33.7293H91.7158C91.5532 33.7218 91.3747 33.7199 91.1976 33.7199ZM91.1976 34.5999C91.3673 34.5999 91.5345 34.602 91.6746 34.6085C91.8187 34.6157 91.8097 34.6162 91.782 34.6033C91.7538 34.5902 91.792 34.5859 91.8739 34.7804C91.981 35.0346 92.1659 35.4796 92.3311 35.8761C92.4138 36.0743 92.4911 36.2604 92.5529 36.4063C92.6146 36.5522 92.6481 36.6337 92.6869 36.7114V36.7122L92.6878 36.7131C92.7259 36.7882 92.7225 36.7401 92.7093 36.7664C92.6164 36.9507 92.6038 36.9959 92.5099 37.1041C92.3669 37.2689 92.221 37.4526 92.1438 37.5286C92.0762 37.595 91.9543 37.6984 91.8782 37.9007C91.802 38.1034 91.8376 38.3815 91.9599 38.5891C92.1227 38.8655 92.6592 39.7388 93.493 40.4729C94.0181 40.9357 94.5073 41.2421 94.8981 41.4482C95.2889 41.6544 95.6072 41.7748 95.6784 41.81C95.8475 41.8937 96.0324 41.9587 96.2473 41.9329C96.4622 41.9071 96.6475 41.7767 96.7655 41.6433L96.7664 41.6425C96.9234 41.4645 97.3899 40.9318 97.6137 40.6035C97.6232 40.6068 97.6201 40.6042 97.6945 40.631V40.6318H97.6954C97.7293 40.6439 98.1548 40.8344 98.5341 41.0151C98.9134 41.1959 99.2984 41.3837 99.4236 41.4457C99.6041 41.535 99.6894 41.5932 99.7114 41.5935C99.7129 41.6322 99.7144 41.6741 99.7089 41.7379C99.6934 41.9146 99.6462 42.1592 99.5516 42.4211C99.5053 42.5493 99.2639 42.8137 98.9595 43.0063C98.6551 43.1989 98.2846 43.335 98.1474 43.3552C97.7348 43.416 97.245 43.4382 96.7071 43.2693C96.3341 43.1522 95.869 43.0006 95.2668 42.7442C94.0454 42.2233 93.0073 41.3369 92.2658 40.5562C91.8951 40.1658 91.598 39.8025 91.3867 39.5275C91.1757 39.2531 91.0836 39.1103 91.0068 39.0093L91.006 39.0085C90.8697 38.8282 90.0349 37.6671 90.0349 36.6211C90.0349 35.5142 90.549 35.0801 90.8272 34.7804C90.9733 34.623 91.133 34.5999 91.1976 34.5999Z"/>
</mask>
<path d="M94.8749 28.8799C89.2911 28.8799 84.7549 33.4161 84.7549 38.9999C84.7549 40.7947 85.2471 42.4697 86.068 43.9318L84.7712 48.5613C84.7505 48.6354 84.7496 48.7136 84.7685 48.7881C84.7874 48.8627 84.8256 48.931 84.8791 48.9862C84.9327 49.0414 84.9998 49.0816 85.0738 49.1028C85.1477 49.124 85.2259 49.1255 85.3006 49.107L90.1277 47.9107C91.5461 48.668 93.1556 49.1199 94.8749 49.1199C100.459 49.1199 104.995 44.5837 104.995 38.9999C104.995 33.4161 100.459 28.8799 94.8749 28.8799ZM94.8749 29.7599C99.9831 29.7599 104.115 33.8917 104.115 38.9999C104.115 44.1081 99.9831 48.2399 94.8749 48.2399C93.2372 48.2399 91.7034 47.8129 90.37 47.0668C90.2725 47.0123 90.1579 46.997 90.0495 47.0239L85.8222 48.0714L86.9557 44.0272C86.972 43.9701 86.9764 43.9102 86.9689 43.8513C86.9614 43.7924 86.942 43.7356 86.9119 43.6843C86.1016 42.3103 85.6349 40.7115 85.6349 38.9999C85.6349 33.8917 89.7667 29.7599 94.8749 29.7599ZM91.1976 33.7199C90.9156 33.7199 90.5127 33.8248 90.1818 34.1814C89.9831 34.3955 89.1549 35.2025 89.1549 36.6211C89.1549 38.1002 90.1807 39.3765 90.3047 39.5404H90.3056V39.5413C90.2938 39.5258 90.463 39.7708 90.6889 40.0646C90.9147 40.3584 91.2305 40.7443 91.6273 41.1621C92.4208 41.9976 93.5365 42.9631 94.9213 43.5537C95.559 43.8253 96.0621 43.9892 96.4432 44.1089C97.1496 44.3307 97.793 44.297 98.2763 44.2257C98.638 44.1725 99.0359 43.9988 99.4296 43.7496C99.8232 43.5005 100.209 43.1908 100.379 42.7201C100.501 42.3827 100.563 42.0709 100.585 41.8143C100.597 41.6861 100.598 41.5728 100.59 41.468C100.581 41.3632 100.59 41.2829 100.493 41.1225C100.288 40.7862 100.056 40.7774 99.8137 40.6576C99.6792 40.5911 99.2963 40.4041 98.9122 40.2211C98.5286 40.0382 98.1964 39.8763 97.9918 39.8034C97.8626 39.7569 97.7048 39.69 97.4771 39.7157C97.2494 39.7415 97.0245 39.9058 96.8936 40.0999C96.7695 40.2838 96.2699 40.8736 96.1175 41.0469C96.1155 41.0457 96.1287 41.0518 96.0686 41.022C95.8802 40.9288 95.6498 40.8495 95.3089 40.6696C94.9679 40.4898 94.5415 40.2242 94.0748 39.8129V39.812C93.3802 39.2005 92.8937 38.4328 92.7402 38.1749C92.7505 38.1626 92.739 38.1775 92.7608 38.156L92.7617 38.1551C92.9185 38.0006 93.0576 37.8161 93.175 37.6807C93.3416 37.4889 93.4151 37.3197 93.4947 37.1617C93.6534 36.8467 93.5651 36.5001 93.4732 36.3178V36.3169C93.4796 36.3295 93.4236 36.206 93.3632 36.0634C93.3027 35.9204 93.2256 35.7351 93.1432 35.5375C92.9785 35.1422 92.7946 34.6988 92.6852 34.4392V34.4383C92.5563 34.1325 92.382 33.9121 92.1541 33.8058C91.9262 33.6995 91.7248 33.7297 91.7167 33.7293H91.7158C91.5532 33.7218 91.3747 33.7199 91.1976 33.7199ZM91.1976 34.5999C91.3673 34.5999 91.5345 34.602 91.6746 34.6085C91.8187 34.6157 91.8097 34.6162 91.782 34.6033C91.7538 34.5902 91.792 34.5859 91.8739 34.7804C91.981 35.0346 92.1659 35.4796 92.3311 35.8761C92.4138 36.0743 92.4911 36.2604 92.5529 36.4063C92.6146 36.5522 92.6481 36.6337 92.6869 36.7114V36.7122L92.6878 36.7131C92.7259 36.7882 92.7225 36.7401 92.7093 36.7664C92.6164 36.9507 92.6038 36.9959 92.5099 37.1041C92.3669 37.2689 92.221 37.4526 92.1438 37.5286C92.0762 37.595 91.9543 37.6984 91.8782 37.9007C91.802 38.1034 91.8376 38.3815 91.9599 38.5891C92.1227 38.8655 92.6592 39.7388 93.493 40.4729C94.0181 40.9357 94.5073 41.2421 94.8981 41.4482C95.2889 41.6544 95.6072 41.7748 95.6784 41.81C95.8475 41.8937 96.0324 41.9587 96.2473 41.9329C96.4622 41.9071 96.6475 41.7767 96.7655 41.6433L96.7664 41.6425C96.9234 41.4645 97.3899 40.9318 97.6137 40.6035C97.6232 40.6068 97.6201 40.6042 97.6945 40.631V40.6318H97.6954C97.7293 40.6439 98.1548 40.8344 98.5341 41.0151C98.9134 41.1959 99.2984 41.3837 99.4236 41.4457C99.6041 41.535 99.6894 41.5932 99.7114 41.5935C99.7129 41.6322 99.7144 41.6741 99.7089 41.7379C99.6934 41.9146 99.6462 42.1592 99.5516 42.4211C99.5053 42.5493 99.2639 42.8137 98.9595 43.0063C98.6551 43.1989 98.2846 43.335 98.1474 43.3552C97.7348 43.416 97.245 43.4382 96.7071 43.2693C96.3341 43.1522 95.869 43.0006 95.2668 42.7442C94.0454 42.2233 93.0073 41.3369 92.2658 40.5562C91.8951 40.1658 91.598 39.8025 91.3867 39.5275C91.1757 39.2531 91.0836 39.1103 91.0068 39.0093L91.006 39.0085C90.8697 38.8282 90.0349 37.6671 90.0349 36.6211C90.0349 35.5142 90.549 35.0801 90.8272 34.7804C90.9733 34.623 91.133 34.5999 91.1976 34.5999Z" fill="#11224E" stroke="#11224E" stroke-width="506" mask="url(#path-4-inside-1_150_7349)"/>
<path d="M67.6011 27.3522C67.3283 27.3642 67.0628 27.4401 66.8234 27.536C66.5864 27.6312 65.2221 28.2135 63.2075 29.0749C61.1928 29.9363 58.5739 31.0579 55.9778 32.1702C50.7856 34.3947 45.6834 36.5835 45.6834 36.5835L45.7206 36.5693C45.7206 36.5693 45.4127 36.6722 45.1004 36.8897C44.9443 36.9985 44.7764 37.1389 44.6389 37.3436C44.5014 37.5484 44.4008 37.8385 44.4387 38.1454C44.5718 39.2232 45.6889 39.529 45.6889 39.529L45.6933 39.5311L50.6786 41.2374C50.8057 41.6614 52.1906 46.2839 52.4953 47.2629C52.6635 47.8041 52.821 48.1163 52.9853 48.3293C53.0675 48.4358 53.1536 48.5183 53.2489 48.5786C53.2867 48.6026 53.3265 48.6206 53.3659 48.6366H53.3681C53.3729 48.6387 53.3775 48.6389 53.3823 48.641L53.3692 48.6377C53.3783 48.6414 53.3874 48.6476 53.3965 48.6508C53.4143 48.6571 53.4252 48.6568 53.4479 48.6618C54.0189 48.8611 54.4914 48.4911 54.4914 48.4911L54.5111 48.4758L57.5736 45.6354L62.5436 49.5105L62.6059 49.5389C63.4758 49.9252 64.2626 49.7097 64.6983 49.3552C65.1339 49.0007 65.3053 48.5436 65.3053 48.5436L65.3239 48.4955L68.9759 29.461C69.0694 29.0351 69.0826 28.667 68.9945 28.3344C68.9064 28.0018 68.6922 27.7127 68.4236 27.5524C68.1549 27.3921 67.8738 27.3403 67.6011 27.3522ZM67.6306 28.4908C67.7414 28.4857 67.8235 28.4984 67.8493 28.5138C67.8752 28.5292 67.8868 28.5272 67.9117 28.621C67.9365 28.7148 67.95 28.9123 67.8822 29.2215L67.88 29.228L64.2487 48.1521C64.2401 48.1711 64.1645 48.3462 63.9917 48.4868C63.8154 48.6302 63.6194 48.7421 63.0992 48.5239L57.6643 44.2857L57.5112 44.1654L57.5079 44.1686L55.8826 42.9491L65.0165 32.203C65.0867 32.1207 65.1315 32.0197 65.1456 31.9124C65.1596 31.8051 65.1423 31.6961 65.0957 31.5984C65.049 31.5008 64.9751 31.4187 64.8829 31.3622C64.7906 31.3057 64.6839 31.2771 64.5758 31.2799C64.4701 31.2826 64.3673 31.3152 64.2793 31.374L51.0625 40.1852L46.0695 38.4757C46.0695 38.4757 45.5737 38.1998 45.55 38.0075C45.5487 37.9969 45.5428 38.0065 45.5686 37.9682C45.5943 37.9298 45.6591 37.8651 45.7403 37.8085C45.9027 37.6953 46.0881 37.6269 46.0881 37.6269L46.1067 37.6204L46.1253 37.6127C46.1253 37.6127 51.2278 35.4238 56.4197 33.1994C59.0156 32.0872 61.6341 30.9664 63.6483 30.1052C65.6619 29.2443 67.1169 28.6246 67.2401 28.575C67.3804 28.5189 67.5198 28.496 67.6306 28.4908ZM61.5734 34.524L54.6467 42.6735L54.6434 42.6768C54.6326 42.6898 54.6224 42.7033 54.6128 42.7172C54.6018 42.7324 54.5916 42.7481 54.5822 42.7643C54.5432 42.8303 54.5183 42.9037 54.5089 42.9797C54.5089 42.9812 54.5089 42.9826 54.5089 42.9841L53.6065 47.0419C53.5915 46.9981 53.581 46.982 53.565 46.9304V46.9293C53.2784 46.0084 51.9717 41.6489 51.7909 41.046L61.5734 34.524ZM55.4287 44.0089L56.6734 44.943L54.8447 46.6383L55.4287 44.0089Z" fill="#11224E"/>
<path d="M5.12 14.24V5.76H6.38V14.24H5.12ZM1.4 10.6V9.42H10.1V10.6H1.4ZM14.8086 17L20.8486 3.64L21.2886 4.28H12.6286L13.3686 3.58V6.9H11.9486V3H22.2286V4.02L16.3686 17H14.8086ZM32.7203 20.88C31.987 19.6667 31.4136 18.2667 31.0003 16.68C30.6003 15.08 30.4003 13.36 30.4003 11.52C30.4003 9.68 30.6003 7.96 31.0003 6.36C31.4136 4.74667 31.987 3.34667 32.7203 2.16H34.0803C33.2936 3.53333 32.7136 4.99333 32.3403 6.54C31.9803 8.07333 31.8003 9.73333 31.8003 11.52C31.8003 13.3067 31.9803 14.9733 32.3403 16.52C32.7136 18.0533 33.2936 19.5067 34.0803 20.88H32.7203ZM40.1223 17.12C39.109 17.12 38.149 16.96 37.2423 16.64C36.349 16.3067 35.629 15.8667 35.0823 15.32L35.7823 14.18C36.2357 14.6467 36.8423 15.0333 37.6023 15.34C38.3757 15.6467 39.2157 15.8 40.1223 15.8C41.2823 15.8 42.169 15.5467 42.7823 15.04C43.409 14.5333 43.7223 13.8533 43.7223 13C43.7223 12.1467 43.4157 11.4667 42.8023 10.96C42.2023 10.4533 41.249 10.2 39.9423 10.2H38.9423V9.14L43.2623 3.72L43.4623 4.28H35.6623V3H44.6623V4.02L40.3423 9.44L39.6423 8.98H40.1823C41.8623 8.98 43.1157 9.35333 43.9423 10.1C44.7823 10.8467 45.2023 11.8067 45.2023 12.98C45.2023 13.7667 45.0157 14.4733 44.6423 15.1C44.269 15.7267 43.7023 16.22 42.9423 16.58C42.1957 16.94 41.2557 17.12 40.1223 17.12ZM46.9914 13.32V12.28L54.4114 3H56.0114L48.6514 12.28L47.8714 12.04H59.1314V13.32H46.9914ZM54.8914 17V13.32L54.9314 12.04V8.8H56.3314V17H54.8914ZM64.3411 17.12C63.3278 17.12 62.3678 16.96 61.4611 16.64C60.5678 16.3067 59.8478 15.8667 59.3011 15.32L60.0011 14.18C60.4544 14.6467 61.0611 15.0333 61.8211 15.34C62.5944 15.6467 63.4344 15.8 64.3411 15.8C65.5011 15.8 66.3878 15.5467 67.0011 15.04C67.6278 14.5333 67.9411 13.8533 67.9411 13C67.9411 12.1467 67.6344 11.4667 67.0211 10.96C66.4211 10.4533 65.4678 10.2 64.1611 10.2H63.1611V9.14L67.4811 3.72L67.6811 4.28H59.8811V3H68.8811V4.02L64.5611 9.44L63.8611 8.98H64.4011C66.0811 8.98 67.3344 9.35333 68.1611 10.1C69.0011 10.8467 69.4211 11.8067 69.4211 12.98C69.4211 13.7667 69.2344 14.4733 68.8611 15.1C68.4878 15.7267 67.9211 16.22 67.1611 16.58C66.4144 16.94 65.4744 17.12 64.3411 17.12ZM72.5702 20.88H71.2102C72.0102 19.5067 72.5902 18.0533 72.9502 16.52C73.3235 14.9733 73.5102 13.3067 73.5102 11.52C73.5102 9.73333 73.3235 8.07333 72.9502 6.54C72.5902 4.99333 72.0102 3.53333 71.2102 2.16H72.5702C73.3302 3.34667 73.9102 4.74667 74.3102 6.36C74.7102 7.96 74.9102 9.68 74.9102 11.52C74.9102 13.36 74.7102 15.08 74.3102 16.68C73.9102 18.2667 73.3302 19.6667 72.5702 20.88ZM78.1922 12.2V10.96H83.4322V12.2H78.1922ZM90.9889 17.12C89.8689 17.12 88.9022 16.96 88.0889 16.64C87.2889 16.32 86.6689 15.86 86.2289 15.26C85.8022 14.6467 85.5889 13.9267 85.5889 13.1C85.5889 12.3 85.7956 11.62 86.2089 11.06C86.6356 10.4867 87.2489 10.0467 88.0489 9.74C88.8622 9.43333 89.8422 9.28 90.9889 9.28C92.1222 9.28 93.0956 9.43333 93.9089 9.74C94.7222 10.0467 95.3422 10.4867 95.7689 11.06C96.2089 11.62 96.4289 12.3 96.4289 13.1C96.4289 13.9267 96.2089 14.6467 95.7689 15.26C95.3289 15.86 94.7022 16.32 93.8889 16.64C93.0756 16.96 92.1089 17.12 90.9889 17.12ZM90.9889 15.9C92.2289 15.9 93.1956 15.6467 93.8889 15.14C94.5956 14.6333 94.9489 13.9467 94.9489 13.08C94.9489 12.2133 94.5956 11.5333 93.8889 11.04C93.1956 10.5333 92.2289 10.28 90.9889 10.28C89.7489 10.28 88.7822 10.5333 88.0889 11.04C87.3956 11.5333 87.0489 12.2133 87.0489 13.08C87.0489 13.9467 87.3956 14.6333 88.0889 15.14C88.7822 15.6467 89.7489 15.9 90.9889 15.9ZM90.9889 10.1C89.9489 10.1 89.0622 9.96 88.3289 9.68C87.6089 9.4 87.0556 9 86.6689 8.48C86.2822 7.94667 86.0889 7.31333 86.0889 6.58C86.0889 5.80667 86.2889 5.14667 86.6889 4.6C87.1022 4.04 87.6756 3.61333 88.4089 3.32C89.1422 3.02667 90.0022 2.88 90.9889 2.88C91.9756 2.88 92.8356 3.02667 93.5689 3.32C94.3156 3.61333 94.8956 4.04 95.3089 4.6C95.7222 5.14667 95.9289 5.80667 95.9289 6.58C95.9289 7.31333 95.7356 7.94667 95.3489 8.48C94.9622 9 94.3956 9.4 93.6489 9.68C92.9156 9.96 92.0289 10.1 90.9889 10.1ZM90.9889 9.14C92.0822 9.14 92.9356 8.91333 93.5489 8.46C94.1622 8.00667 94.4689 7.4 94.4689 6.64C94.4689 5.84 94.1489 5.22 93.5089 4.78C92.8822 4.32667 92.0422 4.1 90.9889 4.1C89.9356 4.1 89.0956 4.32667 88.4689 4.78C87.8422 5.22 87.5289 5.83333 87.5289 6.62C87.5289 7.39333 87.8289 8.00667 88.4289 8.46C89.0422 8.91333 89.8956 9.14 90.9889 9.14ZM103.743 17.12C102.623 17.12 101.656 16.96 100.843 16.64C100.043 16.32 99.4228 15.86 98.9828 15.26C98.5561 14.6467 98.3428 13.9267 98.3428 13.1C98.3428 12.3 98.5495 11.62 98.9628 11.06C99.3895 10.4867 100.003 10.0467 100.803 9.74C101.616 9.43333 102.596 9.28 103.743 9.28C104.876 9.28 105.849 9.43333 106.663 9.74C107.476 10.0467 108.096 10.4867 108.523 11.06C108.963 11.62 109.183 12.3 109.183 13.1C109.183 13.9267 108.963 14.6467 108.523 15.26C108.083 15.86 107.456 16.32 106.643 16.64C105.829 16.96 104.863 17.12 103.743 17.12ZM103.743 15.9C104.983 15.9 105.949 15.6467 106.643 15.14C107.349 14.6333 107.703 13.9467 107.703 13.08C107.703 12.2133 107.349 11.5333 106.643 11.04C105.949 10.5333 104.983 10.28 103.743 10.28C102.503 10.28 101.536 10.5333 100.843 11.04C100.149 11.5333 99.8028 12.2133 99.8028 13.08C99.8028 13.9467 100.149 14.6333 100.843 15.14C101.536 15.6467 102.503 15.9 103.743 15.9ZM103.743 10.1C102.703 10.1 101.816 9.96 101.083 9.68C100.363 9.4 99.8095 9 99.4228 8.48C99.0361 7.94667 98.8428 7.31333 98.8428 6.58C98.8428 5.80667 99.0428 5.14667 99.4428 4.6C99.8561 4.04 100.429 3.61333 101.163 3.32C101.896 3.02667 102.756 2.88 103.743 2.88C104.729 2.88 105.589 3.02667 106.323 3.32C107.069 3.61333 107.649 4.04 108.063 4.6C108.476 5.14667 108.683 5.80667 108.683 6.58C108.683 7.31333 108.489 7.94667 108.103 8.48C107.716 9 107.149 9.4 106.403 9.68C105.669 9.96 104.783 10.1 103.743 10.1ZM103.743 9.14C104.836 9.14 105.689 8.91333 106.303 8.46C106.916 8.00667 107.223 7.4 107.223 6.64C107.223 5.84 106.903 5.22 106.263 4.78C105.636 4.32667 104.796 4.1 103.743 4.1C102.689 4.1 101.849 4.32667 101.223 4.78C100.596 5.22 100.283 5.83333 100.283 6.62C100.283 7.39333 100.583 8.00667 101.183 8.46C101.796 8.91333 102.649 9.14 103.743 9.14ZM116.497 17.12C115.377 17.12 114.41 16.96 113.597 16.64C112.797 16.32 112.177 15.86 111.737 15.26C111.31 14.6467 111.097 13.9267 111.097 13.1C111.097 12.3 111.303 11.62 111.717 11.06C112.143 10.4867 112.757 10.0467 113.557 9.74C114.37 9.43333 115.35 9.28 116.497 9.28C117.63 9.28 118.603 9.43333 119.417 9.74C120.23 10.0467 120.85 10.4867 121.277 11.06C121.717 11.62 121.937 12.3 121.937 13.1C121.937 13.9267 121.717 14.6467 121.277 15.26C120.837 15.86 120.21 16.32 119.397 16.64C118.583 16.96 117.617 17.12 116.497 17.12ZM116.497 15.9C117.737 15.9 118.703 15.6467 119.397 15.14C120.103 14.6333 120.457 13.9467 120.457 13.08C120.457 12.2133 120.103 11.5333 119.397 11.04C118.703 10.5333 117.737 10.28 116.497 10.28C115.257 10.28 114.29 10.5333 113.597 11.04C112.903 11.5333 112.557 12.2133 112.557 13.08C112.557 13.9467 112.903 14.6333 113.597 15.14C114.29 15.6467 115.257 15.9 116.497 15.9ZM116.497 10.1C115.457 10.1 114.57 9.96 113.837 9.68C113.117 9.4 112.563 9 112.177 8.48C111.79 7.94667 111.597 7.31333 111.597 6.58C111.597 5.80667 111.797 5.14667 112.197 4.6C112.61 4.04 113.183 3.61333 113.917 3.32C114.65 3.02667 115.51 2.88 116.497 2.88C117.483 2.88 118.343 3.02667 119.077 3.32C119.823 3.61333 120.403 4.04 120.817 4.6C121.23 5.14667 121.437 5.80667 121.437 6.58C121.437 7.31333 121.243 7.94667 120.857 8.48C120.47 9 119.903 9.4 119.157 9.68C118.423 9.96 117.537 10.1 116.497 10.1ZM116.497 9.14C117.59 9.14 118.443 8.91333 119.057 8.46C119.67 8.00667 119.977 7.4 119.977 6.64C119.977 5.84 119.657 5.22 119.017 4.78C118.39 4.32667 117.55 4.1 116.497 4.1C115.443 4.1 114.603 4.32667 113.977 4.78C113.35 5.22 113.037 5.83333 113.037 6.62C113.037 7.39333 113.337 8.00667 113.937 8.46C114.55 8.91333 115.403 9.14 116.497 9.14ZM124.091 12.2V10.96H129.331V12.2H124.091ZM136.887 17.12C135.767 17.12 134.801 16.96 133.987 16.64C133.187 16.32 132.567 15.86 132.127 15.26C131.701 14.6467 131.487 13.9267 131.487 13.1C131.487 12.3 131.694 11.62 132.107 11.06C132.534 10.4867 133.147 10.0467 133.947 9.74C134.761 9.43333 135.741 9.28 136.887 9.28C138.021 9.28 138.994 9.43333 139.807 9.74C140.621 10.0467 141.241 10.4867 141.667 11.06C142.107 11.62 142.327 12.3 142.327 13.1C142.327 13.9267 142.107 14.6467 141.667 15.26C141.227 15.86 140.601 16.32 139.787 16.64C138.974 16.96 138.007 17.12 136.887 17.12ZM136.887 15.9C138.127 15.9 139.094 15.6467 139.787 15.14C140.494 14.6333 140.847 13.9467 140.847 13.08C140.847 12.2133 140.494 11.5333 139.787 11.04C139.094 10.5333 138.127 10.28 136.887 10.28C135.647 10.28 134.681 10.5333 133.987 11.04C133.294 11.5333 132.947 12.2133 132.947 13.08C132.947 13.9467 133.294 14.6333 133.987 15.14C134.681 15.6467 135.647 15.9 136.887 15.9ZM136.887 10.1C135.847 10.1 134.961 9.96 134.227 9.68C133.507 9.4 132.954 9 132.567 8.48C132.181 7.94667 131.987 7.31333 131.987 6.58C131.987 5.80667 132.187 5.14667 132.587 4.6C133.001 4.04 133.574 3.61333 134.307 3.32C135.041 3.02667 135.901 2.88 136.887 2.88C137.874 2.88 138.734 3.02667 139.467 3.32C140.214 3.61333 140.794 4.04 141.207 4.6C141.621 5.14667 141.827 5.80667 141.827 6.58C141.827 7.31333 141.634 7.94667 141.247 8.48C140.861 9 140.294 9.4 139.547 9.68C138.814 9.96 137.927 10.1 136.887 10.1ZM136.887 9.14C137.981 9.14 138.834 8.91333 139.447 8.46C140.061 8.00667 140.367 7.4 140.367 6.64C140.367 5.84 140.047 5.22 139.407 4.78C138.781 4.32667 137.941 4.1 136.887 4.1C135.834 4.1 134.994 4.32667 134.367 4.78C133.741 5.22 133.427 5.83333 133.427 6.62C133.427 7.39333 133.727 8.00667 134.327 8.46C134.941 8.91333 135.794 9.14 136.887 9.14ZM149.641 17.12C148.521 17.12 147.555 16.96 146.741 16.64C145.941 16.32 145.321 15.86 144.881 15.26C144.455 14.6467 144.241 13.9267 144.241 13.1C144.241 12.3 144.448 11.62 144.861 11.06C145.288 10.4867 145.901 10.0467 146.701 9.74C147.515 9.43333 148.495 9.28 149.641 9.28C150.775 9.28 151.748 9.43333 152.561 9.74C153.375 10.0467 153.995 10.4867 154.421 11.06C154.861 11.62 155.081 12.3 155.081 13.1C155.081 13.9267 154.861 14.6467 154.421 15.26C153.981 15.86 153.355 16.32 152.541 16.64C151.728 16.96 150.761 17.12 149.641 17.12ZM149.641 15.9C150.881 15.9 151.848 15.6467 152.541 15.14C153.248 14.6333 153.601 13.9467 153.601 13.08C153.601 12.2133 153.248 11.5333 152.541 11.04C151.848 10.5333 150.881 10.28 149.641 10.28C148.401 10.28 147.435 10.5333 146.741 11.04C146.048 11.5333 145.701 12.2133 145.701 13.08C145.701 13.9467 146.048 14.6333 146.741 15.14C147.435 15.6467 148.401 15.9 149.641 15.9ZM149.641 10.1C148.601 10.1 147.715 9.96 146.981 9.68C146.261 9.4 145.708 9 145.321 8.48C144.935 7.94667 144.741 7.31333 144.741 6.58C144.741 5.80667 144.941 5.14667 145.341 4.6C145.755 4.04 146.328 3.61333 147.061 3.32C147.795 3.02667 148.655 2.88 149.641 2.88C150.628 2.88 151.488 3.02667 152.221 3.32C152.968 3.61333 153.548 4.04 153.961 4.6C154.375 5.14667 154.581 5.80667 154.581 6.58C154.581 7.31333 154.388 7.94667 154.001 8.48C153.615 9 153.048 9.4 152.301 9.68C151.568 9.96 150.681 10.1 149.641 10.1ZM149.641 9.14C150.735 9.14 151.588 8.91333 152.201 8.46C152.815 8.00667 153.121 7.4 153.121 6.64C153.121 5.84 152.801 5.22 152.161 4.78C151.535 4.32667 150.695 4.1 149.641 4.1C148.588 4.1 147.748 4.32667 147.121 4.78C146.495 5.22 146.181 5.83333 146.181 6.62C146.181 7.39333 146.481 8.00667 147.081 8.46C147.695 8.91333 148.548 9.14 149.641 9.14ZM157.235 12.2V10.96H162.475V12.2H157.235ZM170.032 17.12C168.912 17.12 167.945 16.96 167.132 16.64C166.332 16.32 165.712 15.86 165.272 15.26C164.845 14.6467 164.632 13.9267 164.632 13.1C164.632 12.3 164.839 11.62 165.252 11.06C165.679 10.4867 166.292 10.0467 167.092 9.74C167.905 9.43333 168.885 9.28 170.032 9.28C171.165 9.28 172.139 9.43333 172.952 9.74C173.765 10.0467 174.385 10.4867 174.812 11.06C175.252 11.62 175.472 12.3 175.472 13.1C175.472 13.9267 175.252 14.6467 174.812 15.26C174.372 15.86 173.745 16.32 172.932 16.64C172.119 16.96 171.152 17.12 170.032 17.12ZM170.032 15.9C171.272 15.9 172.239 15.6467 172.932 15.14C173.639 14.6333 173.992 13.9467 173.992 13.08C173.992 12.2133 173.639 11.5333 172.932 11.04C172.239 10.5333 171.272 10.28 170.032 10.28C168.792 10.28 167.825 10.5333 167.132 11.04C166.439 11.5333 166.092 12.2133 166.092 13.08C166.092 13.9467 166.439 14.6333 167.132 15.14C167.825 15.6467 168.792 15.9 170.032 15.9ZM170.032 10.1C168.992 10.1 168.105 9.96 167.372 9.68C166.652 9.4 166.099 9 165.712 8.48C165.325 7.94667 165.132 7.31333 165.132 6.58C165.132 5.80667 165.332 5.14667 165.732 4.6C166.145 4.04 166.719 3.61333 167.452 3.32C168.185 3.02667 169.045 2.88 170.032 2.88C171.019 2.88 171.879 3.02667 172.612 3.32C173.359 3.61333 173.939 4.04 174.352 4.6C174.765 5.14667 174.972 5.80667 174.972 6.58C174.972 7.31333 174.779 7.94667 174.392 8.48C174.005 9 173.439 9.4 172.692 9.68C171.959 9.96 171.072 10.1 170.032 10.1ZM170.032 9.14C171.125 9.14 171.979 8.91333 172.592 8.46C173.205 8.00667 173.512 7.4 173.512 6.64C173.512 5.84 173.192 5.22 172.552 4.78C171.925 4.32667 171.085 4.1 170.032 4.1C168.979 4.1 168.139 4.32667 167.512 4.78C166.885 5.22 166.572 5.83333 166.572 6.62C166.572 7.39333 166.872 8.00667 167.472 8.46C168.085 8.91333 168.939 9.14 170.032 9.14ZM182.786 17.12C181.666 17.12 180.699 16.96 179.886 16.64C179.086 16.32 178.466 15.86 178.026 15.26C177.599 14.6467 177.386 13.9267 177.386 13.1C177.386 12.3 177.592 11.62 178.006 11.06C178.432 10.4867 179.046 10.0467 179.846 9.74C180.659 9.43333 181.639 9.28 182.786 9.28C183.919 9.28 184.892 9.43333 185.706 9.74C186.519 10.0467 187.139 10.4867 187.566 11.06C188.006 11.62 188.226 12.3 188.226 13.1C188.226 13.9267 188.006 14.6467 187.566 15.26C187.126 15.86 186.499 16.32 185.686 16.64C184.872 16.96 183.906 17.12 182.786 17.12ZM182.786 15.9C184.026 15.9 184.992 15.6467 185.686 15.14C186.392 14.6333 186.746 13.9467 186.746 13.08C186.746 12.2133 186.392 11.5333 185.686 11.04C184.992 10.5333 184.026 10.28 182.786 10.28C181.546 10.28 180.579 10.5333 179.886 11.04C179.192 11.5333 178.846 12.2133 178.846 13.08C178.846 13.9467 179.192 14.6333 179.886 15.14C180.579 15.6467 181.546 15.9 182.786 15.9ZM182.786 10.1C181.746 10.1 180.859 9.96 180.126 9.68C179.406 9.4 178.852 9 178.466 8.48C178.079 7.94667 177.886 7.31333 177.886 6.58C177.886 5.80667 178.086 5.14667 178.486 4.6C178.899 4.04 179.472 3.61333 180.206 3.32C180.939 3.02667 181.799 2.88 182.786 2.88C183.772 2.88 184.632 3.02667 185.366 3.32C186.112 3.61333 186.692 4.04 187.106 4.6C187.519 5.14667 187.726 5.80667 187.726 6.58C187.726 7.31333 187.532 7.94667 187.146 8.48C186.759 9 186.192 9.4 185.446 9.68C184.712 9.96 183.826 10.1 182.786 10.1ZM182.786 9.14C183.879 9.14 184.732 8.91333 185.346 8.46C185.959 8.00667 186.266 7.4 186.266 6.64C186.266 5.84 185.946 5.22 185.306 4.78C184.679 4.32667 183.839 4.1 182.786 4.1C181.732 4.1 180.892 4.32667 180.266 4.78C179.639 5.22 179.326 5.83333 179.326 6.62C179.326 7.39333 179.626 8.00667 180.226 8.46C180.839 8.91333 181.692 9.14 182.786 9.14Z" fill="#11224E"/>
</svg>
