<svg width="32" height="47" viewBox="0 0 32 47" fill="none" xmlns="http://www.w3.org/2000/svg">
<path d="M11.4286 37.2143C10.1714 37.2143 9.09524 36.7666 8.2 35.8714C7.30476 34.9762 6.85714 33.9 6.85714 32.6428V29.7857C4.68571 28.3 3 26.3952 1.8 24.0714C0.6 21.7476 0 19.2714 0 16.6428C0 12.1857 1.55238 8.40473 4.65714 5.29997C7.7619 2.1952 11.5429 0.642822 16 0.642822C20.4571 0.642822 24.2381 2.1952 27.3429 5.29997C30.4476 8.40473 32 12.1857 32 16.6428C32 19.2714 31.4 21.7381 30.2 24.0428C29 26.3476 27.3143 28.2619 25.1429 29.7857V32.6428C25.1429 33.9 24.6952 34.9762 23.8 35.8714C22.9048 36.7666 21.8286 37.2143 20.5714 37.2143H11.4286ZM11.4286 32.6428H20.5714V27.3857L22.5143 26.0143C24.0762 24.9476 25.2857 23.5857 26.1429 21.9285C27 20.2714 27.4286 18.5095 27.4286 16.6428C27.4286 13.4809 26.3143 10.7857 24.0857 8.55711C21.8571 6.32854 19.1619 5.21425 16 5.21425C12.8381 5.21425 10.1429 6.32854 7.91429 8.55711C5.68571 10.7857 4.57143 13.4809 4.57143 16.6428C4.57143 18.5095 5 20.2714 5.85714 21.9285C6.71429 23.5857 7.92381 24.9476 9.48571 26.0143L11.4286 27.3857V32.6428ZM11.4286 46.3571C10.781 46.3571 10.2381 46.1381 9.8 45.7C9.36191 45.2619 9.14286 44.719 9.14286 44.0714V41.7857H22.8571V44.0714C22.8571 44.719 22.6381 45.2619 22.2 45.7C21.7619 46.1381 21.219 46.3571 20.5714 46.3571H11.4286Z" fill="#FF914D"/>
</svg>
