<svg width="24" height="23" viewBox="0 0 24 23" fill="none" xmlns="http://www.w3.org/2000/svg">
<path d="M11.9999 13.5798C9.86988 13.5798 8.12988 11.9219 8.12988 9.87104C8.12988 7.82021 9.86988 6.17188 11.9999 6.17188C14.1299 6.17188 15.8699 7.82979 15.8699 9.88063C15.8699 11.9315 14.1299 13.5798 11.9999 13.5798ZM11.9999 7.60937C10.6999 7.60937 9.62988 8.62521 9.62988 9.88063C9.62988 11.136 10.6899 12.1519 11.9999 12.1519C13.3099 12.1519 14.3699 11.136 14.3699 9.88063C14.3699 8.62521 13.2999 7.60937 11.9999 7.60937Z" fill="#11224E"/>
<path d="M11.9997 21.8115C10.5197 21.8115 9.02969 21.2748 7.86969 20.2111C4.91969 17.4894 1.65969 13.1482 2.88969 7.98275C3.99969 3.2965 8.26969 1.19775 11.9997 1.19775C11.9997 1.19775 11.9997 1.19775 12.0097 1.19775C15.7397 1.19775 20.0097 3.2965 21.1197 7.99234C22.3397 13.1578 19.0797 17.4894 16.1297 20.2111C14.9697 21.2748 13.4797 21.8115 11.9997 21.8115ZM11.9997 2.63525C9.08969 2.63525 5.34969 4.12067 4.35969 8.299C3.27969 12.8128 6.23969 16.7036 8.91969 19.1665C10.6497 20.7669 13.3597 20.7669 15.0897 19.1665C17.7597 16.7036 20.7197 12.8128 19.6597 8.299C18.6597 4.12067 14.9097 2.63525 11.9997 2.63525Z" fill="#11224E"/>
</svg>
