<svg width="50" height="46" viewBox="0 0 50 46" fill="none" xmlns="http://www.w3.org/2000/svg">
<path d="M24.7274 40.8905C24.8788 40.8905 25.0303 40.8526 25.1817 40.7769C25.3332 40.7012 25.4468 40.6255 25.5225 40.5498L44.1504 21.9219C44.6047 21.4675 44.936 20.9564 45.1443 20.3885C45.3525 19.8205 45.4566 19.2526 45.4566 18.6847C45.4566 18.0789 45.3525 17.5015 45.1443 16.9525C44.936 16.4035 44.6047 15.9208 44.1504 15.5043L34.4957 5.84961C34.0792 5.39528 33.5965 5.06399 33.0475 4.85575C32.4985 4.64751 31.9211 4.54339 31.3153 4.54339C30.7474 4.54339 30.1795 4.64751 29.6115 4.85575C29.0436 5.06399 28.5325 5.39528 28.0781 5.84961L27.4534 6.47433L31.6561 10.7338C32.224 11.2638 32.6405 11.8696 32.9055 12.5511C33.1705 13.2326 33.303 13.952 33.303 14.7092C33.303 16.2994 32.7635 17.634 31.6845 18.7131C30.6054 19.7921 29.2708 20.3317 27.6806 20.3317C26.9234 20.3317 26.1945 20.1992 25.4941 19.9341C24.7937 19.6691 24.1784 19.2715 23.6483 18.7415L19.3889 14.5388L9.45025 24.4775C9.33667 24.5911 9.25148 24.7141 9.19468 24.8467C9.13789 24.9792 9.1095 25.1212 9.1095 25.2726C9.1095 25.5755 9.22308 25.85 9.45025 26.0961C9.67742 26.3422 9.94245 26.4652 10.2453 26.4652C10.3968 26.4652 10.5482 26.4274 10.6997 26.3517C10.8511 26.2759 10.9647 26.2002 11.0404 26.1245L18.7642 18.4007L21.9446 21.5811L14.2776 29.3049C14.164 29.4184 14.0788 29.5415 14.022 29.674C13.9652 29.8065 13.9368 29.9485 13.9368 30.1C13.9368 30.4028 14.0504 30.6679 14.2776 30.895C14.5048 31.1222 14.7698 31.2358 15.0727 31.2358C15.2241 31.2358 15.3756 31.1979 15.527 31.1222C15.6785 31.0465 15.7921 30.9708 15.8678 30.895L23.5915 23.2281L26.7719 26.4085L19.105 34.1322C18.9914 34.2079 18.9062 34.3215 18.8494 34.473C18.7926 34.6244 18.7642 34.7759 18.7642 34.9273C18.7642 35.2302 18.8778 35.4952 19.105 35.7224C19.3321 35.9496 19.5972 36.0632 19.9 36.0632C20.0515 36.0632 20.1935 36.0348 20.326 35.978C20.4585 35.9212 20.5816 35.836 20.6951 35.7224L28.4189 28.0554L31.5993 31.2358L23.8755 38.9596C23.7619 39.0731 23.6767 39.1962 23.6199 39.3287C23.5632 39.4612 23.5348 39.6032 23.5348 39.7547C23.5348 40.0575 23.6578 40.3226 23.9039 40.5498C24.15 40.7769 24.4245 40.8905 24.7274 40.8905ZM24.6706 45.4339C23.2697 45.4339 22.0298 44.9701 20.9507 44.0425C19.8716 43.1149 19.2375 41.9506 19.0482 40.5498C17.7609 40.3604 16.6818 39.8304 15.811 38.9596C14.9402 38.0887 14.4101 37.0097 14.2208 35.7224C12.9335 35.5331 11.8639 34.9936 11.012 34.1038C10.1602 33.2141 9.63956 32.1445 9.45025 30.895C8.01151 30.7057 6.8378 30.081 5.92912 29.0209C5.02045 27.9608 4.56611 26.7113 4.56611 25.2726C4.56611 24.5154 4.70809 23.7865 4.99205 23.0861C5.27601 22.3857 5.68302 21.7704 6.21309 21.2403L19.3889 8.12131L26.8287 15.5611C26.9044 15.6747 27.018 15.7599 27.1695 15.8167C27.3209 15.8735 27.4724 15.9019 27.6238 15.9019C27.9646 15.9019 28.2485 15.7977 28.4757 15.5895C28.7029 15.3813 28.8164 15.1068 28.8164 14.766C28.8164 14.6146 28.788 14.4631 28.7313 14.3117C28.6745 14.1602 28.5893 14.0466 28.4757 13.9709L20.3544 5.84961C19.9379 5.39528 19.4552 5.06399 18.9062 4.85575C18.3572 4.64751 17.7798 4.54339 17.174 4.54339C16.6061 4.54339 16.0382 4.64751 15.4702 4.85575C14.9023 5.06399 14.3912 5.39528 13.9368 5.84961L5.92912 13.9141C5.58837 14.2549 5.30441 14.6524 5.07724 15.1068C4.85007 15.5611 4.69862 16.0154 4.6229 16.4698C4.54718 16.9241 4.54718 17.3879 4.6229 17.8612C4.69862 18.3345 4.85007 18.7793 5.07724 19.1958L1.78328 22.4898C1.13963 21.619 0.666364 20.663 0.363471 19.6218C0.0605785 18.5806 -0.0530062 17.5299 0.0227169 16.4698C0.0984401 15.4097 0.363471 14.3779 0.81781 13.3746C1.27215 12.3713 1.89687 11.4721 2.69196 10.677L10.6997 2.66924C11.6084 1.79842 12.6212 1.13585 13.7381 0.681508C14.855 0.227169 16.0003 0 17.174 0C18.3477 0 19.493 0.227169 20.6099 0.681508C21.7269 1.13585 22.7207 1.79842 23.5915 2.66924L24.2163 3.29396L24.841 2.66924C25.7497 1.79842 26.7625 1.13585 27.8794 0.681508C28.9963 0.227169 30.1416 0 31.3153 0C32.489 0 33.6343 0.227169 34.7513 0.681508C35.8682 1.13585 36.862 1.79842 37.7328 2.66924L47.3308 12.2672C48.2016 13.138 48.8642 14.1413 49.3185 15.2771C49.7728 16.413 50 17.5678 50 18.7415C50 19.9152 49.7728 21.0605 49.3185 22.1774C48.8642 23.2943 48.2016 24.2882 47.3308 25.159L28.7029 43.7301C28.1728 44.2602 27.5575 44.6767 26.8571 44.9796C26.1567 45.2824 25.4278 45.4339 24.6706 45.4339Z" fill="#FF914D"/>
</svg>
