<svg width="50" height="41" viewBox="0 0 50 41" fill="none" xmlns="http://www.w3.org/2000/svg">
<path d="M24.5326 40.6702C24.2351 40.8317 23.876 40.8317 23.5785 40.6702L8.63402 32.5575C8.31178 32.3826 8.11111 32.0453 8.11111 31.6787V19.1982C8.11111 18.8336 7.91258 18.4978 7.59303 18.322L0.599735 14.4757C-0.0924184 14.095 -0.0906776 13.0999 0.602803 12.7216L23.5767 0.190391C23.8752 0.0275848 24.2359 0.0275854 24.5344 0.190391L48.59 13.3116C48.9112 13.4868 49.1111 13.8236 49.1111 14.1895V30.8181C49.1111 31.3704 48.6634 31.8181 48.1111 31.8181H45.5556C45.0033 31.8181 44.5556 31.3704 44.5556 30.8181V17.7927C44.5556 17.0321 43.7401 16.5499 43.0736 16.9165L40.5181 18.322C40.1985 18.4978 40 18.8336 40 19.1982V31.6787C40 32.0453 39.7993 32.3826 39.4771 32.5575L24.5326 40.6702ZM23.5803 21.7669C23.8769 21.9271 24.2342 21.9271 24.5308 21.7669L38.0294 14.4757C38.7291 14.0978 38.7291 13.0939 38.0294 12.716L24.5308 5.42479C24.2342 5.26459 23.8769 5.26459 23.5803 5.42479L10.0817 12.716C9.38202 13.0939 9.38202 14.0978 10.0817 14.4757L23.5803 21.7669ZM23.5804 35.4907C23.8769 35.6508 24.2342 35.6508 24.5307 35.4907L34.9196 29.8807C35.2429 29.7061 35.4444 29.3682 35.4444 29.0008V22.6899C35.4444 21.9293 34.629 21.4472 33.9625 21.8137L24.5375 26.9975C24.2374 27.1625 23.8737 27.1625 23.5736 26.9975L14.1486 21.8137C13.4821 21.4472 12.6667 21.9293 12.6667 22.6899V29.0008C12.6667 29.3682 12.8682 29.7061 13.1915 29.8807L23.5804 35.4907Z" fill="#FF914D"/>
</svg>
