<svg width="51" height="48" viewBox="0 0 51 48" fill="none" xmlns="http://www.w3.org/2000/svg">
<path d="M1.45541 47.8911C0.66079 48.1749 -0.106464 47.4076 0.177329 46.613L10.7987 16.8731C11.0456 16.1817 11.9285 15.9832 12.4476 16.5023L31.5661 35.6208C32.0852 36.1399 31.8867 37.0228 31.1953 37.2697L1.45541 47.8911ZM7.99831 38.7934C7.717 39.5867 8.48174 40.3514 9.27502 40.0701L22.5305 35.3696C23.2233 35.1239 23.4232 34.2398 22.9034 33.72L14.3484 25.165C13.8286 24.6452 12.9445 24.8451 12.6988 25.5379L7.99831 38.7934ZM29.9503 25.4731C29.5598 25.8636 28.9266 25.8636 28.5361 25.4731L27.4591 24.3961C27.0686 24.0056 27.0686 23.3724 27.4591 22.9819L40.0385 10.4025C41.3039 9.13713 42.8263 8.50444 44.6057 8.50444C46.3852 8.50444 47.9076 9.13713 49.1729 10.4025L49.8894 11.119C50.2799 11.5095 50.2799 12.1426 49.8894 12.5332L48.8124 13.6102C48.4219 14.0007 47.7887 14.0007 47.3982 13.6102L46.6817 12.8937C46.1281 12.3401 45.4361 12.0633 44.6057 12.0633C43.7753 12.0633 43.0833 12.3401 42.5297 12.8937L29.9503 25.4731ZM20.46 15.9828C20.0695 16.3733 19.4363 16.3733 19.0458 15.9828L17.9688 14.9058C17.5783 14.5152 17.5783 13.8821 17.9688 13.4915L18.6852 12.7751C19.2388 12.2215 19.5156 11.5493 19.5156 10.7584C19.5156 9.96754 19.2388 9.2953 18.6852 8.7417L17.8502 7.90663C17.4596 7.5161 17.4596 6.88294 17.8502 6.49241L18.9272 5.41541C19.3177 5.02489 19.9508 5.02489 20.3414 5.41541L21.1764 6.25049C22.4418 7.51586 23.0745 9.0185 23.0745 10.7584C23.0745 12.4983 22.4418 14.0009 21.1764 15.2663L20.46 15.9828ZM25.2052 20.7279C24.8146 21.1184 24.1815 21.1184 23.791 20.7279L22.714 19.6509C22.3234 19.2604 22.3234 18.6272 22.714 18.2367L30.5482 10.4025C31.1018 9.84891 31.3786 9.1569 31.3786 8.3265C31.3786 7.49609 31.1018 6.80409 30.5482 6.25049L27.4591 3.16146C27.0686 2.77093 27.0686 2.13777 27.4591 1.74724L28.5361 0.670241C28.9266 0.279717 29.5598 0.279717 29.9503 0.670241L33.0394 3.75927C34.3047 5.02465 34.9374 6.54706 34.9374 8.3265C34.9374 10.1059 34.3047 11.6283 33.0394 12.8937L25.2052 20.7279ZM34.6955 30.2183C34.305 30.6088 33.6718 30.6088 33.2813 30.2183L32.2043 29.1413C31.8138 28.7507 31.8138 28.1176 32.2043 27.727L35.2933 24.638C36.5587 23.3726 38.0811 22.74 39.8605 22.74C41.64 22.74 43.1624 23.3726 44.4278 24.638L47.5168 27.727C47.9073 28.1176 47.9073 28.7507 47.5168 29.1413L46.4398 30.2183C46.0493 30.6088 45.4161 30.6088 45.0256 30.2183L41.9366 27.1292C41.383 26.5756 40.691 26.2988 39.8605 26.2988C39.0301 26.2988 38.3381 26.5756 37.7845 27.1292L34.6955 30.2183Z" fill="#FF914D"/>
</svg>
