<svg width="50" height="34" viewBox="0 0 50 34" fill="none" xmlns="http://www.w3.org/2000/svg">
<path d="M2.77354 33.2824C1.24175 33.2824 0 32.0407 0 30.5089C0 28.9771 1.24175 27.7353 2.77353 27.7353H47.1501C48.6819 27.7353 49.9236 28.9771 49.9236 30.5089C49.9236 32.0407 48.6819 33.2824 47.1501 33.2824H2.77354ZM2.77354 19.4147C1.24175 19.4147 0 18.173 0 16.6412C0 15.1094 1.24175 13.8677 2.77353 13.8677H47.1501C48.6819 13.8677 49.9236 15.1094 49.9236 16.6412C49.9236 18.173 48.6819 19.4147 47.1501 19.4147H2.77354ZM2.77354 5.54707C1.24176 5.54707 0 4.30531 0 2.77353C0 1.24175 1.24175 0 2.77353 0H47.1501C48.6819 0 49.9236 1.24175 49.9236 2.77353C49.9236 4.30531 48.6819 5.54707 47.1501 5.54707H24.9618H2.77354Z" fill="#FF914D"/>
</svg>
