<svg width="186" height="18" viewBox="0 0 186 18" fill="none" xmlns="http://www.w3.org/2000/svg">
<path d="M183.154 2.25391C184.739 2.33421 186 3.64489 186 5.25V12.75L185.996 12.9043C185.918 14.4383 184.688 15.6684 183.154 15.7461L183 15.75H171L170.846 15.7461C169.312 15.6684 168.082 14.4383 168.004 12.9043L168 12.75V5.25C168 3.64489 169.261 2.33421 170.846 2.25391L171 2.25H183L183.154 2.25391ZM169.5 12.75C169.5 13.5784 170.172 14.25 171 14.25H183C183.828 14.25 184.5 13.5784 184.5 12.75V6.35059C183.88 6.81524 183.043 7.42904 182.15 8.04297C181.242 8.66748 180.262 9.30272 179.387 9.78418C178.95 10.0245 178.525 10.2343 178.14 10.3857C177.771 10.5306 177.369 10.6503 177 10.6504C176.632 10.6503 176.23 10.5305 175.861 10.3857C175.476 10.2344 175.051 10.0245 174.614 9.78418C173.739 9.30277 172.759 8.66745 171.851 8.04297C170.957 7.42877 170.12 6.81437 169.5 6.34961V12.75ZM171 3.75C170.41 3.75 169.9 4.09076 169.655 4.58594C169.828 4.71861 170.07 4.90434 170.363 5.12402C170.977 5.58415 171.812 6.1968 172.7 6.80762C173.592 7.42044 174.525 8.02316 175.337 8.46973C175.743 8.69318 176.107 8.87005 176.41 8.98926C176.73 9.11466 176.919 9.15028 177 9.15039C177.082 9.15028 177.271 9.11485 177.591 8.98926C177.894 8.87001 178.258 8.69325 178.664 8.46973C179.476 8.02309 180.409 7.42049 181.301 6.80762C182.189 6.19669 183.024 5.58416 183.638 5.12402C183.93 4.9045 184.171 4.71858 184.344 4.58594C184.099 4.09097 183.59 3.75 183 3.75H171Z" fill="#11224E"/>
<path d="M126 5C126 11.3 134.71 14.5625 134.71 13.4375C134.71 12.3125 134.71 10.625 134.71 10.625M134.71 5V10.625M134.71 10.625H139.355M139.355 10.625L144 5M139.355 10.625L143.419 14" stroke="#11224E" stroke-width="1.5" stroke-linecap="round"/>
<path d="M93.4629 0.0117188C98.2183 0.252498 102 4.18295 102 8.99609L101.988 9.45898C101.747 14.212 97.8151 17.9922 93 17.9922L92.3164 17.9805C90.7594 17.924 89.4587 17.6442 88.2002 16.792C88.1906 16.795 84.2542 18.0367 84.0117 17.999L84 17.9922C83.9998 17.5834 85.0143 13.7951 85.2002 13.1943C84.3775 11.8925 84.0425 10.8917 84.0039 9.31836L84 8.99609C84 4.02783 88.0295 4.21196e-05 93 0L93.4629 0.0117188ZM93 1C88.5814 1.00004 85 4.58054 85 8.99609C85 9.81609 85.0752 10.4189 85.2314 10.957C85.3875 11.4944 85.638 12.0163 86.0449 12.6602L86.292 13.0498L86.1553 13.4893C86.0705 13.7633 85.7763 14.839 85.499 15.9141C85.4363 16.1572 85.3745 16.398 85.3174 16.627C85.4785 16.5794 85.6455 16.5316 85.8125 16.4814C86.3334 16.3249 86.855 16.1637 87.2471 16.042C87.443 15.9812 87.6066 15.9303 87.7207 15.8945C87.7774 15.8768 87.8221 15.8631 87.8525 15.8535C87.8678 15.8487 87.8799 15.8452 87.8877 15.8428C87.8916 15.8416 87.8945 15.8405 87.8965 15.8398L87.8984 15.8389H87.8994L88.3604 15.6934L88.7607 15.9639C89.9576 16.7743 91.2145 16.9922 93 16.9922C97.4186 16.9922 101 13.4116 101 8.99609C101 4.58051 97.4187 1 93 1ZM89.7842 3.59863C89.9803 3.59864 90.1815 3.6434 90.3525 3.72363C90.5488 3.81401 90.7152 3.9501 90.8359 4.13086L92.0039 5.77246C92.1095 5.918 92.1898 6.05869 92.2451 6.19922C92.3105 6.34984 92.3457 6.50088 92.3457 6.64648C92.3456 6.83712 92.2902 7.02265 92.1846 7.19824C92.1091 7.33376 91.9935 7.47944 91.8477 7.625L91.5049 7.98145C91.5099 7.99645 91.5155 8.0066 91.5205 8.0166C91.5809 8.12202 91.7012 8.30319 91.9326 8.57422C92.1792 8.85539 92.4111 9.11167 92.6426 9.34766C92.9395 9.63883 93.1865 9.86977 93.418 10.0605C93.7047 10.3014 93.8913 10.4223 94.002 10.4775L93.9912 10.502L94.3584 10.1406C94.5144 9.985 94.6656 9.86926 94.8115 9.79395C95.0883 9.62324 95.4407 9.59366 95.793 9.73926C95.9238 9.79447 96.0649 9.86924 96.2158 9.97461L97.8867 11.1602C98.0728 11.2856 98.2085 11.4461 98.2891 11.6367C98.3645 11.8273 98.4003 12.0031 98.4004 12.1787C98.4004 12.4196 98.3448 12.6609 98.2393 12.8867C98.1336 13.1127 98.002 13.3085 97.8359 13.4893C97.5491 13.8056 97.2373 14.0321 96.875 14.1777C96.5278 14.3183 96.1504 14.3935 95.7529 14.3936C95.1842 14.3936 94.5848 14.2582 93.9658 13.9971C93.362 13.741 92.7529 13.3896 92.1592 12.9629C91.5704 12.5311 91.0023 12.0486 90.4639 11.5215C89.9304 10.9842 89.4473 10.4164 89.0195 9.83398C88.5868 9.2315 88.2388 8.62927 87.9922 8.04688C87.7306 7.4245 87.5997 6.82207 87.5996 6.25488C87.5996 5.86325 87.6708 5.49098 87.8066 5.14453C87.9475 4.78825 88.1737 4.45696 88.4805 4.1709C88.868 3.78931 89.3111 3.59863 89.7842 3.59863ZM89.7842 4.35156C89.5074 4.35156 89.2505 4.47188 89.0039 4.71289C88.7724 4.92878 88.6114 5.16485 88.5107 5.4209C88.4051 5.68199 88.3545 5.95865 88.3545 6.25488C88.3546 6.72171 88.4661 7.22896 88.6875 7.75098C88.9139 8.28305 89.2303 8.83555 89.6328 9.3877C90.0354 9.94 90.4938 10.4773 90.9971 10.9844C91.5003 11.4814 92.044 11.943 92.6025 12.3496C93.146 12.7462 93.7043 13.0679 94.2578 13.2988C95.1183 13.6653 95.9236 13.7506 96.5879 13.4746C96.8445 13.3692 97.0711 13.2084 97.2773 12.9775C97.3931 12.852 97.4841 12.7163 97.5596 12.5557C97.6199 12.4302 97.6504 12.2995 97.6504 12.1689C97.6504 12.0887 97.635 12.0083 97.5947 11.918C97.5796 11.8878 97.5494 11.8327 97.4541 11.7676L95.7832 10.582C95.6826 10.5118 95.5914 10.4619 95.5059 10.4268C95.3954 10.3816 95.3496 10.3371 95.1787 10.4424C95.0783 10.4926 94.9881 10.5678 94.8877 10.668L94.5049 11.0449C94.3087 11.2355 94.0068 11.2804 93.7754 11.1953L93.6387 11.1348C93.4325 11.0243 93.1913 10.8536 92.9248 10.6279C92.6832 10.4221 92.4215 10.1804 92.1045 9.86914C91.8579 9.61811 91.6111 9.35188 91.3545 9.05566C91.1182 8.77972 90.9465 8.54435 90.8408 8.34863L90.7803 8.19727C90.7501 8.082 90.7402 8.01651 90.7402 7.94629C90.7403 7.76562 90.8059 7.60497 90.9316 7.47949L91.3086 7.08789C91.4092 6.9875 91.4848 6.89198 91.5352 6.80664C91.5754 6.74137 91.5908 6.68595 91.5908 6.63574C91.5907 6.59563 91.5758 6.53561 91.5508 6.47559C91.5156 6.39525 91.4601 6.30438 91.3896 6.20898L90.2217 4.5625C90.1714 4.49227 90.1116 4.44138 90.0361 4.40625C89.9556 4.37111 89.8697 4.35157 89.7842 4.35156ZM93.9912 10.5068L93.9111 10.8486L94.0469 10.4971C94.0218 10.4921 94.0013 10.4968 93.9912 10.5068Z" fill="#11224E"/>
<path d="M58.82 0.00132428C58.5985 0.0109425 58.3828 0.0719597 58.1884 0.149024C57.9959 0.225572 56.8877 0.693633 55.2513 1.38601C53.6149 2.07838 51.4877 2.98 49.3791 3.87404C45.1618 5.66212 41.0175 7.42146 41.0175 7.42146L41.0477 7.41003C41.0477 7.41003 40.7976 7.49277 40.544 7.66763C40.4172 7.75506 40.2808 7.86793 40.1691 8.03248C40.0574 8.19704 39.9758 8.43025 40.0065 8.67691C40.1146 9.5433 41.022 9.78905 41.022 9.78905L41.0255 9.79081L45.0748 11.1623C45.1781 11.5031 46.303 15.2187 46.5504 16.0056C46.6871 16.4407 46.815 16.6916 46.9484 16.8628C47.0152 16.9485 47.0852 17.0148 47.1625 17.0632C47.1933 17.0825 47.2256 17.097 47.2576 17.1098H47.2594C47.2633 17.1116 47.267 17.1117 47.2709 17.1134L47.2603 17.1107C47.2677 17.1137 47.275 17.1187 47.2825 17.1213C47.2969 17.1263 47.3058 17.1261 47.3242 17.1301C47.788 17.2903 48.1718 16.9929 48.1718 16.9929L48.1877 16.9806L50.6752 14.6974L54.7121 17.8123L54.7627 17.8352C55.4693 18.1456 56.1083 17.9724 56.4622 17.6875C56.8161 17.4025 56.9553 17.0351 56.9553 17.0351L56.9704 16.9964L59.9367 1.69635C60.0126 1.35405 60.0234 1.05818 59.9518 0.790813C59.8802 0.523449 59.7063 0.291033 59.4881 0.162211C59.2698 0.0333898 59.0415 -0.00829395 58.82 0.00132428ZM58.844 0.916533C58.934 0.91241 59.0007 0.922589 59.0217 0.934996C59.0427 0.947403 59.0521 0.94577 59.0723 1.02115C59.0925 1.09654 59.1034 1.25532 59.0483 1.50381L59.0465 1.50909L56.0971 16.7204C56.0901 16.7357 56.0286 16.8764 55.8883 16.9894C55.7452 17.1047 55.5859 17.1947 55.1634 17.0193L50.749 13.6125L50.6246 13.5158L50.6219 13.5185L49.3018 12.5382L56.7207 3.90041C56.7777 3.83421 56.8142 3.75309 56.8256 3.66685C56.837 3.5806 56.8229 3.49294 56.785 3.41445C56.7471 3.33596 56.6871 3.27001 56.6122 3.22457C56.5372 3.17913 56.4506 3.15615 56.3627 3.1584C56.2769 3.16061 56.1934 3.18682 56.122 3.23401L45.3866 10.3165L41.3311 8.94242C41.3311 8.94242 40.9284 8.72064 40.9092 8.56613C40.9081 8.55757 40.9033 8.56532 40.9243 8.53448C40.9452 8.50366 40.9978 8.4516 41.0637 8.40613C41.1956 8.31518 41.3462 8.26019 41.3462 8.26019L41.3613 8.25491L41.3764 8.24876C41.3764 8.24876 45.5209 6.48932 49.738 4.70133C51.8465 3.80734 53.9734 2.90638 55.6094 2.21418C57.2449 1.52215 58.4268 1.02404 58.5268 0.984229C58.6408 0.939082 58.754 0.920657 58.844 0.916533ZM53.9241 5.766L48.2979 12.3166L48.2952 12.3193C48.2865 12.3297 48.2782 12.3406 48.2704 12.3518C48.2614 12.364 48.2531 12.3766 48.2455 12.3896C48.2139 12.4427 48.1936 12.5017 48.186 12.5628V12.5663L47.453 15.828C47.4409 15.7928 47.4323 15.7799 47.4193 15.7384V15.7375C47.1865 14.9972 46.1252 11.4931 45.9783 11.0085L53.9241 5.766ZM48.9331 13.3901L49.9441 14.1409L48.4587 15.5036L48.9331 13.3901Z" fill="#11224E"/>
<path d="M13.5881 18C12.6403 18 11.6421 17.774 10.6104 17.3386C9.60391 16.9116 8.589 16.3256 7.59925 15.614C6.61789 14.894 5.67008 14.0902 4.7726 13.2112C3.8835 12.3153 3.07829 11.3693 2.36533 10.3981C1.64399 9.39349 1.06524 8.38884 0.65424 7.41767C0.21808 6.37953 0 5.37488 0 4.42884C0 3.77581 0.117428 3.15628 0.343896 2.5786C0.578751 1.98419 0.956198 1.43163 1.46785 0.954419C2.1137 0.31814 2.85182 0 3.64026 0C3.96738 0 4.30289 0.0753488 4.58807 0.209302C4.91519 0.36 5.19198 0.586046 5.39329 0.887442L7.33924 3.62512C7.51538 3.86791 7.64958 4.10233 7.74184 4.33674C7.85088 4.58791 7.9096 4.83907 7.9096 5.08186C7.9096 5.4 7.81733 5.70977 7.64119 6.00279C7.51538 6.22884 7.32246 6.47163 7.07922 6.71442L6.50885 7.30884C6.51724 7.33395 6.52563 7.3507 6.53402 7.36744C6.63467 7.54326 6.83597 7.84465 7.22181 8.29674C7.6328 8.76558 8.01864 9.19256 8.40447 9.58605C8.89935 10.0716 9.31035 10.4567 9.69618 10.7749C10.1743 11.1767 10.4846 11.3777 10.6692 11.4698L10.6524 11.5116L11.2647 10.9088C11.5247 10.6493 11.7763 10.4567 12.0196 10.3312C12.4809 10.0465 13.068 9.99628 13.6552 10.2391C13.8733 10.3312 14.1081 10.4567 14.3597 10.6326L17.1445 12.6084C17.4548 12.8177 17.6813 13.0856 17.8155 13.4037C17.9413 13.7219 18 14.0149 18 14.3079C18 14.7098 17.9077 15.1116 17.7316 15.4884C17.5555 15.8651 17.3374 16.1916 17.0606 16.493C16.5825 17.0205 16.0624 17.3972 15.4585 17.64C14.8798 17.8744 14.2507 18 13.5881 18ZM3.64026 1.25581C3.17894 1.25581 2.75116 1.45674 2.34017 1.8586C1.95433 2.2186 1.68593 2.61209 1.51817 3.03907C1.34203 3.47442 1.25815 3.93488 1.25815 4.42884C1.25815 5.20744 1.44268 6.05302 1.81174 6.92372C2.18919 7.81116 2.71761 8.73209 3.38863 9.65302C4.05965 10.574 4.82293 11.4698 5.6617 12.3153C6.50047 13.1442 7.40634 13.9144 8.33737 14.5926C9.24324 15.254 10.1743 15.7898 11.0969 16.1749C12.5312 16.786 13.8733 16.9284 14.9804 16.4679C15.4082 16.2921 15.7856 16.0242 16.1295 15.6391C16.3225 15.4298 16.4734 15.2037 16.5993 14.9358C16.6999 14.7265 16.7502 14.5088 16.7502 14.2912C16.7502 14.1572 16.7251 14.0233 16.658 13.8726C16.6328 13.8223 16.5825 13.7302 16.4231 13.6214L13.6384 11.6456C13.4706 11.5284 13.3197 11.4447 13.1771 11.386C12.9925 11.3107 12.9171 11.2353 12.6319 11.4112C12.4641 11.4949 12.3131 11.6205 12.1454 11.7879L11.5079 12.4158C11.1808 12.734 10.6775 12.8093 10.2917 12.667L10.0652 12.5665C9.72134 12.3823 9.31873 12.0977 8.87418 11.7209C8.47158 11.3777 8.03541 10.9758 7.50699 10.4567C7.09599 10.0381 6.685 9.59442 6.25722 9.10047C5.863 8.64 5.57782 8.24651 5.40168 7.92L5.30103 7.66884C5.2507 7.47628 5.23392 7.36744 5.23392 7.25023C5.23392 6.94884 5.34296 6.68093 5.55266 6.47163L6.18173 5.8186C6.34949 5.65116 6.4753 5.49209 6.55918 5.34977C6.62628 5.24093 6.65144 5.14884 6.65144 5.06512C6.65144 4.99814 6.62628 4.89767 6.58434 4.79721C6.52563 4.66326 6.43336 4.51256 6.31594 4.35349L4.36999 1.60744C4.28611 1.49023 4.18546 1.40651 4.05965 1.34791C3.92544 1.2893 3.78285 1.25581 3.64026 1.25581ZM10.6524 11.52L10.5182 12.0893L10.7446 11.5033C10.7027 11.4949 10.6692 11.5033 10.6524 11.52Z" fill="#11224E"/>
<path d="M10.7998 3.6001C12.1498 4.0501 13.4998 5.4001 13.9498 6.7501" stroke="#11224E" stroke-width="1.5" stroke-linecap="round"/>
<path d="M11.7002 0.899902C13.9502 1.3499 16.2002 3.5999 16.6502 5.8499" stroke="#11224E" stroke-width="1.5" stroke-linecap="round"/>
</svg>
