<svg width="279" height="77" viewBox="0 0 279 77" fill="none" xmlns="http://www.w3.org/2000/svg">
<rect x="0.533203" y="0.908386" width="277.613" height="75.4609" rx="37.7304" fill="#FF914D"/>
<path d="M64.5168 57.9502C64.0617 58.3003 63.5715 58.4754 62.9764 58.4754C62.3812 58.4754 61.856 58.3003 61.4709 57.9502C61.0158 57.5651 60.8057 57.0049 60.8407 56.3397C61.0508 51.4732 61.5409 45.6615 62.3112 38.9394C60.3506 42.3004 58.8801 44.8212 57.8998 46.4667C57.4097 47.342 56.6744 47.6921 55.7291 47.517C54.7839 47.377 54.1537 46.8518 53.8386 45.9415L52.8233 42.8256L51.7729 39.7096L51.2478 45.0663L50.6876 50.4229C50.6526 51.0531 50.4075 51.5783 50.0224 51.9634C49.6373 52.4185 49.1121 52.6286 48.4819 52.6286C47.8868 52.6286 47.3616 52.4185 46.9065 51.9634C46.4163 51.5082 46.2062 51.0181 46.2412 50.4229L47.3266 39.8147L48.3769 29.2064C48.4819 27.9461 49.1471 27.2108 50.3375 27.0358C51.5279 26.8607 52.3331 27.3859 52.7182 28.6113L54.6438 34.283L56.5344 39.9897L63.9216 27.3859C64.4468 26.4756 65.2871 26.1605 66.4774 26.4056C67.7028 26.6857 68.228 27.3859 68.0529 28.5062C66.4774 40.2348 65.5672 49.5126 65.2871 56.3397C65.2521 57.0049 65.007 57.5651 64.5168 57.9502ZM64.5168 56.2347C64.6569 55.7445 64.7269 55.2194 64.7269 54.6242C64.7619 54.4141 64.7619 54.099 64.7619 53.7139V52.7686L64.7969 51.7533V51.2282L64.8319 50.703C64.8669 50.2479 64.937 49.5126 64.972 48.5323L65.077 47.377L65.147 46.2566L65.3221 43.9809L65.4271 42.8956L65.4971 41.8103C65.6372 40.4099 65.7422 39.1145 65.8122 37.8891L66.1623 34.1079C66.0573 35.1232 65.9173 36.3836 65.7422 37.8891L65.2871 41.7753L65.182 42.8606L65.077 43.9809L64.8319 46.2216C64.7619 46.7818 64.6919 47.552 64.5869 48.4973L64.3768 50.703C64.3418 51.6483 64.3068 52.3135 64.2718 52.7336V52.9787L64.2367 53.2238V53.7139L64.2017 54.1691L64.1667 54.5892C64.1317 55.1844 64.0267 55.6745 63.9216 56.0246C63.7816 56.4097 63.6066 56.6898 63.3615 56.7949C63.2564 56.8299 63.1864 56.8299 63.0814 56.8649C62.9764 56.8649 62.8713 56.8649 62.8363 56.8299L62.7313 56.7949H62.6613L62.5912 56.7599H62.5562C62.3462 56.7248 62.2061 56.7949 62.1711 57.0049C62.1361 57.215 62.2061 57.355 62.4162 57.4251H62.5562C62.5912 57.4601 62.6613 57.4601 62.6963 57.4601C62.7663 57.4951 62.9063 57.4951 63.1164 57.4951C63.1864 57.4951 63.2564 57.4951 63.3615 57.4601C63.4665 57.4251 63.5715 57.39 63.6416 57.355C63.8866 57.25 64.0617 57.0749 64.1667 56.8999C64.2718 56.7248 64.4118 56.4798 64.5168 56.2347ZM86.9272 32.3574C87.9075 34.5281 88.3977 37.0488 88.3977 39.9197C88.3627 43.0707 87.7325 45.7665 86.5421 47.9722C85.2467 50.3879 83.5662 51.8584 81.4306 52.3835C79.1198 53.0137 76.9842 52.5236 75.0586 50.8781C73.063 49.2676 71.8026 46.8868 71.2074 43.7009C70.7173 40.97 70.7873 38.2042 71.4525 35.4033C72.0477 32.8475 73.203 30.7819 74.8836 29.1364C76.8441 27.2458 79.0148 26.6156 81.4306 27.2808C83.8463 27.9461 85.7019 29.6616 86.9272 32.3574ZM79.47 48.2523H79.61C80.7653 48.2172 81.7106 47.517 82.4809 46.2216C83.4262 44.5411 83.9513 42.4405 83.9863 39.9197C83.9863 37.2589 83.5312 35.1583 82.5859 33.6178C82.3408 33.1977 82.0958 32.8826 81.8857 32.6375L81.6406 32.3924C81.5356 32.2874 81.4656 32.1823 81.3605 32.1473L81.2555 32.0423L80.9754 31.8672L80.7303 31.7272C80.6953 31.6922 80.6603 31.6572 80.6253 31.6572L80.5553 31.6222H80.4853C80.4503 31.6222 80.3452 31.5872 80.2052 31.5522C80.1352 31.5522 80.1001 31.5522 80.0651 31.5171H79.785C78.6297 31.5171 77.6844 32.1823 76.8792 33.5478C75.8638 35.2633 75.3737 37.3639 75.3737 39.8147C75.3737 42.4755 75.8288 44.5761 76.7741 46.1166C77.0892 46.6068 77.2993 46.9569 77.4743 47.1319L77.7194 47.412C77.8244 47.517 77.8945 47.5871 77.9995 47.6221L78.0695 47.6921L78.3496 47.8671L78.6297 48.0422L78.7347 48.1122C78.7697 48.1122 78.8398 48.1122 78.8748 48.1472H78.9798L79.1899 48.1822C79.3299 48.2172 79.3649 48.2172 79.2949 48.2172L79.47 48.2523ZM87.4874 41.9853V41.6702L87.5224 41.1801V40.0247C87.4874 39.7797 87.4874 39.5696 87.4874 39.3945V40.3748L87.4524 40.725C87.4524 40.9 87.4174 41.2151 87.3824 41.6702C87.3824 41.8103 87.3474 41.9853 87.3123 42.2304L87.2773 42.5105L87.2073 42.8256L87.1023 43.3858L87.0323 43.6659L86.9272 43.9809C86.8922 44.121 86.8572 44.3311 86.7522 44.6111L86.5421 45.2413L86.4021 45.5214L86.262 45.8365L86.122 46.1516L85.9819 46.4667L85.8069 46.7468L85.6318 47.0619C85.5268 47.307 85.3868 47.482 85.2817 47.6221C85.0016 48.0072 84.7216 48.3573 84.4415 48.6374C83.8813 49.2326 83.2861 49.6877 82.6909 50.0728C82.4459 50.2479 82.2008 50.3879 81.8857 50.5279L81.5356 50.703L81.2555 50.808C81.1855 50.843 81.1155 50.843 81.0454 50.8781C80.9754 50.9131 80.9404 50.9131 80.9054 50.9131C80.8704 50.9481 80.8354 50.9481 80.7653 50.9481C80.5553 50.9481 80.4503 51.0531 80.4503 51.2982C80.4853 51.5082 80.6253 51.6133 80.8354 51.6133L80.9754 51.5783L81.2205 51.5082L81.5006 51.4032C81.9557 51.2282 82.4459 50.9481 83.006 50.563C83.7062 50.0378 84.3014 49.5126 84.7916 48.9525C85.0016 48.7074 85.2817 48.3573 85.5968 47.8321C85.7019 47.6921 85.8069 47.482 85.9469 47.2369L86.262 46.6068L86.4021 46.2917L86.5421 45.9766L86.6822 45.6265L86.7872 45.3114C86.8572 45.1363 86.9272 44.9262 86.9972 44.6812L87.0673 44.3661L87.1373 44.051C87.1723 43.9109 87.2423 43.7009 87.2773 43.4208L87.3824 42.8256L87.4174 42.5455L87.4524 42.2654L87.4874 41.9853ZM109.477 57.9502C109.022 58.3003 108.532 58.4754 107.936 58.4754C107.341 58.4754 106.816 58.3003 106.431 57.9502C105.976 57.5651 105.766 57.0049 105.801 56.3397C106.011 51.4732 106.501 45.6615 107.271 38.9394C105.311 42.3004 103.84 44.8212 102.86 46.4667C102.37 47.342 101.634 47.6921 100.689 47.517C99.7439 47.377 99.1137 46.8518 98.7986 45.9415L97.7833 42.8256L96.733 39.7096L96.2078 45.0663L95.6476 50.4229C95.6126 51.0531 95.3675 51.5783 94.9824 51.9634C94.5973 52.4185 94.0721 52.6286 93.442 52.6286C92.8468 52.6286 92.3216 52.4185 91.8665 51.9634C91.3763 51.5082 91.1663 51.0181 91.2013 50.4229L92.2866 39.8147L93.3369 29.2064C93.442 27.9461 94.1072 27.2108 95.2975 27.0358C96.4879 26.8607 97.2931 27.3859 97.6782 28.6113L99.6038 34.283L101.494 39.9897L108.882 27.3859C109.407 26.4756 110.247 26.1605 111.437 26.4056C112.663 26.6857 113.188 27.3859 113.013 28.5062C111.437 40.2348 110.527 49.5126 110.247 56.3397C110.212 57.0049 109.967 57.5651 109.477 57.9502ZM109.477 56.2347C109.617 55.7445 109.687 55.2194 109.687 54.6242C109.722 54.4141 109.722 54.099 109.722 53.7139V52.7686L109.757 51.7533V51.2282L109.792 50.703C109.827 50.2479 109.897 49.5126 109.932 48.5323L110.037 47.377L110.107 46.2566L110.282 43.9809L110.387 42.8956L110.457 41.8103C110.597 40.4099 110.702 39.1145 110.772 37.8891L111.122 34.1079C111.017 35.1232 110.877 36.3836 110.702 37.8891L110.247 41.7753L110.142 42.8606L110.037 43.9809L109.792 46.2216C109.722 46.7818 109.652 47.552 109.547 48.4973L109.337 50.703C109.302 51.6483 109.267 52.3135 109.232 52.7336V52.9787L109.197 53.2238V53.7139L109.162 54.1691L109.127 54.5892C109.092 55.1844 108.987 55.6745 108.882 56.0246C108.742 56.4097 108.567 56.6898 108.322 56.7949C108.216 56.8299 108.146 56.8299 108.041 56.8649C107.936 56.8649 107.831 56.8649 107.796 56.8299L107.691 56.7949H107.621L107.551 56.7599H107.516C107.306 56.7248 107.166 56.7949 107.131 57.0049C107.096 57.215 107.166 57.355 107.376 57.4251H107.516C107.551 57.4601 107.621 57.4601 107.656 57.4601C107.726 57.4951 107.866 57.4951 108.076 57.4951C108.146 57.4951 108.216 57.4951 108.322 57.4601C108.427 57.4251 108.532 57.39 108.602 57.355C108.847 57.25 109.022 57.0749 109.127 56.8999C109.232 56.7248 109.372 56.4798 109.477 56.2347ZM133.778 46.3967C133.533 46.8518 133.148 47.0969 132.692 47.2019C128.946 47.9372 125.515 49.2326 122.434 51.1231L121.594 51.6483L120.789 52.2085L120.439 52.4535L120.054 52.6986L119.704 53.0137L119.283 53.3288L118.898 53.6789C118.373 54.2041 117.708 54.3091 116.973 54.064C116.202 53.7839 115.852 53.2588 115.887 52.4535L116.097 48.8124L116.272 45.1713C115.992 44.8212 115.852 44.4361 115.852 44.016C115.887 43.5608 116.062 43.2107 116.378 42.9306L116.413 42.7556V42.5805L116.518 40.4449L116.658 38.3092C116.763 36.5237 116.868 35.0882 116.903 34.0729C116.202 33.6178 115.957 32.9526 116.132 32.1473C116.237 31.6572 116.588 31.2371 117.183 30.887C117.393 30.7819 117.638 30.6419 117.953 30.5368L118.338 30.4318L118.723 30.2918C119.809 29.8366 121.104 29.3465 122.574 28.8913C123.38 28.6113 124.325 28.2962 125.41 27.911L128.246 26.9658C128.771 26.7907 129.226 26.8607 129.647 27.1058C129.997 27.3509 130.242 27.701 130.382 28.1561C130.487 28.6113 130.452 29.0314 130.277 29.4515C130.102 29.9067 129.752 30.2217 129.226 30.3968L126.601 31.2371L123.975 32.0773L120.439 33.3377C120.404 34.353 120.369 35.6134 120.264 37.1189L120.124 39.0094L120.019 40.9L122.469 39.6046C122.925 39.3595 123.415 39.2895 123.87 39.4646C124.29 39.6046 124.605 39.8847 124.85 40.3048C125.095 40.6899 125.2 41.1101 125.095 41.5302C124.99 41.9853 124.71 42.3705 124.255 42.6155C123.03 43.2457 121.559 44.051 119.774 45.0313L119.563 48.7424C123.1 46.3967 127.161 44.7512 131.782 43.8059C132.938 43.5958 133.673 44.016 133.988 45.0663C134.093 45.5214 134.023 45.9766 133.778 46.3967ZM132.973 45.0663C132.798 45.0663 132.692 45.1363 132.692 45.2763V45.4164C132.692 45.5214 132.657 45.6265 132.552 45.7315C132.447 45.9065 132.237 46.0116 131.992 46.0816C131.817 46.1516 131.502 46.2216 131.082 46.3267L130.837 46.3967L130.557 46.4667L130.417 46.5017H130.347L130.242 46.5367L129.927 46.6418C129.822 46.6768 129.647 46.7118 129.366 46.8168L129.051 46.8868L128.736 46.9919C128.456 47.0969 128.001 47.2369 127.406 47.447L127.091 47.552L126.741 47.6921L126.11 47.9021C125.9 47.9722 125.69 48.0772 125.445 48.1822L124.78 48.4973L124.15 48.7774L123.555 49.0925C123.38 49.1625 123.205 49.2676 122.96 49.3726L122.679 49.5477L122.434 49.6877C121.979 49.9678 121.629 50.1778 121.454 50.3179L121.209 50.4579L120.999 50.598C120.824 50.703 120.719 50.773 120.649 50.843L120.299 51.0881L120.019 51.3332L119.669 51.6133L120.054 51.3332L120.334 51.1231L120.684 50.8781C120.754 50.808 120.859 50.738 121.034 50.633L121.244 50.5279L121.489 50.3879C121.664 50.2479 122.014 50.0378 122.469 49.7577C122.609 49.6877 122.784 49.6177 123.03 49.5126L123.625 49.1975L124.85 48.6724C125.025 48.6024 125.27 48.4973 125.515 48.3923L126.181 48.1122L126.531 48.0072L126.846 47.8671L127.161 47.7971L127.511 47.7271L128.176 47.517L128.841 47.307L129.436 47.1319L130.032 46.9569L130.207 46.9218H130.347L130.417 46.8868H130.487C130.522 46.8518 130.592 46.8518 130.627 46.8518L131.152 46.7468C131.572 46.6768 131.922 46.6068 132.167 46.5017C132.482 46.3967 132.692 46.2566 132.868 46.0816C132.973 46.0116 133.043 45.9415 133.113 45.8365L133.218 45.5564V45.4514C133.218 45.4164 133.218 45.3814 133.253 45.3464C133.253 45.1713 133.148 45.0663 132.973 45.0663ZM152.251 46.7118L152.216 48.6374L152.181 50.563C152.181 51.1932 151.971 51.6833 151.515 52.0684C151.13 52.4185 150.64 52.5936 150.08 52.5936C149.52 52.5936 149.03 52.4185 148.645 52.0684C148.224 51.6833 148.014 51.1932 148.014 50.563C148.014 49.4076 148.014 48.5323 148.049 47.9722C146.684 48.2873 145.003 48.8124 142.973 49.5477L143.078 55.2894C143.078 55.9196 142.868 56.4097 142.448 56.7949C142.063 57.145 141.572 57.32 141.012 57.32C140.452 57.32 139.962 57.145 139.577 56.7949C139.122 56.4097 138.912 55.9196 138.912 55.2894L138.807 51.0181C138.386 50.9831 137.966 50.843 137.581 50.5279C137.231 50.2129 136.986 49.8627 136.881 49.4426C136.566 48.2873 137.021 47.412 138.316 46.8518L138.526 46.7818L138.736 46.7118C138.701 43.2807 138.596 38.1692 138.456 31.3421C138.456 30.6769 138.666 30.1867 139.087 29.8016C139.472 29.4515 139.962 29.2765 140.522 29.2765C141.082 29.2765 141.572 29.4515 141.957 29.8016C142.413 30.1867 142.623 30.6769 142.658 31.3421L142.763 38.2392L142.903 45.1713C144.758 44.5061 146.474 44.016 148.084 43.6308L148.294 28.8213C148.294 28.1911 148.504 27.701 148.96 27.3159C149.345 26.9658 149.835 26.7907 150.395 26.7907C150.955 26.7907 151.445 26.9658 151.83 27.3159C152.251 27.701 152.461 28.1911 152.461 28.8213L152.391 36.2086L152.286 43.5958C152.601 43.8409 152.776 44.191 152.881 44.5761C153.126 45.4514 152.916 46.1516 152.251 46.7118ZM140.732 30.6419H140.837C141.012 30.6419 141.082 30.5719 141.082 30.4318C141.082 30.2918 141.012 30.2217 140.872 30.2217H140.697L140.592 30.2568L140.487 30.2918C140.382 30.3268 140.312 30.3618 140.242 30.3968C140.067 30.5018 139.892 30.6769 139.717 30.922C139.577 31.167 139.472 31.4471 139.402 31.7272C139.367 31.9723 139.332 32.1473 139.332 32.2524V35.0182C139.367 35.2633 139.367 35.6834 139.367 36.2086L139.472 38.5543L139.507 39.1145V39.6396C139.507 40.0948 139.507 40.4449 139.542 40.6549C139.577 41.1451 139.577 41.6002 139.612 42.0554V37.3989L139.577 36.2086V35.0182L139.612 34.423V33.8629C139.612 33.3377 139.612 32.9876 139.647 32.7425V32.5325C139.647 32.4274 139.647 32.3224 139.682 32.2874C139.682 32.1823 139.717 32.0073 139.752 31.8322C139.822 31.5872 139.927 31.3771 140.067 31.132C140.172 30.992 140.277 30.887 140.452 30.7819L140.557 30.7119L140.627 30.6769L140.732 30.6419ZM171.087 31.062C171.472 31.4121 171.647 31.8672 171.647 32.3924C171.647 32.9176 171.472 33.4077 171.087 33.7928C170.702 34.213 170.282 34.388 169.792 34.353C168.041 34.178 166.676 34.0379 165.73 34.0029C165.24 40.9 165.135 46.4667 165.415 50.703C165.45 51.2982 165.275 51.7883 164.89 52.1384C164.54 52.4535 164.12 52.5936 163.595 52.5936C163.069 52.5936 162.649 52.4535 162.264 52.1384C161.844 51.7883 161.599 51.2982 161.564 50.703C161.284 46.2216 161.389 40.6899 161.879 34.0729L160.829 34.178L159.743 34.318C158.903 34.423 158.203 34.458 157.608 34.4931C157.013 34.5281 156.557 34.353 156.242 33.9679C155.927 33.6178 155.787 33.1626 155.787 32.6375C155.787 32.1123 155.927 31.6922 156.242 31.3071C156.557 30.8519 157.013 30.6419 157.608 30.6069C158.133 30.5719 158.903 30.5018 159.919 30.3968L162.229 30.2217L162.334 28.7513C162.369 28.2261 162.579 27.771 162.894 27.4209C163.245 27.0358 163.7 26.8607 164.26 26.8607C164.785 26.8607 165.24 27.0358 165.625 27.4209C166.01 27.806 166.22 28.2611 166.185 28.7513L166.115 29.4515L166.045 30.1867L167.936 30.3268L169.792 30.5018C170.317 30.5368 170.737 30.7469 171.087 31.062ZM164.505 35.5784C164.505 35.7184 164.47 35.9285 164.435 36.2086C164.435 36.2786 164.435 36.3836 164.4 36.5237L164.365 36.7337L164.33 36.9788L164.225 37.9591C164.19 38.5193 164.12 39.3245 164.015 40.3748C163.98 40.76 163.98 41.2501 163.945 41.7753L163.875 43.2107C163.735 45.7665 163.63 48.3223 163.595 50.843V50.8781C163.595 51.0531 163.7 51.1581 163.875 51.1581C164.085 51.1581 164.19 51.0531 164.19 50.8781C164.155 48.3223 164.12 45.8015 164.155 43.2457L164.19 41.7753C164.19 41.1801 164.19 40.725 164.225 40.4099L164.33 37.9591L164.365 37.434C164.365 37.2239 164.365 37.0838 164.4 36.9788C164.435 36.5587 164.47 36.3136 164.47 36.2086C164.505 35.9285 164.505 35.7184 164.505 35.5784ZM178.656 47.9372C179.111 48.4623 179.321 49.0925 179.321 49.8627C179.321 50.633 179.111 51.2632 178.656 51.7533C178.2 52.2785 177.605 52.5236 176.905 52.5236C176.17 52.5236 175.61 52.2785 175.154 51.7533C174.699 51.2632 174.454 50.633 174.454 49.8627C174.454 49.0925 174.699 48.4623 175.154 47.9372C175.61 47.447 176.17 47.2019 176.905 47.2019C177.605 47.2019 178.2 47.447 178.656 47.9372ZM178.515 50.3529L178.585 50.1778L178.621 50.0028V49.7927C178.621 49.6877 178.621 49.6177 178.585 49.5827L178.48 49.1975C178.445 49.0925 178.41 49.0575 178.375 49.0225C178.34 48.9175 178.27 48.8824 178.235 48.8474L177.99 48.5323L177.675 48.3223C177.535 48.2172 177.43 48.1822 177.36 48.1472L177.22 48.1122C177.185 48.0772 177.115 48.0772 177.08 48.0772L176.94 48.0422H176.765C176.73 48.0422 176.73 48.0422 176.695 48.0772H176.59C176.555 48.0772 176.555 48.0772 176.555 48.1122C176.38 48.1472 176.345 48.2523 176.38 48.4273C176.45 48.6024 176.555 48.6374 176.73 48.6024C176.765 48.6024 176.765 48.6024 176.8 48.5674H176.835L176.87 48.5323H177.08L177.115 48.5674H177.22L177.36 48.6024L177.465 48.6724C177.57 48.7074 177.675 48.7424 177.745 48.8474C177.815 48.8824 177.92 48.9525 178.025 49.0575L178.13 49.1625L178.2 49.2326L178.235 49.3376C178.27 49.3726 178.34 49.4776 178.375 49.6527L178.41 49.7227V49.7927L178.445 49.8978V49.9678C178.445 50.1428 178.445 50.2479 178.41 50.3179L178.305 50.598L178.27 50.703L178.2 50.843L178.095 50.9831C178.06 51.0531 178.025 51.1231 177.99 51.1581C178.025 51.1231 178.06 51.0531 178.095 51.0181L178.165 50.9481L178.235 50.843C178.27 50.808 178.27 50.773 178.305 50.738L178.375 50.633C178.41 50.598 178.48 50.4929 178.515 50.3529ZM184.844 52.4185C184.389 52.6286 183.933 52.6636 183.443 52.5236C182.953 52.4185 182.603 52.1384 182.358 51.7533C182.078 51.3332 182.043 50.843 182.253 50.3179L189.955 28.2261C190.235 27.4209 190.866 26.9658 191.846 26.8957C192.826 26.8257 193.386 27.2808 193.561 28.2261C194.927 36.4186 197.237 43.5608 200.493 49.6877C200.739 50.1778 200.774 50.668 200.598 51.1581C200.423 51.6133 200.143 51.9634 199.723 52.2085C199.268 52.4885 198.848 52.5936 198.393 52.4885C197.903 52.3835 197.518 52.1034 197.272 51.5783C194.787 46.9919 192.791 41.7053 191.286 35.6834C189.78 40.0598 187.96 45.2763 185.859 51.2982C185.684 51.8233 185.334 52.2085 184.844 52.4185ZM189.57 32.5325L183.163 50.703C183.093 50.808 183.093 50.8781 183.163 50.9831C183.198 51.0531 183.268 51.0881 183.373 51.1231C183.548 51.1932 183.688 51.1231 183.793 50.9131L189.57 32.5325ZM201.085 48.1822C200.7 47.7971 200.525 47.377 200.525 46.8518C200.525 46.3267 200.7 45.9065 201.085 45.5564C201.47 45.2413 201.89 45.0313 202.415 44.9963C202.801 44.9612 203.221 44.9963 203.676 45.0313L207.877 28.2962C208.157 27.2458 208.822 26.7907 209.873 26.9658C210.958 27.1408 211.518 27.771 211.553 28.7863L211.658 30.2217L211.728 31.6922C211.903 34.7731 212.183 39.1145 212.534 44.6812C212.709 47.482 212.814 49.6177 212.919 51.0531C213.059 53.4338 213.199 55.6395 213.304 57.7051C213.339 58.2653 213.164 58.7205 212.814 59.0706C212.499 59.3857 212.078 59.5257 211.553 59.5257C211.028 59.5257 210.608 59.3857 210.258 59.0706C209.838 58.7205 209.628 58.2653 209.593 57.7051C209.488 56.4798 209.453 55.4995 209.418 54.7993C209.383 54.4141 209.383 54.064 209.348 53.7489L209.313 53.3638L209.278 53.0137C209.243 52.4185 209.173 51.8233 209.138 51.2282C209.032 51.1581 208.927 51.0531 208.752 50.8781L208.402 50.563C208.367 50.5279 208.297 50.4579 208.122 50.3529C207.947 50.2479 207.842 50.1428 207.772 50.1078L207.317 49.8627L206.827 49.6177L206.617 49.5126L206.407 49.4426L205.952 51.2632C205.812 51.8233 205.496 52.2085 205.041 52.4185C204.656 52.6286 204.201 52.6636 203.711 52.5236C203.221 52.3835 202.836 52.1384 202.591 51.7533C202.275 51.2982 202.205 50.808 202.345 50.2829L202.556 49.4776L202.731 48.6724C202.591 48.7074 202.485 48.7424 202.415 48.7424C201.925 48.7774 201.47 48.5674 201.085 48.1822ZM208.647 28.5412C208.717 28.7163 208.822 28.7513 208.997 28.7163C209.032 28.7163 209.067 28.7163 209.103 28.6813H209.418C209.558 28.6813 209.698 28.7163 209.838 28.7863C209.978 28.8913 210.118 29.0314 210.223 29.2414L210.258 29.3465V29.4515L210.293 29.4865V29.6266C210.328 29.8016 210.363 29.9767 210.363 30.0817C210.398 30.1867 210.398 30.3618 210.433 30.5719L210.468 31.097C210.538 31.4121 210.573 31.7622 210.573 32.1473L210.678 33.2677C210.853 35.2283 210.993 37.1889 211.133 39.1845C211.098 37.1889 211.028 35.2283 210.958 33.2327V32.6725L210.923 32.1123L210.888 31.5872L210.853 31.062C210.853 30.8169 210.818 30.4668 210.783 30.0467C210.783 29.8366 210.783 29.6616 210.748 29.5565V29.3815L210.713 29.3465V29.2064L210.678 29.1014C210.573 28.7513 210.363 28.5062 210.118 28.3662C209.908 28.2261 209.698 28.1561 209.453 28.1561C209.278 28.1211 209.138 28.1211 209.032 28.1561C208.962 28.1561 208.892 28.1561 208.857 28.1911C208.682 28.2261 208.612 28.3662 208.647 28.5412ZM204.726 35.4383C204.691 35.3683 204.691 35.2983 204.726 35.2283L205.076 33.7578C205.146 33.5828 205.251 33.5478 205.426 33.5828C205.601 33.6178 205.671 33.7578 205.636 33.9329L205.251 35.3683C205.216 35.5084 205.111 35.5784 204.971 35.5784C204.936 35.5784 204.936 35.5784 204.901 35.5434C204.831 35.5084 204.761 35.4734 204.726 35.4383ZM202.941 43.3157H202.871C202.696 43.2807 202.626 43.1407 202.661 42.9656L204.516 36.0335C204.551 35.8585 204.656 35.7884 204.831 35.8235C205.006 35.8585 205.076 35.9985 205.041 36.1736L203.221 43.1407C203.186 43.1757 203.151 43.2457 203.116 43.2807C203.046 43.3157 202.976 43.3157 202.941 43.3157ZM208.857 46.4667L208.542 40.97L207.947 43.3858L207.317 45.8015L208.017 46.0816C208.262 46.1866 208.507 46.2917 208.682 46.3967C208.717 46.3967 208.752 46.4317 208.857 46.4667ZM226.041 40.6199H225.026L224.921 40.6549H224.675C224.5 40.725 224.325 40.76 224.15 40.76L223.625 40.9C223.38 40.97 223.205 41.0401 223.1 41.0751C222.715 41.1801 222.4 41.3201 222.085 41.4252C221.91 41.4952 221.77 41.5652 221.63 41.6002L221.559 41.6352H221.524C221.489 41.6702 221.489 41.6702 221.454 41.6702V41.7053C221.174 41.8103 220.789 41.9853 220.264 42.2304V48.5674C221.279 48.4273 222.26 48.2172 223.24 47.9372L224.15 47.6221L225.061 47.307L225.236 47.2369C225.411 47.1319 225.551 47.0969 225.656 47.0619L226.041 46.8168L226.426 46.6068L226.706 46.4667L226.951 46.2917C226.951 46.2566 226.951 46.2566 226.986 46.2566C227.021 46.2566 227.021 46.2566 227.021 46.2216L227.336 45.9415L227.616 45.6615L227.721 45.5564L227.756 45.4864L227.791 45.4514C227.826 45.3464 227.896 45.3114 227.931 45.2763L228.106 44.8912C228.106 44.8562 228.106 44.8562 228.141 44.8562V44.8212L228.177 44.6812L228.212 44.5411C228.247 44.4361 228.282 44.3311 228.282 44.226C228.282 44.191 228.282 44.191 228.317 44.191V43.7709L228.282 43.3508L228.247 43.0357C228.212 42.9306 228.141 42.7556 228.106 42.5105C227.966 42.1254 227.826 41.8103 227.686 41.6002C227.651 41.5652 227.616 41.4952 227.581 41.4252C227.546 41.3902 227.476 41.3551 227.441 41.2501C227.406 41.2501 227.371 41.2151 227.336 41.1801L227.196 41.0751L227.161 41.0401C227.161 41.005 227.196 41.0401 227.266 41.0751L227.091 40.97L226.881 40.83C226.846 40.83 226.811 40.83 226.776 40.795H226.706L226.461 40.725L226.216 40.6549H226.076C226.076 40.6199 226.076 40.6199 226.041 40.6199ZM229.157 47.6921L229.017 47.9021L228.842 48.0772C228.562 48.3573 228.352 48.5674 228.177 48.6724L228.001 48.8124L227.826 48.9525L227.721 49.0225L227.651 49.0925L227.441 49.1975L227.266 49.3026L227.091 49.4426C227.056 49.4776 226.986 49.5126 226.916 49.5477L226.741 49.6527L226.356 49.7927L226.006 49.9678C225.831 50.0728 225.656 50.1428 225.446 50.1778C225.201 50.2829 225.061 50.3179 224.956 50.3529C224.78 50.3879 224.675 50.4579 224.57 50.4929C224.675 50.4579 224.815 50.4229 224.991 50.3879L225.201 50.3179L225.446 50.2479L225.726 50.1428C225.866 50.1078 225.971 50.0728 226.076 50.0378C226.216 50.0028 226.461 49.8978 226.776 49.7227L226.986 49.6527L227.161 49.5827C227.231 49.5126 227.371 49.4426 227.546 49.3376L227.651 49.3026L227.756 49.2326C227.791 49.1975 227.826 49.1625 227.931 49.1275L228.106 48.9875L228.317 48.8474C228.632 48.6024 228.877 48.4273 229.052 48.2523L229.227 48.1122L229.402 47.9372L229.542 47.7271C229.612 47.6571 229.682 47.5871 229.717 47.552L230.032 47.2019C230.137 47.0619 230.242 46.9218 230.277 46.8168C230.347 46.7468 230.417 46.6068 230.522 46.4317L230.732 46.0816L230.802 45.8715L230.907 45.6965L230.942 45.6265L230.977 45.5214C231.012 45.4864 231.012 45.4514 231.012 45.3464L231.082 45.1713L231.152 45.0313C231.187 44.9612 231.187 44.8562 231.187 44.7162C231.257 44.5061 231.292 44.3311 231.292 44.156C231.327 43.9809 231.327 43.8409 231.327 43.7359C231.327 43.6659 231.292 43.5958 231.257 43.5258C231.222 43.4558 231.152 43.4208 231.082 43.4208C230.907 43.4208 230.802 43.4908 230.802 43.6659V43.7359C230.802 43.8409 230.802 43.9459 230.767 44.121V44.3311L230.732 44.5761C230.697 44.6812 230.697 44.7862 230.697 44.9262L230.592 45.2063V45.3114L230.557 45.3814L230.522 45.4514L230.487 45.5564C230.452 45.6965 230.382 45.8015 230.347 45.9065L230.277 46.0816L230.207 46.2566L230.102 46.4317L229.997 46.6418L229.857 46.8168L229.717 46.9919L229.472 47.342C229.402 47.447 229.297 47.552 229.157 47.6921ZM228.912 25.0752C228.842 25.0052 228.772 24.9701 228.702 25.0052H228.597C228.562 25.0402 228.457 25.0402 228.282 25.0402C228.177 25.0752 228.036 25.1102 227.791 25.1452L227.511 25.1802L227.196 25.2502L226.846 25.3203L226.496 25.3903L225.726 25.6003C225.166 25.7404 224.605 25.9154 224.045 26.1255L223.625 26.2655L223.205 26.4056L222.82 26.5806L222.435 26.7207L222.05 26.8957L221.7 27.0708L221.034 27.3859L220.754 27.4909L220.509 27.631L220.089 27.876L219.739 28.0511C219.844 28.0161 219.949 27.9811 220.089 27.876C220.194 27.841 220.334 27.806 220.509 27.701L220.789 27.5959L221.069 27.4559L221.384 27.3159L221.735 27.1758L222.12 27.0358L222.505 26.9307C222.82 26.8257 223.065 26.7207 223.31 26.6507L223.73 26.5106L224.15 26.4056C224.885 26.2305 225.446 26.0905 225.831 26.0205L226.216 25.9504L226.601 25.8804L226.951 25.8104C227.091 25.7754 227.196 25.7754 227.301 25.7754C227.476 25.7404 227.651 25.7404 227.896 25.7054L228.141 25.6704L228.352 25.6353C228.492 25.6353 228.597 25.6353 228.632 25.6003H228.737L229.017 25.2852C229.017 25.1802 228.982 25.1102 228.912 25.0752ZM220.229 31.062C220.229 32.1473 220.229 33.1977 220.229 34.213V35.9985L220.264 37.7841C221.419 37.1889 223.065 36.8388 225.131 36.8038C227.196 36.7687 228.912 37.469 230.242 38.9394C231.327 40.3398 231.888 41.8803 231.923 43.5608C231.958 45.3114 231.432 46.8518 230.312 48.1472C229.052 49.5477 227.231 50.633 224.885 51.3682C222.995 51.9634 220.894 52.2785 218.549 52.3835C217.883 52.4185 217.358 52.1735 217.043 51.6483C216.728 51.1932 216.658 50.668 216.833 50.0728V50.0028C216.798 48.6374 216.798 46.1866 216.798 42.7206C216.483 42.4755 216.273 42.1604 216.168 41.7753C215.958 41.0401 216.168 40.4099 216.763 39.9197V32.7075C216.133 32.3924 215.713 31.9373 215.538 31.2721C215.363 30.5719 215.538 29.9417 216.098 29.4165C218.689 26.8607 222.645 25.1452 228.001 24.2699C228.562 24.1649 229.087 24.1999 229.542 24.445C230.067 24.6901 230.382 25.1102 230.522 25.6704C230.627 26.1955 230.557 26.7207 230.312 27.2458C229.997 27.771 229.612 28.0861 229.087 28.1911C226.006 28.7163 223.1 29.6266 220.369 30.992C220.334 31.027 220.264 31.027 220.229 31.062Z" fill="white"/>
</svg>
