<svg width="886" height="170" viewBox="0 0 886 170" fill="none" xmlns="http://www.w3.org/2000/svg">
<path d="M87.5172 161.728C85.3484 163.396 83.0128 164.23 80.1768 164.23C77.3407 164.23 74.8383 163.396 73.0031 161.728C70.8344 159.893 69.8334 157.223 70.0002 154.054C71.0012 130.865 73.3368 103.171 77.007 71.1401C67.6646 87.1556 60.6579 99.1672 55.9867 107.008C53.6511 111.179 50.1477 112.847 45.6433 112.013C41.139 111.346 38.1361 108.843 36.6346 104.506L31.7966 89.658L26.7917 74.8103L24.2893 100.335L21.6201 125.86C21.4532 128.863 20.2854 131.365 18.4503 133.2C16.6152 135.369 14.1128 136.37 11.1099 136.37C8.27382 136.37 5.77139 135.369 3.60263 133.2C1.26703 131.031 0.266064 128.696 0.432892 125.86L5.60457 75.3108L10.6094 24.7618C11.1099 18.756 14.2796 15.2526 19.9518 14.4185C25.6239 13.5843 29.461 16.0868 31.2961 21.9257L40.4716 48.9519L49.4804 76.1449L84.6811 16.0868C87.1835 11.7492 91.1874 10.2478 96.8596 11.4156C102.699 12.7502 105.201 16.0868 104.367 21.4253C96.8596 77.3127 92.522 121.522 91.1874 154.054C91.0206 157.223 89.8528 159.893 87.5172 161.728ZM87.5172 153.553C88.1845 151.218 88.5182 148.715 88.5182 145.879C88.685 144.878 88.685 143.377 88.685 141.542V137.037L88.8518 132.199V129.697L89.0186 127.194C89.1855 125.026 89.5191 121.522 89.686 116.851L90.1864 111.346L90.5201 106.007L91.3542 95.1633L91.8547 89.9916L92.1884 84.82C92.8557 78.1468 93.3562 71.9742 93.6898 66.1352L95.3581 48.1178C94.8576 52.9558 94.1903 58.9616 93.3562 66.1352L91.1874 84.6531L90.6869 89.8248L90.1864 95.1633L89.0186 105.84C88.685 108.51 88.3513 112.18 87.8508 116.684L86.8499 127.194C86.6831 131.699 86.5162 134.868 86.3494 136.87V138.038L86.1826 139.206V141.542L86.0157 143.71L85.8489 145.712C85.6821 148.548 85.1816 150.884 84.6811 152.552C84.0138 154.387 83.1797 155.722 82.0119 156.222C81.5114 156.389 81.1777 156.389 80.6772 156.556C80.1768 156.556 79.6763 156.556 79.5094 156.389L79.009 156.222H78.6753L78.3416 156.056H78.1748C77.1738 155.889 76.5065 156.222 76.3397 157.223C76.1729 158.224 76.5065 158.892 77.5075 159.225H78.1748C78.3416 159.392 78.6753 159.392 78.8421 159.392C79.1758 159.559 79.8431 159.559 80.8441 159.559C81.1777 159.559 81.5114 159.559 82.0119 159.392C82.5123 159.225 83.0128 159.059 83.3465 158.892C84.5143 158.391 85.3484 157.557 85.8489 156.723C86.3494 155.889 87.0167 154.721 87.5172 153.553ZM194.304 39.7764C198.975 50.1197 201.311 62.1313 201.311 75.8112C201.144 90.8258 198.141 103.672 192.469 114.182C186.296 125.693 178.289 132.7 168.112 135.202C157.101 138.205 146.925 135.869 137.749 128.028C128.24 120.354 122.234 109.01 119.398 93.8287C117.063 80.8161 117.396 67.6367 120.566 54.2904C123.402 42.112 128.908 32.2691 136.915 24.4282C146.258 15.4194 156.601 12.4165 168.112 15.5863C179.623 18.756 188.465 26.9306 194.304 39.7764ZM158.77 115.516H159.437C164.942 115.35 169.447 112.013 173.117 105.84C177.621 97.8326 180.124 87.8229 180.291 75.8112C180.291 63.1323 178.122 53.1226 173.617 45.7822C172.45 43.7802 171.282 42.2788 170.281 41.111L169.113 39.9432C168.613 39.4427 168.279 38.9422 167.778 38.7754L167.278 38.2749L165.943 37.4408L164.776 36.7735C164.609 36.6066 164.442 36.4398 164.275 36.4398L163.941 36.273H163.608C163.441 36.273 162.94 36.1061 162.273 35.9393C161.939 35.9393 161.773 35.9393 161.606 35.7725H160.271C154.766 35.7725 150.262 38.9422 146.424 45.4485C141.586 53.6231 139.251 63.6328 139.251 75.3108C139.251 87.9897 141.42 97.9994 145.924 105.34C147.425 107.675 148.426 109.344 149.261 110.178L150.428 111.512C150.929 112.013 151.262 112.347 151.763 112.513L152.097 112.847L153.431 113.681L154.766 114.515L155.266 114.849C155.433 114.849 155.767 114.849 155.934 115.016H156.434L157.435 115.183C158.102 115.35 158.269 115.35 157.936 115.35L158.77 115.516ZM196.973 85.6541V84.1527L197.14 81.8171V76.3117C196.973 75.1439 196.973 74.143 196.973 73.3088V77.98L196.807 79.6483C196.807 80.4824 196.64 81.9839 196.473 84.1527C196.473 84.82 196.306 85.6541 196.139 86.8219L195.972 88.1565L195.639 89.658L195.138 92.3272L194.805 93.6619L194.304 95.1633C194.137 95.8306 193.971 96.8316 193.47 98.1662L192.469 101.169L191.802 102.504L191.134 104.005L190.467 105.507L189.8 107.008L188.966 108.343L188.132 109.844C187.631 111.012 186.964 111.846 186.463 112.513C185.129 114.349 183.794 116.017 182.459 117.351C179.79 120.188 176.954 122.356 174.118 124.191C172.95 125.026 171.782 125.693 170.281 126.36L168.613 127.194L167.278 127.695C166.944 127.862 166.611 127.862 166.277 128.028C165.943 128.195 165.777 128.195 165.61 128.195C165.443 128.362 165.276 128.362 164.942 128.362C163.941 128.362 163.441 128.863 163.441 130.03C163.608 131.031 164.275 131.532 165.276 131.532L165.943 131.365L167.111 131.031L168.446 130.531C170.615 129.697 172.95 128.362 175.619 126.527C178.956 124.025 181.792 121.522 184.128 118.853C185.129 117.685 186.463 116.017 187.965 113.514C188.465 112.847 188.966 111.846 189.633 110.678L191.134 107.675L191.802 106.174L192.469 104.673L193.136 103.004L193.637 101.503C193.971 100.669 194.304 99.6677 194.638 98.4999L194.971 96.9984L195.305 95.497C195.472 94.8297 195.806 93.8287 195.972 92.4941L196.473 89.658L196.64 88.3234L196.807 86.9887L196.973 85.6541ZM301.755 161.728C299.586 163.396 297.25 164.23 294.414 164.23C291.578 164.23 289.076 163.396 287.24 161.728C285.072 159.893 284.071 157.223 284.238 154.054C285.239 130.865 287.574 103.171 291.244 71.1401C281.902 87.1556 274.895 99.1672 270.224 107.008C267.888 111.179 264.385 112.847 259.881 112.013C255.376 111.346 252.373 108.843 250.872 104.506L246.034 89.658L241.029 74.8103L238.527 100.335L235.857 125.86C235.691 128.863 234.523 131.365 232.688 133.2C230.853 135.369 228.35 136.37 225.347 136.37C222.511 136.37 220.009 135.369 217.84 133.2C215.504 131.031 214.503 128.696 214.67 125.86L219.842 75.3108L224.847 24.7618C225.347 18.756 228.517 15.2526 234.189 14.4185C239.861 13.5843 243.698 16.0868 245.533 21.9257L254.709 48.9519L263.718 76.1449L298.918 16.0868C301.421 11.7492 305.425 10.2478 311.097 11.4156C316.936 12.7502 319.438 16.0868 318.604 21.4253C311.097 77.3127 306.759 121.522 305.425 154.054C305.258 157.223 304.09 159.893 301.755 161.728ZM301.755 153.553C302.422 151.218 302.755 148.715 302.755 145.879C302.922 144.878 302.922 143.377 302.922 141.542V137.037L303.089 132.199V129.697L303.256 127.194C303.423 125.026 303.756 121.522 303.923 116.851L304.424 111.346L304.757 106.007L305.592 95.1633L306.092 89.9916L306.426 84.82C307.093 78.1468 307.594 71.9742 307.927 66.1352L309.595 48.1178C309.095 52.9558 308.428 58.9616 307.594 66.1352L305.425 84.6531L304.924 89.8248L304.424 95.1633L303.256 105.84C302.922 108.51 302.589 112.18 302.088 116.684L301.087 127.194C300.92 131.699 300.754 134.868 300.587 136.87V138.038L300.42 139.206V141.542L300.253 143.71L300.086 145.712C299.919 148.548 299.419 150.884 298.918 152.552C298.251 154.387 297.417 155.722 296.249 156.222C295.749 156.389 295.415 156.389 294.915 156.556C294.414 156.556 293.914 156.556 293.747 156.389L293.246 156.222H292.913L292.579 156.056H292.412C291.411 155.889 290.744 156.222 290.577 157.223C290.41 158.224 290.744 158.892 291.745 159.225H292.412C292.579 159.392 292.913 159.392 293.079 159.392C293.413 159.559 294.08 159.559 295.081 159.559C295.415 159.559 295.749 159.559 296.249 159.392C296.75 159.225 297.25 159.059 297.584 158.892C298.752 158.391 299.586 157.557 300.086 156.723C300.587 155.889 301.254 154.721 301.755 153.553ZM417.55 106.674C416.382 108.843 414.547 110.011 412.379 110.512C394.528 114.015 378.179 120.188 363.498 129.196L359.494 131.699L355.657 134.368L353.989 135.536L352.154 136.704L350.485 138.205L348.483 139.706L346.648 141.375C344.146 143.877 340.976 144.378 337.473 143.21C333.802 141.875 332.134 139.373 332.301 135.536L333.302 118.186L334.136 100.835C332.801 99.1672 332.134 97.3321 332.134 95.3301C332.301 93.1614 333.135 91.4931 334.637 90.1585L334.803 89.3243V88.4902L335.304 78.3137L335.971 68.1372C336.472 59.6289 336.972 52.789 337.139 47.9509C333.802 45.7822 332.635 42.6124 333.469 38.7754C333.969 36.4398 335.638 34.4379 338.474 32.7696C339.475 32.2691 340.642 31.6018 342.144 31.1013L343.979 30.6008L345.814 29.9335C350.986 27.7647 357.158 25.4291 364.165 23.2604C368.002 21.9257 372.507 20.4243 377.678 18.5892L391.191 14.0848C393.694 13.2507 395.863 13.5843 397.864 14.7521C399.533 15.9199 400.701 17.5882 401.368 19.757C401.868 21.9257 401.702 23.9277 400.867 25.9296C400.033 28.0984 398.365 29.5998 395.863 30.434L383.35 34.4379L370.838 38.4417L353.989 44.4475C353.822 49.2856 353.655 55.2914 353.155 62.465L352.487 71.4737L351.987 80.4824L363.665 74.3098C365.833 73.142 368.169 72.8083 370.338 73.6425C372.34 74.3098 373.841 75.6444 375.009 77.6464C376.177 79.4815 376.677 81.4834 376.177 83.4853C375.676 85.6541 374.342 87.4892 372.173 88.657C366.334 91.6599 359.327 95.497 350.819 100.168L349.818 117.852C366.668 106.674 386.02 98.8335 408.041 94.3292C413.546 93.3282 417.05 95.3301 418.551 100.335C419.052 102.504 418.718 104.673 417.55 106.674ZM413.713 100.335C412.879 100.335 412.379 100.669 412.379 101.336V102.003C412.379 102.504 412.212 103.004 411.711 103.505C411.211 104.339 410.21 104.839 409.042 105.173C408.208 105.507 406.706 105.84 404.704 106.341L403.537 106.674L402.202 107.008L401.535 107.175H401.201L400.701 107.342L399.199 107.842C398.699 108.009 397.864 108.176 396.53 108.676L395.028 109.01L393.527 109.511C392.192 110.011 390.024 110.678 387.187 111.679L385.686 112.18L384.018 112.847L381.015 113.848C380.014 114.182 379.013 114.682 377.845 115.183L374.675 116.684L371.672 118.019L368.836 119.52C368.002 119.854 367.168 120.354 366 120.855L364.666 121.689L363.498 122.356C361.329 123.691 359.661 124.692 358.827 125.359L357.659 126.027L356.658 126.694C355.824 127.194 355.323 127.528 354.99 127.862L353.321 129.029L351.987 130.197L350.318 131.532L352.154 130.197L353.488 129.196L355.156 128.028C355.49 127.695 355.991 127.361 356.825 126.861L357.826 126.36L358.994 125.693C359.828 125.026 361.496 124.025 363.665 122.69C364.332 122.356 365.166 122.023 366.334 121.522L369.17 120.021L375.009 117.518C375.843 117.185 377.011 116.684 378.179 116.184L381.348 114.849L383.017 114.349L384.518 113.681L386.02 113.348L387.688 113.014L390.858 112.013L394.027 111.012L396.864 110.178L399.7 109.344L400.534 109.177H401.201L401.535 109.01H401.868C402.035 108.843 402.369 108.843 402.536 108.843L405.038 108.343C407.04 108.009 408.708 107.675 409.876 107.175C411.378 106.674 412.379 106.007 413.213 105.173C413.713 104.839 414.047 104.506 414.38 104.005L414.881 102.671V102.17C414.881 102.003 414.881 101.836 415.048 101.67C415.048 100.835 414.547 100.335 413.713 100.335ZM505.574 108.176L505.407 117.351L505.241 126.527C505.241 129.53 504.24 131.866 502.071 133.701C500.236 135.369 497.9 136.203 495.231 136.203C492.562 136.203 490.226 135.369 488.391 133.701C486.389 131.866 485.388 129.53 485.388 126.527C485.388 121.022 485.388 116.851 485.555 114.182C479.049 115.683 471.041 118.186 461.365 121.689L461.865 149.049C461.865 152.052 460.864 154.387 458.862 156.222C457.027 157.891 454.692 158.725 452.022 158.725C449.353 158.725 447.018 157.891 445.182 156.222C443.014 154.387 442.013 152.052 442.013 149.049L441.512 128.696C439.51 128.529 437.508 127.862 435.673 126.36C434.005 124.859 432.837 123.19 432.337 121.189C430.835 115.683 433.004 111.512 439.177 108.843L440.178 108.51L441.179 108.176C441.012 91.8268 440.511 67.4698 439.844 34.9383C439.844 31.7686 440.845 29.433 442.847 27.5979C444.682 25.9296 447.018 25.0955 449.687 25.0955C452.356 25.0955 454.692 25.9296 456.527 27.5979C458.695 29.433 459.696 31.7686 459.863 34.9383L460.364 67.8035L461.031 100.835C469.873 97.6657 478.048 95.3301 485.722 93.495L486.723 22.9267C486.723 19.9238 487.724 17.5882 489.892 15.7531C491.727 14.0848 494.063 13.2507 496.732 13.2507C499.402 13.2507 501.737 14.0848 503.572 15.7531C505.574 17.5882 506.575 19.9238 506.575 22.9267L506.242 58.1275L505.741 93.3282C507.242 94.496 508.077 96.1643 508.577 97.9994C509.745 102.17 508.744 105.507 505.574 108.176ZM450.688 31.6018H451.188C452.022 31.6018 452.356 31.2681 452.356 30.6008C452.356 29.9335 452.022 29.5998 451.355 29.5998H450.521L450.02 29.7667L449.52 29.9335C449.019 30.1003 448.686 30.2672 448.352 30.434C447.518 30.9345 446.684 31.7686 445.85 32.9364C445.182 34.1042 444.682 35.4388 444.348 36.7735C444.181 37.9413 444.015 38.7754 444.015 39.2759V52.4553C444.181 53.6231 444.181 55.625 444.181 58.1275L444.682 69.3049L444.849 71.9742V74.4766C444.849 76.6454 444.849 78.3137 445.016 79.3146C445.182 81.6502 445.182 83.819 445.349 85.9878V63.7996L445.182 58.1275V52.4553L445.349 49.6192V46.95C445.349 44.4475 445.349 42.7793 445.516 41.6115V40.6105C445.516 40.11 445.516 39.6095 445.683 39.4427C445.683 38.9422 445.85 38.1081 446.017 37.2739C446.35 36.1061 446.851 35.1052 447.518 33.9374C448.018 33.2701 448.519 32.7696 449.353 32.2691L449.854 31.9354L450.187 31.7686L450.688 31.6018ZM595.33 33.6037C597.165 35.272 598 37.4408 598 39.9432C598 42.4456 597.165 44.7812 595.33 46.6163C593.495 48.6183 591.493 49.4524 589.158 49.2856C580.816 48.4514 574.31 47.7841 569.806 47.6173C567.47 80.4824 566.97 107.008 568.304 127.194C568.471 130.03 567.637 132.366 565.802 134.034C564.133 135.536 562.132 136.203 559.629 136.203C557.127 136.203 555.125 135.536 553.29 134.034C551.288 132.366 550.12 130.03 549.953 127.194C548.618 105.84 549.119 79.4815 551.455 47.9509L546.45 48.4514L541.278 49.1187C537.274 49.6192 533.938 49.7861 531.102 49.9529C528.265 50.1197 526.097 49.2856 524.595 47.4505C523.094 45.7822 522.426 43.6134 522.426 41.111C522.426 38.6086 523.094 36.6066 524.595 34.7715C526.097 32.6028 528.265 31.6018 531.102 31.435C533.604 31.2681 537.274 30.9345 542.112 30.434L553.123 29.5998L553.623 22.5931C553.79 20.0906 554.791 17.9219 556.293 16.2536C557.961 14.4185 560.13 13.5843 562.799 13.5843C565.301 13.5843 567.47 14.4185 569.305 16.2536C571.14 18.0887 572.141 20.2575 571.974 22.5931L571.641 25.9296L571.307 29.433L580.316 30.1003L589.158 30.9345C591.66 31.1013 593.662 32.1023 595.33 33.6037ZM563.967 55.1246C563.967 55.7919 563.8 56.7928 563.633 58.1275C563.633 58.4611 563.633 58.9616 563.466 59.6289L563.299 60.6299L563.133 61.7977L562.632 66.4689C562.465 69.1381 562.132 72.9752 561.631 77.98C561.464 79.8151 561.464 82.1507 561.297 84.6531L560.964 91.4931C560.296 103.672 559.796 115.85 559.629 127.862V128.028C559.629 128.863 560.13 129.363 560.964 129.363C561.965 129.363 562.465 128.863 562.465 128.028C562.298 115.85 562.132 103.838 562.298 91.6599L562.465 84.6531C562.465 81.8171 562.465 79.6483 562.632 78.1468L563.133 66.4689L563.299 63.9664C563.299 62.9655 563.299 62.2982 563.466 61.7977C563.633 59.7957 563.8 58.6279 563.8 58.1275C563.967 56.7928 563.967 55.7919 563.967 55.1246ZM631.395 114.015C633.564 116.517 634.565 119.52 634.565 123.19C634.565 126.861 633.564 129.864 631.395 132.199C629.226 134.702 626.39 135.869 623.054 135.869C619.55 135.869 616.881 134.702 614.712 132.199C612.544 129.864 611.376 126.861 611.376 123.19C611.376 119.52 612.544 116.517 614.712 114.015C616.881 111.679 619.55 110.512 623.054 110.512C626.39 110.512 629.226 111.679 631.395 114.015ZM630.728 125.526L631.062 124.692L631.228 123.858V122.857C631.228 122.356 631.228 122.023 631.062 121.856L630.561 120.021C630.394 119.52 630.227 119.353 630.061 119.187C629.894 118.686 629.56 118.519 629.393 118.352L628.225 116.851L626.724 115.85C626.057 115.35 625.556 115.183 625.223 115.016L624.555 114.849C624.388 114.682 624.055 114.682 623.888 114.682L623.221 114.515H622.386C622.22 114.515 622.22 114.515 622.053 114.682H621.552C621.386 114.682 621.386 114.682 621.386 114.849C620.551 115.016 620.385 115.516 620.551 116.35C620.885 117.185 621.386 117.351 622.22 117.185C622.386 117.185 622.386 117.185 622.553 117.018H622.72L622.887 116.851H623.888L624.055 117.018H624.555L625.223 117.185L625.723 117.518C626.224 117.685 626.724 117.852 627.058 118.352C627.391 118.519 627.892 118.853 628.392 119.353L628.893 119.854L629.226 120.188L629.393 120.688C629.56 120.855 629.894 121.355 630.061 122.189L630.227 122.523V122.857L630.394 123.357V123.691C630.394 124.525 630.394 125.026 630.227 125.359L629.727 126.694L629.56 127.194L629.226 127.862L628.726 128.529C628.559 128.863 628.392 129.196 628.225 129.363C628.392 129.196 628.559 128.863 628.726 128.696L629.06 128.362L629.393 127.862C629.56 127.695 629.56 127.528 629.727 127.361L630.061 126.861C630.227 126.694 630.561 126.193 630.728 125.526ZM660.882 135.369C658.713 136.37 656.545 136.537 654.209 135.869C651.873 135.369 650.205 134.034 649.037 132.199C647.703 130.197 647.536 127.862 648.537 125.359L685.239 20.0906C686.574 16.2536 689.577 14.0848 694.248 13.7512C698.919 13.4175 701.588 15.5863 702.422 20.0906C708.929 59.1284 719.939 93.1614 735.454 122.356C736.622 124.692 736.789 127.027 735.955 129.363C735.121 131.532 733.786 133.2 731.784 134.368C729.615 135.703 727.613 136.203 725.445 135.703C723.109 135.202 721.274 133.867 720.106 131.365C708.261 109.511 698.752 84.3195 691.578 55.625C684.405 76.4786 675.73 101.336 665.72 130.03C664.886 132.533 663.218 134.368 660.882 135.369ZM683.404 40.6105L652.874 127.194C652.541 127.695 652.541 128.028 652.874 128.529C653.041 128.863 653.375 129.029 653.875 129.196C654.709 129.53 655.377 129.196 655.877 128.195L683.404 40.6105ZM738.273 115.183C736.438 113.348 735.604 111.346 735.604 108.843C735.604 106.341 736.438 104.339 738.273 102.671C740.109 101.169 742.11 100.168 744.613 100.001C746.448 99.8345 748.45 100.001 750.619 100.168L770.638 20.4243C771.973 15.4194 775.142 13.2507 780.147 14.0848C785.319 14.919 787.988 17.9219 788.155 22.7599L788.655 29.5998L788.989 36.6066C789.823 51.2875 791.158 71.9742 792.826 98.4999C793.66 111.846 794.161 122.023 794.661 128.863C795.329 140.207 795.996 150.717 796.496 160.56C796.663 163.229 795.829 165.398 794.161 167.066C792.659 168.568 790.657 169.235 788.155 169.235C785.653 169.235 783.651 168.568 781.982 167.066C779.98 165.398 778.979 163.229 778.813 160.56C778.312 154.721 778.145 150.05 777.978 146.713C777.812 144.878 777.812 143.21 777.645 141.708L777.478 139.873L777.311 138.205C777.144 135.369 776.811 132.533 776.644 129.697C776.143 129.363 775.643 128.863 774.809 128.028L773.14 126.527C772.974 126.36 772.64 126.027 771.806 125.526C770.972 125.026 770.471 124.525 770.138 124.358L767.969 123.19L765.633 122.023L764.632 121.522L763.631 121.189L761.463 129.864C760.795 132.533 759.294 134.368 757.125 135.369C755.29 136.37 753.121 136.537 750.786 135.869C748.45 135.202 746.615 134.034 745.447 132.199C743.946 130.03 743.612 127.695 744.279 125.192L745.28 121.355L746.114 117.518C745.447 117.685 744.947 117.852 744.613 117.852C742.277 118.019 740.109 117.018 738.273 115.183ZM774.308 21.5921C774.642 22.4262 775.142 22.5931 775.977 22.4262C776.143 22.4262 776.31 22.4262 776.477 22.2594H777.978C778.646 22.2594 779.313 22.4262 779.98 22.7599C780.648 23.2604 781.315 23.9277 781.816 24.9287L781.982 25.4291V25.9296L782.149 26.0964V26.7638C782.316 27.5979 782.483 28.432 782.483 28.9325C782.65 29.433 782.65 30.2672 782.817 31.2681L782.983 33.7705C783.317 35.272 783.484 36.9403 783.484 38.7754L783.984 44.1139C784.818 53.4563 785.486 62.7986 786.153 72.3079C785.986 62.7986 785.653 53.4563 785.319 43.9471V41.2778L785.152 38.6086L784.985 36.1061L784.818 33.6037C784.818 32.4359 784.652 30.7676 784.485 28.7657C784.485 27.7647 784.485 26.9306 784.318 26.4301V25.596L784.151 25.4291V24.7618L783.984 24.2613C783.484 22.5931 782.483 21.4253 781.315 20.7579C780.314 20.0906 779.313 19.757 778.145 19.757C777.311 19.5902 776.644 19.5902 776.143 19.757C775.81 19.757 775.476 19.757 775.309 19.9238C774.475 20.0906 774.141 20.7579 774.308 21.5921ZM755.624 54.4572C755.457 54.1236 755.457 53.7899 755.624 53.4563L757.292 46.4495C757.625 45.6154 758.126 45.4485 758.96 45.6154C759.794 45.7822 760.128 46.4495 759.961 47.2836L758.126 54.1236C757.959 54.7909 757.459 55.1246 756.791 55.1246C756.624 55.1246 756.624 55.1246 756.458 54.9577C756.124 54.7909 755.79 54.6241 755.624 54.4572ZM747.115 91.9936H746.782C745.947 91.8268 745.614 91.1594 745.781 90.3253L754.623 57.2933C754.789 56.4592 755.29 56.1255 756.124 56.2923C756.958 56.4592 757.292 57.1265 757.125 57.9606L748.45 91.1594C748.283 91.3263 748.116 91.6599 747.949 91.8268C747.616 91.9936 747.282 91.9936 747.115 91.9936ZM775.309 107.008L773.808 80.8161L770.972 92.3272L767.969 103.838L771.305 105.173C772.473 105.673 773.641 106.174 774.475 106.674C774.642 106.674 774.809 106.841 775.309 107.008ZM857.189 79.1478H852.351L851.851 79.3146H850.683C849.849 79.6483 849.015 79.8151 848.181 79.8151L845.678 80.4824C844.51 80.8161 843.676 81.1497 843.176 81.3166C841.341 81.8171 839.839 82.4844 838.338 82.9849C837.504 83.3185 836.836 83.6522 836.169 83.819L835.835 83.9858H835.668C835.502 84.1527 835.502 84.1527 835.335 84.1527V84.3195C834 84.82 832.165 85.6541 829.663 86.8219V117.018C834.501 116.35 839.172 115.35 843.843 114.015L848.181 112.513L852.518 111.012L853.352 110.678C854.186 110.178 854.854 110.011 855.354 109.844L857.189 108.676L859.024 107.675L860.359 107.008L861.527 106.174C861.527 106.007 861.527 106.007 861.694 106.007C861.86 106.007 861.86 106.007 861.86 105.84L863.362 104.506L864.697 103.171L865.197 102.671L865.364 102.337L865.531 102.17C865.698 101.67 866.031 101.503 866.198 101.336L867.032 99.5008C867.032 99.334 867.032 99.334 867.199 99.334V99.1672L867.366 98.4999L867.533 97.8326C867.699 97.3321 867.866 96.8316 867.866 96.3311C867.866 96.1643 867.866 96.1643 868.033 96.1643V94.1623L867.866 92.1604L867.699 90.659C867.533 90.1585 867.199 89.3243 867.032 88.1565C866.365 86.3214 865.698 84.82 865.03 83.819C864.863 83.6522 864.697 83.3185 864.53 82.9849C864.363 82.818 864.029 82.6512 863.862 82.1507C863.696 82.1507 863.529 81.9839 863.362 81.8171L862.695 81.3166L862.528 81.1497C862.528 80.9829 862.695 81.1497 863.028 81.3166L862.194 80.8161L861.193 80.1488C861.026 80.1488 860.86 80.1488 860.693 79.982H860.359L859.191 79.6483L858.023 79.3146H857.356C857.356 79.1478 857.356 79.1478 857.189 79.1478ZM872.037 112.847L871.37 113.848L870.536 114.682C869.201 116.017 868.2 117.018 867.366 117.518L866.532 118.186L865.698 118.853L865.197 119.187L864.863 119.52L863.862 120.021L863.028 120.521L862.194 121.189C862.027 121.355 861.694 121.522 861.36 121.689L860.526 122.189L858.691 122.857L857.022 123.691C856.188 124.191 855.354 124.525 854.353 124.692C853.185 125.192 852.518 125.359 852.018 125.526C851.183 125.693 850.683 126.027 850.183 126.193C850.683 126.027 851.35 125.86 852.184 125.693L853.185 125.359L854.353 125.026L855.688 124.525C856.355 124.358 856.856 124.191 857.356 124.025C858.023 123.858 859.191 123.357 860.693 122.523L861.694 122.189L862.528 121.856C862.861 121.522 863.529 121.189 864.363 120.688L864.863 120.521L865.364 120.188C865.531 120.021 865.698 119.854 866.198 119.687L867.032 119.02L868.033 118.352C869.535 117.185 870.702 116.35 871.537 115.516L872.371 114.849L873.205 114.015L873.872 113.014C874.206 112.68 874.539 112.347 874.706 112.18L876.208 110.512C876.708 109.844 877.209 109.177 877.375 108.676C877.709 108.343 878.043 107.675 878.543 106.841L879.544 105.173L879.878 104.172L880.378 103.338L880.545 103.004L880.712 102.504C880.879 102.337 880.879 102.17 880.879 101.67L881.213 100.835L881.546 100.168C881.713 99.8345 881.713 99.334 881.713 98.6667C882.047 97.6657 882.214 96.8316 882.214 95.9975C882.38 95.1633 882.38 94.496 882.38 93.9955C882.38 93.6619 882.214 93.3282 882.047 92.9945C881.88 92.6609 881.546 92.4941 881.213 92.4941C880.378 92.4941 879.878 92.8277 879.878 93.6619V93.9955C879.878 94.496 879.878 94.9965 879.711 95.8306V96.8316L879.544 97.9994C879.377 98.4999 879.377 99.0004 879.377 99.6677L878.877 101.002V101.503L878.71 101.836L878.543 102.17L878.376 102.671C878.21 103.338 877.876 103.838 877.709 104.339L877.375 105.173L877.042 106.007L876.541 106.841L876.041 107.842L875.374 108.676L874.706 109.511L873.538 111.179C873.205 111.679 872.704 112.18 872.037 112.847ZM870.869 5.0761C870.536 4.74245 870.202 4.57562 869.868 4.74245H869.368C869.201 4.90928 868.7 4.90928 867.866 4.90928C867.366 5.0761 866.698 5.24293 865.531 5.40976L864.196 5.57659L862.695 5.91024L861.026 6.24391L859.358 6.57756L855.688 7.57852C853.019 8.24584 850.349 9.07998 847.68 10.081L845.678 10.7483L843.676 11.4156L841.841 12.2497L840.006 12.917L838.171 13.7512L836.503 14.5853L833.333 16.0868L831.998 16.5872L830.83 17.2546L828.829 18.4224L827.16 19.2565C827.661 19.0897 828.161 18.9228 828.829 18.4224C829.329 18.2555 829.996 18.0887 830.83 17.5882L832.165 17.0877L833.5 16.4204L835.001 15.7531L836.669 15.0858L838.505 14.4185L840.34 13.918C841.841 13.4175 843.009 12.917 844.177 12.5834L846.179 11.9161L848.181 11.4156C851.684 10.5814 854.353 9.91412 856.188 9.58047L858.023 9.2468L859.859 8.91315L861.527 8.5795C862.194 8.41266 862.695 8.41266 863.195 8.41266C864.029 8.24584 864.863 8.24584 866.031 8.07901L867.199 7.91219L868.2 7.74536C868.867 7.74536 869.368 7.74536 869.535 7.57852H870.035L871.37 6.07707C871.37 5.57659 871.203 5.24293 870.869 5.0761ZM829.496 33.6037C829.496 38.7754 829.496 43.7802 829.496 48.6183V57.1265L829.663 65.6347C835.168 62.7986 843.009 61.1304 852.852 60.9635C862.695 60.7967 870.869 64.1333 877.209 71.1401C882.38 77.8132 885.05 85.1536 885.216 93.1614C885.383 101.503 882.881 108.843 877.542 115.016C871.537 121.689 862.861 126.861 851.684 130.364C842.675 133.2 832.666 134.702 821.488 135.202C818.318 135.369 815.816 134.201 814.314 131.699C812.813 129.53 812.479 127.027 813.313 124.191V123.858C813.147 117.351 813.147 105.673 813.147 89.1575C811.645 87.9897 810.644 86.4883 810.144 84.6531C809.143 81.1497 810.144 78.1468 812.98 75.8112V41.4446C809.977 39.9432 807.975 37.7744 807.141 34.6047C806.307 31.2681 807.141 28.2652 809.81 25.7628C822.155 13.5843 841.007 5.40976 866.532 1.23906C869.201 0.738568 871.703 0.905404 873.872 2.0732C876.375 3.241 877.876 5.24293 878.543 7.91219C879.044 10.4146 878.71 12.917 877.542 15.4194C876.041 17.9219 874.206 19.4233 871.703 19.9238C857.022 22.4262 843.176 26.7638 830.163 33.2701C829.996 33.4369 829.663 33.4369 829.496 33.6037Z" fill="#11224E"/>
</svg>
