<svg width="1484" height="808" viewBox="0 0 1484 808" fill="none" xmlns="http://www.w3.org/2000/svg">
<g opacity="0.1">
<g clip-path="url(#clip0_607_5581)">
<rect x="371" y="371" width="371" height="371" rx="14.84" fill="white"/>
<path d="M702.152 612.15C709.48 621.826 721.011 644.887 708.507 659.727C696.003 674.567 676.617 676.789 668.487 676.044" stroke="#11224E" stroke-width="9.61852" stroke-linecap="round" stroke-linejoin="round"/>
<path d="M668.698 547.949C664.665 557.673 664.375 579.075 695.48 586.896" stroke="#11224E" stroke-width="9.61852" stroke-linecap="round" stroke-linejoin="round"/>
<path d="M647.195 734.958C651.038 724.358 664.194 703.516 686.064 704.946" stroke="#11224E" stroke-width="9.61852" stroke-linecap="round" stroke-linejoin="round"/>
<path d="M688.63 428.024C682.103 431.803 669.564 443.483 677.637 468.044C684.468 488.827 707.18 495.583 718.172 502.911" stroke="#11224E" stroke-width="9.61852" stroke-linecap="round" stroke-linejoin="round"/>
<path d="M560.526 469.743C554.021 465.758 538.201 459.701 526.957 467.357" stroke="#11224E" stroke-width="9.61852" stroke-linecap="round" stroke-linejoin="round"/>
<path d="M499.81 381.98C514.47 390.458 536.72 413.398 508.442 437.332" stroke="#FF914D" stroke-width="9.61852" stroke-linecap="round" stroke-linejoin="round"/>
<path d="M374.435 550.66C379.874 560.107 386.802 581.783 371 592.913" stroke="#FF914D" stroke-width="9.61852" stroke-linecap="round" stroke-linejoin="round"/>
<path d="M745.435 550.66C750.874 560.107 757.802 581.783 742 592.913" stroke="#FF914D" stroke-width="9.61852" stroke-linecap="round" stroke-linejoin="round"/>
<path d="M398.138 549.973C406.44 565.031 414.009 599.337 377.87 616.1" stroke="#11224E" stroke-width="9.61852" stroke-linecap="round" stroke-linejoin="round"/>
<path d="M647.189 582.951C658.411 594.917 677.487 622.456 664.021 636.883" stroke="#FF914D" stroke-width="9.61852" stroke-linecap="round" stroke-linejoin="round"/>
<path d="M535.545 486.594C529.019 492.319 519.881 510.022 535.545 535.03" stroke="#FF914D" stroke-width="9.61852" stroke-linecap="round" stroke-linejoin="round"/>
<path d="M561.02 440.888C585.669 441.598 629.334 427.025 606.801 363.055" stroke="#FF914D" stroke-width="9.61852" stroke-linecap="round" stroke-linejoin="round"/>
<path d="M561.02 811.887C585.669 812.597 629.334 798.024 606.801 734.054" stroke="#FF914D" stroke-width="9.61852" stroke-linecap="round" stroke-linejoin="round"/>
<path d="M475.086 727.056C484.934 715.262 510.778 698.75 535.374 727.056" stroke="#FF914D" stroke-width="9.61852" stroke-linecap="round" stroke-linejoin="round"/>
<path d="M515.278 690.784C509.724 687.979 497.552 685.357 493.292 697.311" stroke="#11224E" stroke-width="9.61852" stroke-linecap="round" stroke-linejoin="round"/>
<path d="M706.102 445.028H732.21" stroke="#FF914D" stroke-width="9.61852" stroke-linecap="round" stroke-linejoin="round"/>
<path d="M703.182 465.811H751.962V449.666" stroke="#FF914D" stroke-width="9.61852" stroke-linecap="round" stroke-linejoin="round"/>
<path d="M332.182 465.811H380.962V449.666" stroke="#FF914D" stroke-width="9.61852" stroke-linecap="round" stroke-linejoin="round"/>
<path d="M651.919 456.061L616.439 443.139" stroke="#11224E" stroke-width="9.61852" stroke-linecap="round" stroke-linejoin="round"/>
<path d="M388.938 715.904C396.807 720.687 413.098 729.745 415.31 727.714C417.521 725.683 421.159 718.019 422.702 714.441" stroke="#11224E" stroke-width="9.61852" stroke-linecap="round" stroke-linejoin="round"/>
<path d="M562.855 496.383C568.924 484.989 593.085 470.104 609.058 486.936C630.373 509.397 606.138 523.007 594.63 509.438C583.123 495.869 586.73 479.87 607.341 472.336C628.12 464.741 641.063 484.474 644.097 490.715" stroke="#FF914D" stroke-width="9.61852" stroke-linecap="round" stroke-linejoin="round"/>
<path d="M606.654 541.37C616.73 550.989 637.467 564.455 639.803 541.37C642.723 512.515 646.502 510.797 676.216 523.507" stroke="#FF914D" stroke-width="9.61852" stroke-linecap="round" stroke-linejoin="round"/>
<path d="M443.511 362.07C442.079 367.322 436.32 378.583 424.744 381.616C410.274 385.407 412.914 395.227 418.624 406.971C424.335 418.714 438.132 444.803 411.192 457.904" stroke="#FF914D" stroke-width="9.61852" stroke-linecap="round" stroke-linejoin="round"/>
<path d="M443.511 733.068C442.079 738.32 436.32 749.582 424.744 752.615C410.274 756.406 412.914 766.226 418.624 777.969C424.335 789.713 438.132 815.802 411.192 828.903" stroke="#FF914D" stroke-width="9.61852" stroke-linecap="round" stroke-linejoin="round"/>
<path d="M397.453 683.247C397.306 665.56 403.827 629.567 431.086 627.091C465.159 623.995 479.552 664.085 458.11 687.373C436.667 710.661 405.384 692.531 416.693 664.232C428.002 635.933 458.11 664.232 433.289 677.204" stroke="#FF914D" stroke-width="9.61852" stroke-linecap="round" stroke-linejoin="round"/>
<path d="M402.604 479.895C409.188 497.357 425.654 530.015 452.586 518.198C486.251 503.426 440.428 461.689 428.196 493.121C414.627 527.988 435.141 555.073 452.586 568.695C478.318 588.789 531.967 588.237 513.732 557.015C495.497 525.794 443.54 560.85 471.479 607.169C488.912 636.071 497.186 645.929 498.961 647.876" stroke="#FF914D" stroke-width="9.61852" stroke-linecap="round" stroke-linejoin="round"/>
<path d="M562.042 695.708C564.696 702.971 574.165 717.046 590.816 715.238C611.629 712.977 636.786 667.334 609.599 656.244C582.412 645.153 584.241 709.372 624.831 693.955C657.303 681.621 650.038 659.886 642.346 650.56" stroke="#11224E" stroke-width="9.61852" stroke-linecap="round" stroke-linejoin="round"/>
<path d="M444.199 434.934C454.543 433.078 475.065 432.95 474.4 447.286C473.736 461.623 483.424 461.66 488.351 459.886C495.948 458.646 507.166 460.688 491.26 478.777" stroke="#FF914D" stroke-width="9.61852" stroke-linecap="round" stroke-linejoin="round"/>
<path d="M743.24 655.261C741.454 659.109 742.496 676.216 743.24 684.289C727.782 678.563 699.888 673.124 711.98 697.171" stroke="#FF914D" stroke-width="9.61852" stroke-linecap="round" stroke-linejoin="round"/>
<path d="M372.24 655.261C370.454 659.109 371.496 676.216 372.24 684.289C356.782 678.563 328.888 673.124 340.98 697.171" stroke="#FF914D" stroke-width="9.61852" stroke-linecap="round" stroke-linejoin="round"/>
<path d="M564.057 532.625L583.81 575.05C574.077 571.844 554.164 566.393 552.378 570.241C550.591 574.088 551.633 591.195 552.378 599.268C536.919 593.543 509.026 588.104 521.118 612.15" stroke="#11224E" stroke-width="9.61852" stroke-linecap="round" stroke-linejoin="round"/>
<path d="M647.962 411.63C649.164 404.416 654.736 403.756 657.752 405.184C665.939 409.062 661.685 424.363 649.507 425.198C636.969 426.058 627.686 413.222 637.656 400.122C647.627 387.021 664.966 385.44 675.1 404.587" stroke="#FF914D" stroke-width="9.61852" stroke-linecap="round" stroke-linejoin="round"/>
<circle cx="493.121" cy="507.72" r="12.1949" stroke="#11224E" stroke-width="9.61852"/>
<circle cx="28.512" cy="28.512" r="23.7028" transform="matrix(-0.285974 -0.958237 -0.958237 0.285974 601.686 407.78)" stroke="#FF914D" stroke-width="9.61852"/>
<path d="M588.924 752.835C585.18 740.291 571.977 733.157 559.433 736.9C546.889 740.644 539.755 753.848 543.498 766.392C547.242 778.935 560.446 786.069 572.99 782.325C585.533 778.582 592.667 765.379 588.924 752.835Z" stroke="#FF914D" stroke-width="9.61852"/>
<mask id="path-37-inside-1_607_5581" fill="white">
<rect x="527.988" y="629.055" width="41.9253" height="41.9253" rx="3.43518" transform="rotate(-5.74167 527.988 629.055)"/>
</mask>
<rect x="527.988" y="629.055" width="41.9253" height="41.9253" rx="3.43518" transform="rotate(-5.74167 527.988 629.055)" stroke="#FF914D" stroke-width="19.237" mask="url(#path-37-inside-1_607_5581)"/>
<mask id="path-38-inside-2_607_5581" fill="white">
<rect x="700.752" y="532.797" width="33.3213" height="33.3213" rx="3.43518" transform="rotate(10.6498 700.752 532.797)"/>
</mask>
<rect x="700.752" y="532.797" width="33.3213" height="33.3213" rx="3.43518" transform="rotate(10.6498 700.752 532.797)" stroke="#FF914D" stroke-width="19.237" mask="url(#path-38-inside-2_607_5581)"/>
<mask id="path-39-inside-3_607_5581" fill="white">
<rect x="718.221" y="348.671" width="55.4917" height="55.4917" rx="3.43518" transform="rotate(24.8076 718.221 348.671)"/>
</mask>
<rect x="718.221" y="348.671" width="55.4917" height="55.4917" rx="3.43518" transform="rotate(24.8076 718.221 348.671)" stroke="#11224E" stroke-width="19.237" mask="url(#path-39-inside-3_607_5581)"/>
<mask id="path-40-inside-4_607_5581" fill="white">
<rect x="718.221" y="719.671" width="55.4917" height="55.4917" rx="3.43518" transform="rotate(24.8076 718.221 719.671)"/>
</mask>
<rect x="718.221" y="719.671" width="55.4917" height="55.4917" rx="3.43518" transform="rotate(24.8076 718.221 719.671)" stroke="#11224E" stroke-width="19.237" mask="url(#path-40-inside-4_607_5581)"/>
<mask id="path-41-inside-5_607_5581" fill="white">
<rect x="347.222" y="348.671" width="55.4917" height="55.4917" rx="3.43518" transform="rotate(24.8076 347.222 348.671)"/>
</mask>
<rect x="347.222" y="348.671" width="55.4917" height="55.4917" rx="3.43518" transform="rotate(24.8076 347.222 348.671)" stroke="#11224E" stroke-width="19.237" mask="url(#path-41-inside-5_607_5581)"/>
<mask id="path-42-inside-6_607_5581" fill="white">
<rect x="347.222" y="719.671" width="55.4917" height="55.4917" rx="3.43518" transform="rotate(24.8076 347.222 719.671)"/>
</mask>
<rect x="347.222" y="719.671" width="55.4917" height="55.4917" rx="3.43518" transform="rotate(24.8076 347.222 719.671)" stroke="#11224E" stroke-width="19.237" mask="url(#path-42-inside-6_607_5581)"/>
<path d="M431.499 591.789C433.21 589.997 436.229 590.846 436.755 593.268L438.144 599.659C438.639 601.937 436.53 603.923 434.286 603.291L428.379 601.629C426.135 600.998 425.37 598.204 426.981 596.518L431.499 591.789Z" fill="#FF914D"/>
<path d="M380.548 512.239C380.317 509.771 382.938 508.049 385.112 509.24L390.847 512.382C392.892 513.502 393.008 516.397 391.06 517.677L385.932 521.047C383.983 522.327 381.373 521.072 381.156 518.75L380.548 512.239Z" fill="#FF914D"/>
<path d="M533.634 437.164C533.404 434.697 536.025 432.975 538.198 434.165L540.47 435.41C542.515 436.531 542.631 439.425 540.683 440.706L538.651 442.041C536.703 443.321 534.092 442.066 533.875 439.744L533.634 437.164Z" fill="#FF914D"/>
<path d="M664.515 497.624C664.284 495.156 666.905 493.434 669.079 494.625L671.351 495.87C673.396 496.99 673.512 499.885 671.563 501.165L669.532 502.5C667.583 503.78 664.973 502.525 664.756 500.204L664.515 497.624Z" fill="#11224E"/>
<path d="M683.065 643.276C682.835 640.808 685.455 639.086 687.629 640.277L689.901 641.522C691.946 642.642 692.062 645.536 690.114 646.817L688.082 648.152C686.133 649.432 683.523 648.177 683.306 645.856L683.065 643.276Z" fill="#FF914D"/>
<path d="M676.882 729.499C676.651 727.031 679.272 725.309 681.445 726.5L683.718 727.745C685.763 728.865 685.879 731.76 683.93 733.04L681.899 734.375C679.95 735.655 677.339 734.4 677.122 732.079L676.882 729.499Z" fill="#FF914D"/>
<path d="M391.074 427.202C390.844 424.735 393.465 423.013 395.638 424.203L397.91 425.448C399.955 426.569 400.071 429.463 398.123 430.744L396.091 432.079C394.143 433.359 391.532 432.104 391.315 429.782L391.074 427.202Z" fill="#FF914D"/>
<path d="M444.089 395.654L490.481 420.684L477.63 388.996L444.089 395.654Z" stroke="#11224E" stroke-width="9.61852" stroke-linejoin="round"/>
<path d="M610.581 578.18L625.132 632.488L590.077 612.778L610.581 578.18Z" stroke="#11224E" stroke-width="9.61852" stroke-linejoin="round"/>
</g>
</g>
<g opacity="0.1">
<g clip-path="url(#clip1_607_5581)">
<rect x="1113" y="371" width="371" height="371" rx="14.84" fill="white"/>
<path d="M1444.15 612.15C1451.48 621.826 1463.01 644.887 1450.51 659.727C1438 674.567 1418.62 676.789 1410.49 676.044" stroke="#11224E" stroke-width="9.61852" stroke-linecap="round" stroke-linejoin="round"/>
<path d="M1410.7 547.949C1406.66 557.673 1406.37 579.075 1437.48 586.896" stroke="#11224E" stroke-width="9.61852" stroke-linecap="round" stroke-linejoin="round"/>
<path d="M1389.19 734.958C1393.04 724.358 1406.19 703.515 1428.06 704.946" stroke="#11224E" stroke-width="9.61852" stroke-linecap="round" stroke-linejoin="round"/>
<path d="M1430.63 428.024C1424.1 431.803 1411.56 443.482 1419.64 468.044C1426.47 488.827 1449.18 495.583 1460.17 502.911" stroke="#11224E" stroke-width="9.61852" stroke-linecap="round" stroke-linejoin="round"/>
<path d="M1302.53 469.743C1296.02 465.758 1280.2 459.701 1268.96 467.357" stroke="#11224E" stroke-width="9.61852" stroke-linecap="round" stroke-linejoin="round"/>
<path d="M1241.81 381.98C1256.47 390.458 1278.72 413.398 1250.44 437.332" stroke="#FF914D" stroke-width="9.61852" stroke-linecap="round" stroke-linejoin="round"/>
<path d="M1116.44 550.66C1121.87 560.107 1128.8 581.783 1113 592.913" stroke="#FF914D" stroke-width="9.61852" stroke-linecap="round" stroke-linejoin="round"/>
<path d="M1487.44 550.66C1492.87 560.107 1499.8 581.783 1484 592.913" stroke="#FF914D" stroke-width="9.61852" stroke-linecap="round" stroke-linejoin="round"/>
<path d="M1140.14 549.973C1148.44 565.031 1156.01 599.337 1119.87 616.1" stroke="#11224E" stroke-width="9.61852" stroke-linecap="round" stroke-linejoin="round"/>
<path d="M1389.19 582.951C1400.41 594.917 1419.49 622.455 1406.02 636.883" stroke="#FF914D" stroke-width="9.61852" stroke-linecap="round" stroke-linejoin="round"/>
<path d="M1277.55 486.594C1271.02 492.319 1261.88 510.022 1277.55 535.03" stroke="#FF914D" stroke-width="9.61852" stroke-linecap="round" stroke-linejoin="round"/>
<path d="M1303.02 440.888C1327.67 441.598 1371.33 427.025 1348.8 363.055" stroke="#FF914D" stroke-width="9.61852" stroke-linecap="round" stroke-linejoin="round"/>
<path d="M1303.02 811.887C1327.67 812.597 1371.33 798.024 1348.8 734.054" stroke="#FF914D" stroke-width="9.61852" stroke-linecap="round" stroke-linejoin="round"/>
<path d="M1217.09 727.056C1226.93 715.262 1252.78 698.75 1277.37 727.056" stroke="#FF914D" stroke-width="9.61852" stroke-linecap="round" stroke-linejoin="round"/>
<path d="M1257.28 690.784C1251.72 687.978 1239.55 685.356 1235.29 697.311" stroke="#11224E" stroke-width="9.61852" stroke-linecap="round" stroke-linejoin="round"/>
<path d="M1448.1 445.028H1474.21" stroke="#FF914D" stroke-width="9.61852" stroke-linecap="round" stroke-linejoin="round"/>
<path d="M1445.18 465.811H1493.96V449.666" stroke="#FF914D" stroke-width="9.61852" stroke-linecap="round" stroke-linejoin="round"/>
<path d="M1074.18 465.811H1122.96V449.666" stroke="#FF914D" stroke-width="9.61852" stroke-linecap="round" stroke-linejoin="round"/>
<path d="M1393.92 456.061L1358.44 443.138" stroke="#11224E" stroke-width="9.61852" stroke-linecap="round" stroke-linejoin="round"/>
<path d="M1130.94 715.904C1138.81 720.687 1155.1 729.744 1157.31 727.714C1159.52 725.683 1163.16 718.019 1164.7 714.441" stroke="#11224E" stroke-width="9.61852" stroke-linecap="round" stroke-linejoin="round"/>
<path d="M1304.85 496.383C1310.92 484.989 1335.08 470.104 1351.06 486.936C1372.37 509.397 1348.14 523.007 1336.63 509.438C1325.12 495.869 1328.73 479.87 1349.34 472.336C1370.12 464.741 1383.06 484.474 1386.1 490.715" stroke="#FF914D" stroke-width="9.61852" stroke-linecap="round" stroke-linejoin="round"/>
<path d="M1348.65 541.37C1358.73 550.989 1379.47 564.455 1381.8 541.37C1384.72 512.515 1388.5 510.797 1418.22 523.507" stroke="#FF914D" stroke-width="9.61852" stroke-linecap="round" stroke-linejoin="round"/>
<path d="M1185.51 362.07C1184.08 367.322 1178.32 378.583 1166.74 381.616C1152.27 385.407 1154.91 395.227 1160.62 406.971C1166.33 418.714 1180.13 444.803 1153.19 457.904" stroke="#FF914D" stroke-width="9.61852" stroke-linecap="round" stroke-linejoin="round"/>
<path d="M1185.51 733.068C1184.08 738.32 1178.32 749.582 1166.74 752.615C1152.27 756.406 1154.91 766.226 1160.62 777.969C1166.33 789.713 1180.13 815.802 1153.19 828.903" stroke="#FF914D" stroke-width="9.61852" stroke-linecap="round" stroke-linejoin="round"/>
<path d="M1139.45 683.247C1139.31 665.56 1145.83 629.567 1173.09 627.091C1207.16 623.995 1221.55 664.085 1200.11 687.373C1178.67 710.661 1147.38 692.531 1158.69 664.232C1170 635.933 1200.11 664.232 1175.29 677.204" stroke="#FF914D" stroke-width="9.61852" stroke-linecap="round" stroke-linejoin="round"/>
<path d="M1144.6 479.895C1151.19 497.357 1167.65 530.015 1194.59 518.198C1228.25 503.426 1182.43 461.689 1170.2 493.121C1156.63 527.988 1177.14 555.073 1194.59 568.695C1220.32 588.789 1273.97 588.237 1255.73 557.015C1237.5 525.794 1185.54 560.85 1213.48 607.169C1230.91 636.071 1239.19 645.929 1240.96 647.876" stroke="#FF914D" stroke-width="9.61852" stroke-linecap="round" stroke-linejoin="round"/>
<path d="M1304.04 695.708C1306.7 702.971 1316.17 717.046 1332.82 715.238C1353.63 712.977 1378.79 667.334 1351.6 656.244C1324.41 645.153 1326.24 709.372 1366.83 693.955C1399.3 681.621 1392.04 659.886 1384.35 650.56" stroke="#11224E" stroke-width="9.61852" stroke-linecap="round" stroke-linejoin="round"/>
<path d="M1186.2 434.934C1196.54 433.078 1217.06 432.95 1216.4 447.286C1215.74 461.623 1225.42 461.66 1230.35 459.886C1237.95 458.646 1249.17 460.688 1233.26 478.777" stroke="#FF914D" stroke-width="9.61852" stroke-linecap="round" stroke-linejoin="round"/>
<path d="M1485.24 655.261C1483.45 659.109 1484.5 676.216 1485.24 684.289C1469.78 678.563 1441.89 673.124 1453.98 697.171" stroke="#FF914D" stroke-width="9.61852" stroke-linecap="round" stroke-linejoin="round"/>
<path d="M1114.24 655.261C1112.45 659.109 1113.5 676.216 1114.24 684.289C1098.78 678.563 1070.89 673.124 1082.98 697.171" stroke="#FF914D" stroke-width="9.61852" stroke-linecap="round" stroke-linejoin="round"/>
<path d="M1306.06 532.625L1325.81 575.05C1316.08 571.844 1296.16 566.393 1294.38 570.241C1292.59 574.088 1293.63 591.195 1294.38 599.268C1278.92 593.543 1251.03 588.104 1263.12 612.15" stroke="#11224E" stroke-width="9.61852" stroke-linecap="round" stroke-linejoin="round"/>
<path d="M1389.96 411.63C1391.16 404.416 1396.74 403.756 1399.75 405.184C1407.94 409.062 1403.68 424.363 1391.51 425.198C1378.97 426.058 1369.69 413.222 1379.66 400.122C1389.63 387.021 1406.97 385.44 1417.1 404.587" stroke="#FF914D" stroke-width="9.61852" stroke-linecap="round" stroke-linejoin="round"/>
<circle cx="1235.12" cy="507.72" r="12.1949" stroke="#11224E" stroke-width="9.61852"/>
<circle cx="28.512" cy="28.512" r="23.7028" transform="matrix(-0.285974 -0.958237 -0.958237 0.285974 1343.69 407.78)" stroke="#FF914D" stroke-width="9.61852"/>
<path d="M1330.92 752.835C1327.18 740.291 1313.98 733.157 1301.43 736.9C1288.89 740.644 1281.75 753.848 1285.5 766.392C1289.24 778.935 1302.45 786.069 1314.99 782.325C1327.53 778.582 1334.67 765.379 1330.92 752.835Z" stroke="#FF914D" stroke-width="9.61852"/>
<mask id="path-88-inside-7_607_5581" fill="white">
<rect x="1269.99" y="629.055" width="41.9253" height="41.9253" rx="3.43518" transform="rotate(-5.74167 1269.99 629.055)"/>
</mask>
<rect x="1269.99" y="629.055" width="41.9253" height="41.9253" rx="3.43518" transform="rotate(-5.74167 1269.99 629.055)" stroke="#FF914D" stroke-width="19.237" mask="url(#path-88-inside-7_607_5581)"/>
<mask id="path-89-inside-8_607_5581" fill="white">
<rect x="1442.75" y="532.797" width="33.3213" height="33.3213" rx="3.43518" transform="rotate(10.6498 1442.75 532.797)"/>
</mask>
<rect x="1442.75" y="532.797" width="33.3213" height="33.3213" rx="3.43518" transform="rotate(10.6498 1442.75 532.797)" stroke="#FF914D" stroke-width="19.237" mask="url(#path-89-inside-8_607_5581)"/>
<mask id="path-90-inside-9_607_5581" fill="white">
<rect x="1460.22" y="348.671" width="55.4917" height="55.4917" rx="3.43518" transform="rotate(24.8076 1460.22 348.671)"/>
</mask>
<rect x="1460.22" y="348.671" width="55.4917" height="55.4917" rx="3.43518" transform="rotate(24.8076 1460.22 348.671)" stroke="#11224E" stroke-width="19.237" mask="url(#path-90-inside-9_607_5581)"/>
<mask id="path-91-inside-10_607_5581" fill="white">
<rect x="1460.22" y="719.671" width="55.4917" height="55.4917" rx="3.43518" transform="rotate(24.8076 1460.22 719.671)"/>
</mask>
<rect x="1460.22" y="719.671" width="55.4917" height="55.4917" rx="3.43518" transform="rotate(24.8076 1460.22 719.671)" stroke="#11224E" stroke-width="19.237" mask="url(#path-91-inside-10_607_5581)"/>
<mask id="path-92-inside-11_607_5581" fill="white">
<rect x="1089.22" y="348.671" width="55.4917" height="55.4917" rx="3.43518" transform="rotate(24.8076 1089.22 348.671)"/>
</mask>
<rect x="1089.22" y="348.671" width="55.4917" height="55.4917" rx="3.43518" transform="rotate(24.8076 1089.22 348.671)" stroke="#11224E" stroke-width="19.237" mask="url(#path-92-inside-11_607_5581)"/>
<mask id="path-93-inside-12_607_5581" fill="white">
<rect x="1089.22" y="719.671" width="55.4917" height="55.4917" rx="3.43518" transform="rotate(24.8076 1089.22 719.671)"/>
</mask>
<rect x="1089.22" y="719.671" width="55.4917" height="55.4917" rx="3.43518" transform="rotate(24.8076 1089.22 719.671)" stroke="#11224E" stroke-width="19.237" mask="url(#path-93-inside-12_607_5581)"/>
<path d="M1173.5 591.789C1175.21 589.997 1178.23 590.846 1178.76 593.268L1180.14 599.659C1180.64 601.937 1178.53 603.923 1176.29 603.291L1170.38 601.629C1168.13 600.998 1167.37 598.204 1168.98 596.518L1173.5 591.789Z" fill="#FF914D"/>
<path d="M1122.55 512.239C1122.32 509.771 1124.94 508.049 1127.11 509.24L1132.85 512.382C1134.89 513.502 1135.01 516.397 1133.06 517.677L1127.93 521.047C1125.98 522.327 1123.37 521.072 1123.16 518.75L1122.55 512.239Z" fill="#FF914D"/>
<path d="M1275.63 437.164C1275.4 434.697 1278.02 432.975 1280.2 434.165L1282.47 435.41C1284.52 436.531 1284.63 439.425 1282.68 440.706L1280.65 442.041C1278.7 443.321 1276.09 442.066 1275.88 439.744L1275.63 437.164Z" fill="#FF914D"/>
<path d="M1406.51 497.624C1406.28 495.156 1408.91 493.434 1411.08 494.625L1413.35 495.87C1415.4 496.99 1415.51 499.885 1413.56 501.165L1411.53 502.5C1409.58 503.78 1406.97 502.525 1406.76 500.204L1406.51 497.624Z" fill="#11224E"/>
<path d="M1425.06 643.276C1424.83 640.808 1427.46 639.086 1429.63 640.277L1431.9 641.522C1433.95 642.642 1434.06 645.536 1432.11 646.817L1430.08 648.152C1428.13 649.432 1425.52 648.177 1425.31 645.856L1425.06 643.276Z" fill="#FF914D"/>
<path d="M1418.88 729.499C1418.65 727.031 1421.27 725.309 1423.45 726.5L1425.72 727.745C1427.76 728.865 1427.88 731.76 1425.93 733.04L1423.9 734.375C1421.95 735.655 1419.34 734.4 1419.12 732.079L1418.88 729.499Z" fill="#FF914D"/>
<path d="M1133.07 427.202C1132.84 424.735 1135.46 423.013 1137.64 424.203L1139.91 425.448C1141.96 426.569 1142.07 429.463 1140.12 430.744L1138.09 432.079C1136.14 433.359 1133.53 432.104 1133.32 429.782L1133.07 427.202Z" fill="#FF914D"/>
<path d="M1186.09 395.654L1232.48 420.684L1219.63 388.996L1186.09 395.654Z" stroke="#11224E" stroke-width="9.61852" stroke-linejoin="round"/>
<path d="M1352.58 578.18L1367.13 632.488L1332.08 612.778L1352.58 578.18Z" stroke="#11224E" stroke-width="9.61852" stroke-linejoin="round"/>
</g>
</g>
<g opacity="0.1">
<g clip-path="url(#clip2_607_5581)">
<rect x="742" y="371" width="371" height="371" rx="14.84" fill="white"/>
<path d="M1073.15 612.15C1080.48 621.826 1092.01 644.887 1079.51 659.727C1067 674.567 1047.62 676.789 1039.49 676.044" stroke="#11224E" stroke-width="9.61852" stroke-linecap="round" stroke-linejoin="round"/>
<path d="M1039.7 547.949C1035.66 557.673 1035.37 579.075 1066.48 586.896" stroke="#11224E" stroke-width="9.61852" stroke-linecap="round" stroke-linejoin="round"/>
<path d="M1018.19 734.958C1022.04 724.358 1035.19 703.516 1057.06 704.946" stroke="#11224E" stroke-width="9.61852" stroke-linecap="round" stroke-linejoin="round"/>
<path d="M1059.63 428.024C1053.1 431.803 1040.56 443.483 1048.64 468.044C1055.47 488.827 1078.18 495.583 1089.17 502.911" stroke="#11224E" stroke-width="9.61852" stroke-linecap="round" stroke-linejoin="round"/>
<path d="M931.525 469.743C925.021 465.758 909.201 459.701 897.957 467.357" stroke="#11224E" stroke-width="9.61852" stroke-linecap="round" stroke-linejoin="round"/>
<path d="M870.81 381.98C885.47 390.458 907.72 413.398 879.442 437.332" stroke="#FF914D" stroke-width="9.61852" stroke-linecap="round" stroke-linejoin="round"/>
<path d="M745.435 550.66C750.874 560.107 757.802 581.783 742 592.913" stroke="#FF914D" stroke-width="9.61852" stroke-linecap="round" stroke-linejoin="round"/>
<path d="M1116.43 550.66C1121.87 560.107 1128.8 581.783 1113 592.913" stroke="#FF914D" stroke-width="9.61852" stroke-linecap="round" stroke-linejoin="round"/>
<path d="M769.138 549.973C777.439 565.031 785.008 599.337 748.87 616.1" stroke="#11224E" stroke-width="9.61852" stroke-linecap="round" stroke-linejoin="round"/>
<path d="M1018.19 582.951C1029.41 594.917 1048.49 622.456 1035.02 636.883" stroke="#FF914D" stroke-width="9.61852" stroke-linecap="round" stroke-linejoin="round"/>
<path d="M906.545 486.594C900.018 492.319 890.881 510.022 906.545 535.03" stroke="#FF914D" stroke-width="9.61852" stroke-linecap="round" stroke-linejoin="round"/>
<path d="M932.02 440.888C956.669 441.598 1000.33 427.025 977.801 363.055" stroke="#FF914D" stroke-width="9.61852" stroke-linecap="round" stroke-linejoin="round"/>
<path d="M932.02 811.887C956.669 812.597 1000.33 798.024 977.801 734.054" stroke="#FF914D" stroke-width="9.61852" stroke-linecap="round" stroke-linejoin="round"/>
<path d="M846.086 727.056C855.933 715.262 881.778 698.75 906.373 727.056" stroke="#FF914D" stroke-width="9.61852" stroke-linecap="round" stroke-linejoin="round"/>
<path d="M886.278 690.784C880.724 687.979 868.552 685.357 864.292 697.311" stroke="#11224E" stroke-width="9.61852" stroke-linecap="round" stroke-linejoin="round"/>
<path d="M1077.1 445.028H1103.21" stroke="#FF914D" stroke-width="9.61852" stroke-linecap="round" stroke-linejoin="round"/>
<path d="M1074.18 465.811H1122.96V449.666" stroke="#FF914D" stroke-width="9.61852" stroke-linecap="round" stroke-linejoin="round"/>
<path d="M703.182 465.811H751.962V449.666" stroke="#FF914D" stroke-width="9.61852" stroke-linecap="round" stroke-linejoin="round"/>
<path d="M1022.92 456.061L987.439 443.139" stroke="#11224E" stroke-width="9.61852" stroke-linecap="round" stroke-linejoin="round"/>
<path d="M759.938 715.904C767.807 720.687 784.098 729.745 786.309 727.714C788.521 725.683 792.159 718.019 793.702 714.441" stroke="#11224E" stroke-width="9.61852" stroke-linecap="round" stroke-linejoin="round"/>
<path d="M933.855 496.383C939.924 484.989 964.085 470.104 980.058 486.936C1001.37 509.397 977.138 523.007 965.63 509.438C954.123 495.869 957.73 479.87 978.341 472.336C999.12 464.741 1012.06 484.474 1015.1 490.715" stroke="#FF914D" stroke-width="9.61852" stroke-linecap="round" stroke-linejoin="round"/>
<path d="M977.653 541.37C987.73 550.989 1008.47 564.455 1010.8 541.37C1013.72 512.515 1017.5 510.797 1047.22 523.507" stroke="#FF914D" stroke-width="9.61852" stroke-linecap="round" stroke-linejoin="round"/>
<path d="M814.51 362.07C813.078 367.322 807.32 378.583 795.744 381.616C781.273 385.407 783.913 395.227 789.624 406.971C795.335 418.714 809.132 444.803 782.191 457.904" stroke="#FF914D" stroke-width="9.61852" stroke-linecap="round" stroke-linejoin="round"/>
<path d="M814.51 733.068C813.078 738.32 807.32 749.582 795.744 752.615C781.273 756.406 783.913 766.226 789.624 777.969C795.335 789.713 809.132 815.802 782.191 828.903" stroke="#FF914D" stroke-width="9.61852" stroke-linecap="round" stroke-linejoin="round"/>
<path d="M768.453 683.247C768.306 665.56 774.827 629.567 802.086 627.091C836.159 623.995 850.552 664.085 829.109 687.373C807.667 710.661 776.384 692.531 787.693 664.232C799.001 635.933 829.109 664.232 804.289 677.204" stroke="#FF914D" stroke-width="9.61852" stroke-linecap="round" stroke-linejoin="round"/>
<path d="M773.604 479.895C780.188 497.357 796.654 530.015 823.585 518.198C857.25 503.426 811.428 461.689 799.196 493.121C785.627 527.988 806.141 555.073 823.585 568.695C849.318 588.789 902.967 588.237 884.732 557.015C866.497 525.794 814.54 560.85 842.479 607.169C859.912 636.071 868.186 645.929 869.96 647.876" stroke="#FF914D" stroke-width="9.61852" stroke-linecap="round" stroke-linejoin="round"/>
<path d="M933.042 695.708C935.695 702.971 945.165 717.046 961.816 715.238C982.629 712.977 1007.79 667.334 980.599 656.244C953.412 645.153 955.241 709.372 995.831 693.955C1028.3 681.621 1021.04 659.886 1013.35 650.56" stroke="#11224E" stroke-width="9.61852" stroke-linecap="round" stroke-linejoin="round"/>
<path d="M815.199 434.934C825.543 433.078 846.064 432.95 845.4 447.286C844.736 461.623 854.424 461.66 859.351 459.886C866.948 458.646 878.166 460.688 862.26 478.777" stroke="#FF914D" stroke-width="9.61852" stroke-linecap="round" stroke-linejoin="round"/>
<path d="M1114.24 655.261C1112.45 659.109 1113.5 676.216 1114.24 684.289C1098.78 678.563 1070.89 673.124 1082.98 697.171" stroke="#FF914D" stroke-width="9.61852" stroke-linecap="round" stroke-linejoin="round"/>
<path d="M743.24 655.261C741.454 659.109 742.496 676.216 743.24 684.289C727.781 678.563 699.888 673.124 711.98 697.171" stroke="#FF914D" stroke-width="9.61852" stroke-linecap="round" stroke-linejoin="round"/>
<path d="M935.057 532.625L954.809 575.05C945.076 571.844 925.164 566.393 923.378 570.241C921.591 574.088 922.633 591.195 923.378 599.268C907.919 593.543 880.025 588.104 892.117 612.15" stroke="#11224E" stroke-width="9.61852" stroke-linecap="round" stroke-linejoin="round"/>
<path d="M1018.96 411.63C1020.16 404.416 1025.74 403.756 1028.75 405.184C1036.94 409.062 1032.68 424.363 1020.51 425.198C1007.97 426.058 998.685 413.222 1008.66 400.122C1018.63 387.021 1035.97 385.44 1046.1 404.587" stroke="#FF914D" stroke-width="9.61852" stroke-linecap="round" stroke-linejoin="round"/>
<circle cx="864.121" cy="507.72" r="12.1949" stroke="#11224E" stroke-width="9.61852"/>
<circle cx="28.512" cy="28.512" r="23.7028" transform="matrix(-0.285974 -0.958237 -0.958237 0.285974 972.686 407.78)" stroke="#FF914D" stroke-width="9.61852"/>
<path d="M959.924 752.835C956.18 740.291 942.977 733.157 930.433 736.9C917.889 740.644 910.755 753.848 914.498 766.392C918.242 778.935 931.446 786.069 943.99 782.325C956.533 778.582 963.667 765.379 959.924 752.835Z" stroke="#FF914D" stroke-width="9.61852"/>
<mask id="path-139-inside-13_607_5581" fill="white">
<rect x="898.988" y="629.055" width="41.9253" height="41.9253" rx="3.43518" transform="rotate(-5.74167 898.988 629.055)"/>
</mask>
<rect x="898.988" y="629.055" width="41.9253" height="41.9253" rx="3.43518" transform="rotate(-5.74167 898.988 629.055)" stroke="#FF914D" stroke-width="19.237" mask="url(#path-139-inside-13_607_5581)"/>
<mask id="path-140-inside-14_607_5581" fill="white">
<rect x="1071.75" y="532.797" width="33.3213" height="33.3213" rx="3.43518" transform="rotate(10.6498 1071.75 532.797)"/>
</mask>
<rect x="1071.75" y="532.797" width="33.3213" height="33.3213" rx="3.43518" transform="rotate(10.6498 1071.75 532.797)" stroke="#FF914D" stroke-width="19.237" mask="url(#path-140-inside-14_607_5581)"/>
<mask id="path-141-inside-15_607_5581" fill="white">
<rect x="1089.22" y="348.671" width="55.4917" height="55.4917" rx="3.43518" transform="rotate(24.8076 1089.22 348.671)"/>
</mask>
<rect x="1089.22" y="348.671" width="55.4917" height="55.4917" rx="3.43518" transform="rotate(24.8076 1089.22 348.671)" stroke="#11224E" stroke-width="19.237" mask="url(#path-141-inside-15_607_5581)"/>
<mask id="path-142-inside-16_607_5581" fill="white">
<rect x="1089.22" y="719.671" width="55.4917" height="55.4917" rx="3.43518" transform="rotate(24.8076 1089.22 719.671)"/>
</mask>
<rect x="1089.22" y="719.671" width="55.4917" height="55.4917" rx="3.43518" transform="rotate(24.8076 1089.22 719.671)" stroke="#11224E" stroke-width="19.237" mask="url(#path-142-inside-16_607_5581)"/>
<mask id="path-143-inside-17_607_5581" fill="white">
<rect x="718.222" y="348.671" width="55.4917" height="55.4917" rx="3.43518" transform="rotate(24.8076 718.222 348.671)"/>
</mask>
<rect x="718.222" y="348.671" width="55.4917" height="55.4917" rx="3.43518" transform="rotate(24.8076 718.222 348.671)" stroke="#11224E" stroke-width="19.237" mask="url(#path-143-inside-17_607_5581)"/>
<mask id="path-144-inside-18_607_5581" fill="white">
<rect x="718.222" y="719.671" width="55.4917" height="55.4917" rx="3.43518" transform="rotate(24.8076 718.222 719.671)"/>
</mask>
<rect x="718.222" y="719.671" width="55.4917" height="55.4917" rx="3.43518" transform="rotate(24.8076 718.222 719.671)" stroke="#11224E" stroke-width="19.237" mask="url(#path-144-inside-18_607_5581)"/>
<path d="M802.499 591.789C804.211 589.997 807.229 590.846 807.756 593.268L809.144 599.659C809.64 601.937 807.53 603.923 805.286 603.291L799.379 601.629C797.135 600.998 796.371 598.204 797.981 596.518L802.499 591.789Z" fill="#FF914D"/>
<path d="M751.548 512.239C751.318 509.771 753.938 508.049 756.112 509.24L761.848 512.382C763.893 513.502 764.009 516.397 762.06 517.677L756.932 521.047C754.984 522.327 752.373 521.072 752.156 518.75L751.548 512.239Z" fill="#FF914D"/>
<path d="M904.634 437.164C904.404 434.697 907.025 432.975 909.198 434.165L911.471 435.41C913.516 436.531 913.632 439.425 911.683 440.706L909.651 442.041C907.703 443.321 905.092 442.066 904.875 439.744L904.634 437.164Z" fill="#FF914D"/>
<path d="M1035.52 497.624C1035.28 495.156 1037.91 493.434 1040.08 494.625L1042.35 495.87C1044.4 496.99 1044.51 499.885 1042.56 501.165L1040.53 502.5C1038.58 503.78 1035.97 502.525 1035.76 500.204L1035.52 497.624Z" fill="#11224E"/>
<path d="M1054.07 643.276C1053.83 640.808 1056.46 639.086 1058.63 640.277L1060.9 641.522C1062.95 642.642 1063.06 645.536 1061.11 646.817L1059.08 648.152C1057.13 649.432 1054.52 648.177 1054.31 645.856L1054.07 643.276Z" fill="#FF914D"/>
<path d="M1047.88 729.499C1047.65 727.031 1050.27 725.309 1052.45 726.5L1054.72 727.745C1056.76 728.865 1056.88 731.76 1054.93 733.04L1052.9 734.375C1050.95 735.655 1048.34 734.4 1048.12 732.079L1047.88 729.499Z" fill="#FF914D"/>
<path d="M762.074 427.202C761.844 424.735 764.465 423.013 766.638 424.203L768.911 425.448C770.956 426.569 771.072 429.463 769.123 430.744L767.091 432.079C765.143 433.359 762.532 432.104 762.315 429.782L762.074 427.202Z" fill="#FF914D"/>
<path d="M815.089 395.654L861.481 420.684L848.63 388.996L815.089 395.654Z" stroke="#11224E" stroke-width="9.61852" stroke-linejoin="round"/>
<path d="M981.581 578.18L996.133 632.488L961.077 612.778L981.581 578.18Z" stroke="#11224E" stroke-width="9.61852" stroke-linejoin="round"/>
</g>
</g>
<g opacity="0.1">
<g clip-path="url(#clip3_607_5581)">
<rect y="371" width="371" height="371" rx="14.84" fill="white"/>
<path d="M331.152 612.15C338.48 621.826 350.011 644.887 337.507 659.727C325.003 674.567 305.617 676.789 297.487 676.044" stroke="#11224E" stroke-width="9.61852" stroke-linecap="round" stroke-linejoin="round"/>
<path d="M297.698 547.949C293.665 557.673 293.375 579.075 324.48 586.896" stroke="#11224E" stroke-width="9.61852" stroke-linecap="round" stroke-linejoin="round"/>
<path d="M276.195 734.958C280.038 724.358 293.194 703.516 315.064 704.946" stroke="#11224E" stroke-width="9.61852" stroke-linecap="round" stroke-linejoin="round"/>
<path d="M317.63 428.024C311.103 431.803 298.564 443.483 306.637 468.044C313.468 488.827 336.18 495.583 347.172 502.911" stroke="#11224E" stroke-width="9.61852" stroke-linecap="round" stroke-linejoin="round"/>
<path d="M189.526 469.743C183.021 465.758 167.201 459.701 155.957 467.357" stroke="#11224E" stroke-width="9.61852" stroke-linecap="round" stroke-linejoin="round"/>
<path d="M128.81 381.98C143.47 390.458 165.72 413.398 137.442 437.332" stroke="#FF914D" stroke-width="9.61852" stroke-linecap="round" stroke-linejoin="round"/>
<path d="M3.43518 550.66C8.87423 560.107 15.8019 581.783 0 592.913" stroke="#FF914D" stroke-width="9.61852" stroke-linecap="round" stroke-linejoin="round"/>
<path d="M374.435 550.66C379.874 560.107 386.802 581.783 371 592.913" stroke="#FF914D" stroke-width="9.61852" stroke-linecap="round" stroke-linejoin="round"/>
<path d="M27.138 549.973C35.4396 565.031 43.0085 599.337 6.87036 616.1" stroke="#11224E" stroke-width="9.61852" stroke-linecap="round" stroke-linejoin="round"/>
<path d="M276.189 582.951C287.411 594.917 306.487 622.456 293.021 636.883" stroke="#FF914D" stroke-width="9.61852" stroke-linecap="round" stroke-linejoin="round"/>
<path d="M164.545 486.594C158.019 492.319 148.881 510.022 164.545 535.03" stroke="#FF914D" stroke-width="9.61852" stroke-linecap="round" stroke-linejoin="round"/>
<path d="M190.02 440.888C214.669 441.598 258.334 427.025 235.801 363.055" stroke="#FF914D" stroke-width="9.61852" stroke-linecap="round" stroke-linejoin="round"/>
<path d="M190.02 811.887C214.669 812.597 258.334 798.024 235.801 734.054" stroke="#FF914D" stroke-width="9.61852" stroke-linecap="round" stroke-linejoin="round"/>
<path d="M104.086 727.056C113.934 715.262 139.778 698.75 164.374 727.056" stroke="#FF914D" stroke-width="9.61852" stroke-linecap="round" stroke-linejoin="round"/>
<path d="M144.278 690.784C138.724 687.979 126.552 685.357 122.292 697.311" stroke="#11224E" stroke-width="9.61852" stroke-linecap="round" stroke-linejoin="round"/>
<path d="M335.102 445.028H361.21" stroke="#FF914D" stroke-width="9.61852" stroke-linecap="round" stroke-linejoin="round"/>
<path d="M332.182 465.811H380.962V449.666" stroke="#FF914D" stroke-width="9.61852" stroke-linecap="round" stroke-linejoin="round"/>
<path d="M-38.8176 465.811H9.962V449.666" stroke="#FF914D" stroke-width="9.61852" stroke-linecap="round" stroke-linejoin="round"/>
<path d="M280.919 456.061L245.439 443.139" stroke="#11224E" stroke-width="9.61852" stroke-linecap="round" stroke-linejoin="round"/>
<path d="M17.9385 715.904C25.8075 720.687 42.0982 729.745 44.3095 727.714C46.5208 725.683 50.1595 718.019 51.7023 714.441" stroke="#11224E" stroke-width="9.61852" stroke-linecap="round" stroke-linejoin="round"/>
<path d="M191.855 496.383C197.924 484.989 222.085 470.104 238.058 486.936C259.373 509.397 235.138 523.007 223.63 509.438C212.123 495.869 215.73 479.87 236.341 472.336C257.12 464.741 270.063 484.474 273.097 490.715" stroke="#FF914D" stroke-width="9.61852" stroke-linecap="round" stroke-linejoin="round"/>
<path d="M235.654 541.37C245.73 550.989 266.467 564.455 268.803 541.37C271.723 512.515 275.502 510.797 305.216 523.507" stroke="#FF914D" stroke-width="9.61852" stroke-linecap="round" stroke-linejoin="round"/>
<path d="M72.5107 362.07C71.0787 367.322 65.3204 378.583 53.744 381.616C39.2736 385.407 41.9136 395.227 47.6242 406.971C53.3349 418.714 67.1322 444.803 40.1917 457.904" stroke="#FF914D" stroke-width="9.61852" stroke-linecap="round" stroke-linejoin="round"/>
<path d="M72.5107 733.068C71.0787 738.32 65.3204 749.582 53.744 752.615C39.2736 756.406 41.9136 766.226 47.6242 777.969C53.3349 789.713 67.1322 815.802 40.1917 828.903" stroke="#FF914D" stroke-width="9.61852" stroke-linecap="round" stroke-linejoin="round"/>
<path d="M26.4533 683.247C26.3065 665.56 32.8274 629.567 60.0859 627.091C94.1591 623.995 108.552 664.085 87.1095 687.373C65.6669 710.661 34.3842 692.531 45.693 664.232C57.0017 635.933 87.1095 664.232 62.289 677.204" stroke="#FF914D" stroke-width="9.61852" stroke-linecap="round" stroke-linejoin="round"/>
<path d="M31.6038 479.895C38.1879 497.357 54.6539 530.015 81.5857 518.198C115.251 503.426 69.428 461.689 57.1959 493.121C43.6269 527.988 64.1414 555.073 81.5857 568.695C107.318 588.789 160.967 588.237 142.732 557.015C124.497 525.794 72.5402 560.85 100.479 607.169C117.912 636.071 126.186 645.929 127.961 647.876" stroke="#FF914D" stroke-width="9.61852" stroke-linecap="round" stroke-linejoin="round"/>
<path d="M191.042 695.708C193.696 702.971 203.165 717.046 219.816 715.238C240.629 712.977 265.786 667.334 238.599 656.244C211.412 645.153 213.241 709.372 253.831 693.955C286.303 681.621 279.038 659.886 271.346 650.56" stroke="#11224E" stroke-width="9.61852" stroke-linecap="round" stroke-linejoin="round"/>
<path d="M73.1992 434.934C83.543 433.078 104.065 432.95 103.4 447.286C102.736 461.623 112.424 461.66 117.351 459.886C124.948 458.646 136.166 460.688 120.26 478.777" stroke="#FF914D" stroke-width="9.61852" stroke-linecap="round" stroke-linejoin="round"/>
<path d="M372.24 655.261C370.454 659.109 371.496 676.216 372.24 684.289C356.782 678.563 328.888 673.124 340.98 697.171" stroke="#FF914D" stroke-width="9.61852" stroke-linecap="round" stroke-linejoin="round"/>
<path d="M1.24008 655.261C-0.546217 659.109 0.495789 676.216 1.24008 684.289C-14.2183 678.563 -42.112 673.124 -30.0201 697.171" stroke="#FF914D" stroke-width="9.61852" stroke-linecap="round" stroke-linejoin="round"/>
<path d="M193.057 532.625L212.81 575.05C203.077 571.844 183.164 566.393 181.378 570.241C179.591 574.088 180.633 591.195 181.378 599.268C165.919 593.543 138.026 588.104 150.118 612.15" stroke="#11224E" stroke-width="9.61852" stroke-linecap="round" stroke-linejoin="round"/>
<path d="M276.962 411.63C278.164 404.416 283.736 403.756 286.752 405.184C294.939 409.062 290.685 424.363 278.507 425.198C265.969 426.058 256.686 413.222 266.656 400.122C276.627 387.021 293.966 385.44 304.1 404.587" stroke="#FF914D" stroke-width="9.61852" stroke-linecap="round" stroke-linejoin="round"/>
<circle cx="122.121" cy="507.72" r="12.1949" stroke="#11224E" stroke-width="9.61852"/>
<circle cx="28.512" cy="28.512" r="23.7028" transform="matrix(-0.285974 -0.958237 -0.958237 0.285974 230.686 407.78)" stroke="#FF914D" stroke-width="9.61852"/>
<path d="M217.924 752.835C214.18 740.291 200.977 733.157 188.433 736.9C175.889 740.644 168.755 753.848 172.498 766.392C176.242 778.935 189.446 786.069 201.99 782.325C214.533 778.582 221.667 765.379 217.924 752.835Z" stroke="#FF914D" stroke-width="9.61852"/>
<mask id="path-190-inside-19_607_5581" fill="white">
<rect x="156.988" y="629.055" width="41.9253" height="41.9253" rx="3.43518" transform="rotate(-5.74167 156.988 629.055)"/>
</mask>
<rect x="156.988" y="629.055" width="41.9253" height="41.9253" rx="3.43518" transform="rotate(-5.74167 156.988 629.055)" stroke="#FF914D" stroke-width="19.237" mask="url(#path-190-inside-19_607_5581)"/>
<mask id="path-191-inside-20_607_5581" fill="white">
<rect x="329.752" y="532.797" width="33.3213" height="33.3213" rx="3.43518" transform="rotate(10.6498 329.752 532.797)"/>
</mask>
<rect x="329.752" y="532.797" width="33.3213" height="33.3213" rx="3.43518" transform="rotate(10.6498 329.752 532.797)" stroke="#FF914D" stroke-width="19.237" mask="url(#path-191-inside-20_607_5581)"/>
<mask id="path-192-inside-21_607_5581" fill="white">
<rect x="347.221" y="348.671" width="55.4917" height="55.4917" rx="3.43518" transform="rotate(24.8076 347.221 348.671)"/>
</mask>
<rect x="347.221" y="348.671" width="55.4917" height="55.4917" rx="3.43518" transform="rotate(24.8076 347.221 348.671)" stroke="#11224E" stroke-width="19.237" mask="url(#path-192-inside-21_607_5581)"/>
<mask id="path-193-inside-22_607_5581" fill="white">
<rect x="347.221" y="719.671" width="55.4917" height="55.4917" rx="3.43518" transform="rotate(24.8076 347.221 719.671)"/>
</mask>
<rect x="347.221" y="719.671" width="55.4917" height="55.4917" rx="3.43518" transform="rotate(24.8076 347.221 719.671)" stroke="#11224E" stroke-width="19.237" mask="url(#path-193-inside-22_607_5581)"/>
<mask id="path-194-inside-23_607_5581" fill="white">
<rect x="-23.7783" y="348.671" width="55.4917" height="55.4917" rx="3.43518" transform="rotate(24.8076 -23.7783 348.671)"/>
</mask>
<rect x="-23.7783" y="348.671" width="55.4917" height="55.4917" rx="3.43518" transform="rotate(24.8076 -23.7783 348.671)" stroke="#11224E" stroke-width="19.237" mask="url(#path-194-inside-23_607_5581)"/>
<mask id="path-195-inside-24_607_5581" fill="white">
<rect x="-23.7783" y="719.671" width="55.4917" height="55.4917" rx="3.43518" transform="rotate(24.8076 -23.7783 719.671)"/>
</mask>
<rect x="-23.7783" y="719.671" width="55.4917" height="55.4917" rx="3.43518" transform="rotate(24.8076 -23.7783 719.671)" stroke="#11224E" stroke-width="19.237" mask="url(#path-195-inside-24_607_5581)"/>
<path d="M60.4986 591.789C62.2104 589.997 65.2291 590.846 65.7553 593.268L67.1442 599.659C67.6393 601.937 65.5301 603.923 63.2856 603.291L57.3791 601.629C55.1346 600.998 54.3703 598.204 55.9809 596.518L60.4986 591.789Z" fill="#FF914D"/>
<path d="M9.54784 512.239C9.31747 509.771 11.9382 508.049 14.1115 509.24L19.8474 512.382C21.8923 513.502 22.0084 516.397 20.0598 517.677L14.9319 521.047C12.9833 522.327 10.3726 521.072 10.1558 518.75L9.54784 512.239Z" fill="#FF914D"/>
<path d="M162.634 437.164C162.404 434.697 165.025 432.975 167.198 434.165L169.47 435.41C171.515 436.531 171.631 439.425 169.683 440.706L167.651 442.041C165.703 443.321 163.092 442.066 162.875 439.744L162.634 437.164Z" fill="#FF914D"/>
<path d="M293.515 497.624C293.284 495.156 295.905 493.434 298.079 494.625L300.351 495.87C302.396 496.99 302.512 499.885 300.563 501.165L298.532 502.5C296.583 503.78 293.973 502.525 293.756 500.204L293.515 497.624Z" fill="#11224E"/>
<path d="M312.065 643.276C311.835 640.808 314.455 639.086 316.629 640.277L318.901 641.522C320.946 642.642 321.062 645.536 319.114 646.817L317.082 648.152C315.133 649.432 312.523 648.177 312.306 645.856L312.065 643.276Z" fill="#FF914D"/>
<path d="M305.882 729.499C305.651 727.031 308.272 725.309 310.445 726.5L312.718 727.745C314.763 728.865 314.879 731.76 312.93 733.04L310.899 734.375C308.95 735.655 306.339 734.4 306.122 732.079L305.882 729.499Z" fill="#FF914D"/>
<path d="M20.0742 427.202C19.8438 424.735 22.4645 423.013 24.6379 424.203L26.9104 425.448C28.9553 426.569 29.0714 429.463 27.1228 430.744L25.0912 432.079C23.1426 433.359 20.5318 432.104 20.3151 429.782L20.0742 427.202Z" fill="#FF914D"/>
<path d="M73.0886 395.654L119.481 420.684L106.63 388.996L73.0886 395.654Z" stroke="#11224E" stroke-width="9.61852" stroke-linejoin="round"/>
<path d="M239.581 578.18L254.132 632.488L219.077 612.778L239.581 578.18Z" stroke="#11224E" stroke-width="9.61852" stroke-linejoin="round"/>
</g>
</g>
<rect y="352" width="1483" height="456" fill="url(#paint0_linear_607_5581)"/>
<g opacity="0.1">
<g clip-path="url(#clip4_607_5581)">
<rect x="371" width="371" height="371" rx="14.84" fill="white"/>
<path d="M702.152 241.15C709.48 250.826 721.011 273.887 708.507 288.727C696.003 303.567 676.617 305.789 668.487 305.044" stroke="#11224E" stroke-width="9.61852" stroke-linecap="round" stroke-linejoin="round"/>
<path d="M668.698 176.949C664.665 186.673 664.375 208.075 695.48 215.896" stroke="#11224E" stroke-width="9.61852" stroke-linecap="round" stroke-linejoin="round"/>
<path d="M647.195 363.958C651.038 353.358 664.194 332.515 686.064 333.946" stroke="#11224E" stroke-width="9.61852" stroke-linecap="round" stroke-linejoin="round"/>
<path d="M688.63 57.0239C682.103 60.8026 669.564 72.4823 677.637 97.0438C684.468 117.827 707.18 124.583 718.172 131.911" stroke="#11224E" stroke-width="9.61852" stroke-linecap="round" stroke-linejoin="round"/>
<path d="M560.526 98.7431C554.021 94.7576 538.201 88.7007 526.957 96.3565" stroke="#11224E" stroke-width="9.61852" stroke-linecap="round" stroke-linejoin="round"/>
<path d="M499.81 10.9801C514.47 19.4582 536.72 42.3977 508.442 66.3316" stroke="#FF914D" stroke-width="9.61852" stroke-linecap="round" stroke-linejoin="round"/>
<path d="M374.435 179.66C379.874 189.107 386.802 210.783 371 221.913" stroke="#FF914D" stroke-width="9.61852" stroke-linecap="round" stroke-linejoin="round"/>
<path d="M745.435 179.66C750.874 189.107 757.802 210.783 742 221.913" stroke="#FF914D" stroke-width="9.61852" stroke-linecap="round" stroke-linejoin="round"/>
<path d="M398.138 178.973C406.44 194.031 414.009 228.337 377.87 245.1" stroke="#11224E" stroke-width="9.61852" stroke-linecap="round" stroke-linejoin="round"/>
<path d="M647.189 211.951C658.411 223.917 677.487 251.455 664.021 265.883" stroke="#FF914D" stroke-width="9.61852" stroke-linecap="round" stroke-linejoin="round"/>
<path d="M535.545 115.594C529.019 121.319 519.881 139.022 535.545 164.03" stroke="#FF914D" stroke-width="9.61852" stroke-linecap="round" stroke-linejoin="round"/>
<path d="M561.02 69.8876C585.669 70.5975 629.334 56.0248 606.801 -7.94489" stroke="#FF914D" stroke-width="9.61852" stroke-linecap="round" stroke-linejoin="round"/>
<path d="M561.02 440.887C585.669 441.597 629.334 427.024 606.801 363.054" stroke="#FF914D" stroke-width="9.61852" stroke-linecap="round" stroke-linejoin="round"/>
<path d="M475.086 356.056C484.934 344.262 510.778 327.75 535.374 356.056" stroke="#FF914D" stroke-width="9.61852" stroke-linecap="round" stroke-linejoin="round"/>
<path d="M515.278 319.784C509.724 316.978 497.552 314.356 493.292 326.311" stroke="#11224E" stroke-width="9.61852" stroke-linecap="round" stroke-linejoin="round"/>
<path d="M706.102 74.0281H732.21" stroke="#FF914D" stroke-width="9.61852" stroke-linecap="round" stroke-linejoin="round"/>
<path d="M703.182 94.8109H751.962V78.6655" stroke="#FF914D" stroke-width="9.61852" stroke-linecap="round" stroke-linejoin="round"/>
<path d="M332.182 94.8109H380.962V78.6655" stroke="#FF914D" stroke-width="9.61852" stroke-linecap="round" stroke-linejoin="round"/>
<path d="M651.919 85.0609L616.439 72.1385" stroke="#11224E" stroke-width="9.61852" stroke-linecap="round" stroke-linejoin="round"/>
<path d="M388.938 344.904C396.807 349.687 413.098 358.744 415.31 356.714C417.521 354.683 421.159 347.019 422.702 343.441" stroke="#11224E" stroke-width="9.61852" stroke-linecap="round" stroke-linejoin="round"/>
<path d="M562.855 125.383C568.924 113.989 593.085 99.1036 609.058 115.936C630.373 138.397 606.138 152.007 594.63 138.438C583.123 124.869 586.73 108.87 607.341 101.336C628.12 93.7412 641.063 113.474 644.097 119.715" stroke="#FF914D" stroke-width="9.61852" stroke-linecap="round" stroke-linejoin="round"/>
<path d="M606.654 170.37C616.73 179.989 637.467 193.455 639.803 170.37C642.723 141.515 646.502 139.797 676.216 152.507" stroke="#FF914D" stroke-width="9.61852" stroke-linecap="round" stroke-linejoin="round"/>
<path d="M443.511 -8.93018C442.079 -3.67837 436.32 7.58347 424.744 10.6164C410.274 14.4075 412.914 24.2274 418.624 35.9708C424.335 47.7141 438.132 73.8035 411.192 86.9044" stroke="#FF914D" stroke-width="9.61852" stroke-linecap="round" stroke-linejoin="round"/>
<path d="M443.511 362.068C442.079 367.32 436.32 378.582 424.744 381.615C410.274 385.406 412.914 395.226 418.624 406.969C424.335 418.713 438.132 444.802 411.192 457.903" stroke="#FF914D" stroke-width="9.61852" stroke-linecap="round" stroke-linejoin="round"/>
<path d="M397.453 312.247C397.306 294.56 403.827 258.567 431.086 256.091C465.159 252.995 479.552 293.085 458.11 316.373C436.667 339.661 405.384 321.531 416.693 293.232C428.002 264.933 458.11 293.232 433.289 306.204" stroke="#FF914D" stroke-width="9.61852" stroke-linecap="round" stroke-linejoin="round"/>
<path d="M402.604 108.895C409.188 126.357 425.654 159.015 452.586 147.198C486.251 132.426 440.428 90.6888 428.196 122.121C414.627 156.988 435.141 184.073 452.586 197.695C478.318 217.789 531.967 217.237 513.732 186.015C495.497 154.794 443.54 189.85 471.479 236.169C488.912 265.071 497.186 274.929 498.961 276.876" stroke="#FF914D" stroke-width="9.61852" stroke-linecap="round" stroke-linejoin="round"/>
<path d="M562.042 324.708C564.696 331.971 574.165 346.046 590.816 344.238C611.629 341.977 636.786 296.334 609.599 285.244C582.412 274.153 584.241 338.372 624.831 322.955C657.303 310.621 650.038 288.886 642.346 279.56" stroke="#11224E" stroke-width="9.61852" stroke-linecap="round" stroke-linejoin="round"/>
<path d="M444.199 63.9341C454.543 62.0782 475.065 61.9503 474.4 76.2865C473.736 90.6226 483.424 90.6597 488.351 88.8862C495.948 87.646 507.166 89.6877 491.26 107.777" stroke="#FF914D" stroke-width="9.61852" stroke-linecap="round" stroke-linejoin="round"/>
<path d="M743.24 284.261C741.454 288.109 742.496 305.216 743.24 313.289C727.782 307.563 699.888 302.124 711.98 326.171" stroke="#FF914D" stroke-width="9.61852" stroke-linecap="round" stroke-linejoin="round"/>
<path d="M372.24 284.261C370.454 288.109 371.496 305.216 372.24 313.289C356.782 307.563 328.888 302.124 340.98 326.171" stroke="#FF914D" stroke-width="9.61852" stroke-linecap="round" stroke-linejoin="round"/>
<path d="M564.057 161.625L583.81 204.05C574.077 200.844 554.164 195.393 552.378 199.241C550.591 203.088 551.633 220.195 552.378 228.268C536.919 222.543 509.026 217.104 521.118 241.15" stroke="#11224E" stroke-width="9.61852" stroke-linecap="round" stroke-linejoin="round"/>
<path d="M647.962 40.6297C649.164 33.4158 654.736 32.7555 657.752 34.1842C665.939 38.0617 661.685 53.3635 649.507 54.1981C636.969 55.0575 627.686 42.2216 637.656 29.1216C647.627 16.0211 664.966 14.4397 675.1 33.587" stroke="#FF914D" stroke-width="9.61852" stroke-linecap="round" stroke-linejoin="round"/>
<circle cx="493.121" cy="136.72" r="12.1949" stroke="#11224E" stroke-width="9.61852"/>
<circle cx="28.512" cy="28.512" r="23.7028" transform="matrix(-0.285974 -0.958237 -0.958237 0.285974 601.686 36.78)" stroke="#FF914D" stroke-width="9.61852"/>
<path d="M588.924 381.835C585.18 369.291 571.977 362.157 559.433 365.9C546.889 369.644 539.755 382.848 543.498 395.392C547.242 407.935 560.446 415.069 572.99 411.325C585.533 407.582 592.667 394.379 588.924 381.835Z" stroke="#FF914D" stroke-width="9.61852"/>
<mask id="path-242-inside-25_607_5581" fill="white">
<rect x="527.988" y="258.055" width="41.9253" height="41.9253" rx="3.43518" transform="rotate(-5.74167 527.988 258.055)"/>
</mask>
<rect x="527.988" y="258.055" width="41.9253" height="41.9253" rx="3.43518" transform="rotate(-5.74167 527.988 258.055)" stroke="#FF914D" stroke-width="19.237" mask="url(#path-242-inside-25_607_5581)"/>
<mask id="path-243-inside-26_607_5581" fill="white">
<rect x="700.752" y="161.797" width="33.3213" height="33.3213" rx="3.43518" transform="rotate(10.6498 700.752 161.797)"/>
</mask>
<rect x="700.752" y="161.797" width="33.3213" height="33.3213" rx="3.43518" transform="rotate(10.6498 700.752 161.797)" stroke="#FF914D" stroke-width="19.237" mask="url(#path-243-inside-26_607_5581)"/>
<mask id="path-244-inside-27_607_5581" fill="white">
<rect x="718.221" y="-22.3286" width="55.4917" height="55.4917" rx="3.43518" transform="rotate(24.8076 718.221 -22.3286)"/>
</mask>
<rect x="718.221" y="-22.3286" width="55.4917" height="55.4917" rx="3.43518" transform="rotate(24.8076 718.221 -22.3286)" stroke="#11224E" stroke-width="19.237" mask="url(#path-244-inside-27_607_5581)"/>
<mask id="path-245-inside-28_607_5581" fill="white">
<rect x="718.221" y="348.671" width="55.4917" height="55.4917" rx="3.43518" transform="rotate(24.8076 718.221 348.671)"/>
</mask>
<rect x="718.221" y="348.671" width="55.4917" height="55.4917" rx="3.43518" transform="rotate(24.8076 718.221 348.671)" stroke="#11224E" stroke-width="19.237" mask="url(#path-245-inside-28_607_5581)"/>
<mask id="path-246-inside-29_607_5581" fill="white">
<rect x="347.222" y="-22.3286" width="55.4917" height="55.4917" rx="3.43518" transform="rotate(24.8076 347.222 -22.3286)"/>
</mask>
<rect x="347.222" y="-22.3286" width="55.4917" height="55.4917" rx="3.43518" transform="rotate(24.8076 347.222 -22.3286)" stroke="#11224E" stroke-width="19.237" mask="url(#path-246-inside-29_607_5581)"/>
<mask id="path-247-inside-30_607_5581" fill="white">
<rect x="347.222" y="348.671" width="55.4917" height="55.4917" rx="3.43518" transform="rotate(24.8076 347.222 348.671)"/>
</mask>
<rect x="347.222" y="348.671" width="55.4917" height="55.4917" rx="3.43518" transform="rotate(24.8076 347.222 348.671)" stroke="#11224E" stroke-width="19.237" mask="url(#path-247-inside-30_607_5581)"/>
<path d="M431.499 220.789C433.21 218.997 436.229 219.846 436.755 222.268L438.144 228.659C438.639 230.937 436.53 232.923 434.286 232.291L428.379 230.629C426.135 229.998 425.37 227.204 426.981 225.518L431.499 220.789Z" fill="#FF914D"/>
<path d="M380.548 141.239C380.317 138.771 382.938 137.049 385.112 138.24L390.847 141.382C392.892 142.502 393.008 145.397 391.06 146.677L385.932 150.047C383.983 151.327 381.373 150.072 381.156 147.75L380.548 141.239Z" fill="#FF914D"/>
<path d="M533.634 66.1642C533.404 63.6969 536.025 61.9748 538.198 63.1654L540.47 64.4103C542.515 65.5306 542.631 68.4251 540.683 69.7055L538.651 71.0405C536.703 72.321 534.092 71.0658 533.875 68.7442L533.634 66.1642Z" fill="#FF914D"/>
<path d="M664.515 126.624C664.284 124.156 666.905 122.434 669.079 123.625L671.351 124.87C673.396 125.99 673.512 128.885 671.563 130.165L669.532 131.5C667.583 132.78 664.973 131.525 664.756 129.204L664.515 126.624Z" fill="#11224E"/>
<path d="M683.065 272.276C682.835 269.808 685.455 268.086 687.629 269.277L689.901 270.522C691.946 271.642 692.062 274.536 690.114 275.817L688.082 277.152C686.133 278.432 683.523 277.177 683.306 274.856L683.065 272.276Z" fill="#FF914D"/>
<path d="M676.882 358.499C676.651 356.031 679.272 354.309 681.445 355.5L683.718 356.745C685.763 357.865 685.879 360.76 683.93 362.04L681.899 363.375C679.95 364.655 677.339 363.4 677.122 361.079L676.882 358.499Z" fill="#FF914D"/>
<path d="M391.074 56.2023C390.844 53.735 393.465 52.0129 395.638 53.2035L397.91 54.4484C399.955 55.5686 400.071 58.4631 398.123 59.7436L396.091 61.0786C394.143 62.3591 391.532 61.1038 391.315 58.7823L391.074 56.2023Z" fill="#FF914D"/>
<path d="M444.089 24.6535L490.481 49.684L477.63 17.9956L444.089 24.6535Z" stroke="#11224E" stroke-width="9.61852" stroke-linejoin="round"/>
<path d="M610.581 207.18L625.132 261.488L590.077 241.778L610.581 207.18Z" stroke="#11224E" stroke-width="9.61852" stroke-linejoin="round"/>
</g>
</g>
<g opacity="0.1">
<g clip-path="url(#clip5_607_5581)">
<rect x="1113" width="371" height="371" rx="14.84" fill="white"/>
<path d="M1444.15 241.15C1451.48 250.826 1463.01 273.887 1450.51 288.727C1438 303.567 1418.62 305.789 1410.49 305.044" stroke="#11224E" stroke-width="9.61852" stroke-linecap="round" stroke-linejoin="round"/>
<path d="M1410.7 176.949C1406.66 186.673 1406.37 208.075 1437.48 215.896" stroke="#11224E" stroke-width="9.61852" stroke-linecap="round" stroke-linejoin="round"/>
<path d="M1389.19 363.958C1393.04 353.358 1406.19 332.515 1428.06 333.946" stroke="#11224E" stroke-width="9.61852" stroke-linecap="round" stroke-linejoin="round"/>
<path d="M1430.63 57.0239C1424.1 60.8026 1411.56 72.4823 1419.64 97.0438C1426.47 117.827 1449.18 124.583 1460.17 131.911" stroke="#11224E" stroke-width="9.61852" stroke-linecap="round" stroke-linejoin="round"/>
<path d="M1302.53 98.7431C1296.02 94.7576 1280.2 88.7007 1268.96 96.3565" stroke="#11224E" stroke-width="9.61852" stroke-linecap="round" stroke-linejoin="round"/>
<path d="M1241.81 10.9801C1256.47 19.4582 1278.72 42.3977 1250.44 66.3316" stroke="#FF914D" stroke-width="9.61852" stroke-linecap="round" stroke-linejoin="round"/>
<path d="M1116.44 179.66C1121.87 189.107 1128.8 210.783 1113 221.913" stroke="#FF914D" stroke-width="9.61852" stroke-linecap="round" stroke-linejoin="round"/>
<path d="M1487.44 179.66C1492.87 189.107 1499.8 210.783 1484 221.913" stroke="#FF914D" stroke-width="9.61852" stroke-linecap="round" stroke-linejoin="round"/>
<path d="M1140.14 178.973C1148.44 194.031 1156.01 228.337 1119.87 245.1" stroke="#11224E" stroke-width="9.61852" stroke-linecap="round" stroke-linejoin="round"/>
<path d="M1389.19 211.951C1400.41 223.917 1419.49 251.455 1406.02 265.883" stroke="#FF914D" stroke-width="9.61852" stroke-linecap="round" stroke-linejoin="round"/>
<path d="M1277.55 115.594C1271.02 121.319 1261.88 139.022 1277.55 164.03" stroke="#FF914D" stroke-width="9.61852" stroke-linecap="round" stroke-linejoin="round"/>
<path d="M1303.02 69.8876C1327.67 70.5975 1371.33 56.0248 1348.8 -7.94489" stroke="#FF914D" stroke-width="9.61852" stroke-linecap="round" stroke-linejoin="round"/>
<path d="M1303.02 440.887C1327.67 441.597 1371.33 427.024 1348.8 363.054" stroke="#FF914D" stroke-width="9.61852" stroke-linecap="round" stroke-linejoin="round"/>
<path d="M1217.09 356.056C1226.93 344.262 1252.78 327.75 1277.37 356.056" stroke="#FF914D" stroke-width="9.61852" stroke-linecap="round" stroke-linejoin="round"/>
<path d="M1257.28 319.784C1251.72 316.978 1239.55 314.356 1235.29 326.311" stroke="#11224E" stroke-width="9.61852" stroke-linecap="round" stroke-linejoin="round"/>
<path d="M1448.1 74.0281H1474.21" stroke="#FF914D" stroke-width="9.61852" stroke-linecap="round" stroke-linejoin="round"/>
<path d="M1445.18 94.8109H1493.96V78.6655" stroke="#FF914D" stroke-width="9.61852" stroke-linecap="round" stroke-linejoin="round"/>
<path d="M1074.18 94.8109H1122.96V78.6655" stroke="#FF914D" stroke-width="9.61852" stroke-linecap="round" stroke-linejoin="round"/>
<path d="M1393.92 85.0609L1358.44 72.1385" stroke="#11224E" stroke-width="9.61852" stroke-linecap="round" stroke-linejoin="round"/>
<path d="M1130.94 344.904C1138.81 349.687 1155.1 358.744 1157.31 356.714C1159.52 354.683 1163.16 347.019 1164.7 343.441" stroke="#11224E" stroke-width="9.61852" stroke-linecap="round" stroke-linejoin="round"/>
<path d="M1304.85 125.383C1310.92 113.989 1335.08 99.1036 1351.06 115.936C1372.37 138.397 1348.14 152.007 1336.63 138.438C1325.12 124.869 1328.73 108.87 1349.34 101.336C1370.12 93.7412 1383.06 113.474 1386.1 119.715" stroke="#FF914D" stroke-width="9.61852" stroke-linecap="round" stroke-linejoin="round"/>
<path d="M1348.65 170.37C1358.73 179.989 1379.47 193.455 1381.8 170.37C1384.72 141.515 1388.5 139.797 1418.22 152.507" stroke="#FF914D" stroke-width="9.61852" stroke-linecap="round" stroke-linejoin="round"/>
<path d="M1185.51 -8.93018C1184.08 -3.67837 1178.32 7.58347 1166.74 10.6164C1152.27 14.4075 1154.91 24.2274 1160.62 35.9708C1166.33 47.7141 1180.13 73.8035 1153.19 86.9044" stroke="#FF914D" stroke-width="9.61852" stroke-linecap="round" stroke-linejoin="round"/>
<path d="M1185.51 362.068C1184.08 367.32 1178.32 378.582 1166.74 381.615C1152.27 385.406 1154.91 395.226 1160.62 406.969C1166.33 418.713 1180.13 444.802 1153.19 457.903" stroke="#FF914D" stroke-width="9.61852" stroke-linecap="round" stroke-linejoin="round"/>
<path d="M1139.45 312.247C1139.31 294.56 1145.83 258.567 1173.09 256.091C1207.16 252.995 1221.55 293.085 1200.11 316.373C1178.67 339.661 1147.38 321.531 1158.69 293.232C1170 264.933 1200.11 293.232 1175.29 306.204" stroke="#FF914D" stroke-width="9.61852" stroke-linecap="round" stroke-linejoin="round"/>
<path d="M1144.6 108.895C1151.19 126.357 1167.65 159.015 1194.59 147.198C1228.25 132.426 1182.43 90.6888 1170.2 122.121C1156.63 156.988 1177.14 184.073 1194.59 197.695C1220.32 217.789 1273.97 217.237 1255.73 186.015C1237.5 154.794 1185.54 189.85 1213.48 236.169C1230.91 265.071 1239.19 274.929 1240.96 276.876" stroke="#FF914D" stroke-width="9.61852" stroke-linecap="round" stroke-linejoin="round"/>
<path d="M1304.04 324.708C1306.7 331.971 1316.17 346.046 1332.82 344.238C1353.63 341.977 1378.79 296.334 1351.6 285.244C1324.41 274.153 1326.24 338.372 1366.83 322.955C1399.3 310.621 1392.04 288.886 1384.35 279.56" stroke="#11224E" stroke-width="9.61852" stroke-linecap="round" stroke-linejoin="round"/>
<path d="M1186.2 63.9341C1196.54 62.0782 1217.06 61.9503 1216.4 76.2865C1215.74 90.6226 1225.42 90.6597 1230.35 88.8862C1237.95 87.646 1249.17 89.6877 1233.26 107.777" stroke="#FF914D" stroke-width="9.61852" stroke-linecap="round" stroke-linejoin="round"/>
<path d="M1485.24 284.261C1483.45 288.109 1484.5 305.216 1485.24 313.289C1469.78 307.563 1441.89 302.124 1453.98 326.171" stroke="#FF914D" stroke-width="9.61852" stroke-linecap="round" stroke-linejoin="round"/>
<path d="M1114.24 284.261C1112.45 288.109 1113.5 305.216 1114.24 313.289C1098.78 307.563 1070.89 302.124 1082.98 326.171" stroke="#FF914D" stroke-width="9.61852" stroke-linecap="round" stroke-linejoin="round"/>
<path d="M1306.06 161.625L1325.81 204.05C1316.08 200.844 1296.16 195.393 1294.38 199.241C1292.59 203.088 1293.63 220.195 1294.38 228.268C1278.92 222.543 1251.03 217.104 1263.12 241.15" stroke="#11224E" stroke-width="9.61852" stroke-linecap="round" stroke-linejoin="round"/>
<path d="M1389.96 40.6297C1391.16 33.4158 1396.74 32.7555 1399.75 34.1842C1407.94 38.0617 1403.68 53.3635 1391.51 54.1981C1378.97 55.0575 1369.69 42.2216 1379.66 29.1216C1389.63 16.0211 1406.97 14.4397 1417.1 33.587" stroke="#FF914D" stroke-width="9.61852" stroke-linecap="round" stroke-linejoin="round"/>
<circle cx="1235.12" cy="136.72" r="12.1949" stroke="#11224E" stroke-width="9.61852"/>
<circle cx="28.512" cy="28.512" r="23.7028" transform="matrix(-0.285974 -0.958237 -0.958237 0.285974 1343.69 36.78)" stroke="#FF914D" stroke-width="9.61852"/>
<path d="M1330.92 381.835C1327.18 369.291 1313.98 362.157 1301.43 365.9C1288.89 369.644 1281.75 382.848 1285.5 395.392C1289.24 407.935 1302.45 415.069 1314.99 411.325C1327.53 407.582 1334.67 394.379 1330.92 381.835Z" stroke="#FF914D" stroke-width="9.61852"/>
<mask id="path-293-inside-31_607_5581" fill="white">
<rect x="1269.99" y="258.055" width="41.9253" height="41.9253" rx="3.43518" transform="rotate(-5.74167 1269.99 258.055)"/>
</mask>
<rect x="1269.99" y="258.055" width="41.9253" height="41.9253" rx="3.43518" transform="rotate(-5.74167 1269.99 258.055)" stroke="#FF914D" stroke-width="19.237" mask="url(#path-293-inside-31_607_5581)"/>
<mask id="path-294-inside-32_607_5581" fill="white">
<rect x="1442.75" y="161.797" width="33.3213" height="33.3213" rx="3.43518" transform="rotate(10.6498 1442.75 161.797)"/>
</mask>
<rect x="1442.75" y="161.797" width="33.3213" height="33.3213" rx="3.43518" transform="rotate(10.6498 1442.75 161.797)" stroke="#FF914D" stroke-width="19.237" mask="url(#path-294-inside-32_607_5581)"/>
<mask id="path-295-inside-33_607_5581" fill="white">
<rect x="1460.22" y="-22.3286" width="55.4917" height="55.4917" rx="3.43518" transform="rotate(24.8076 1460.22 -22.3286)"/>
</mask>
<rect x="1460.22" y="-22.3286" width="55.4917" height="55.4917" rx="3.43518" transform="rotate(24.8076 1460.22 -22.3286)" stroke="#11224E" stroke-width="19.237" mask="url(#path-295-inside-33_607_5581)"/>
<mask id="path-296-inside-34_607_5581" fill="white">
<rect x="1460.22" y="348.671" width="55.4917" height="55.4917" rx="3.43518" transform="rotate(24.8076 1460.22 348.671)"/>
</mask>
<rect x="1460.22" y="348.671" width="55.4917" height="55.4917" rx="3.43518" transform="rotate(24.8076 1460.22 348.671)" stroke="#11224E" stroke-width="19.237" mask="url(#path-296-inside-34_607_5581)"/>
<mask id="path-297-inside-35_607_5581" fill="white">
<rect x="1089.22" y="-22.3286" width="55.4917" height="55.4917" rx="3.43518" transform="rotate(24.8076 1089.22 -22.3286)"/>
</mask>
<rect x="1089.22" y="-22.3286" width="55.4917" height="55.4917" rx="3.43518" transform="rotate(24.8076 1089.22 -22.3286)" stroke="#11224E" stroke-width="19.237" mask="url(#path-297-inside-35_607_5581)"/>
<mask id="path-298-inside-36_607_5581" fill="white">
<rect x="1089.22" y="348.671" width="55.4917" height="55.4917" rx="3.43518" transform="rotate(24.8076 1089.22 348.671)"/>
</mask>
<rect x="1089.22" y="348.671" width="55.4917" height="55.4917" rx="3.43518" transform="rotate(24.8076 1089.22 348.671)" stroke="#11224E" stroke-width="19.237" mask="url(#path-298-inside-36_607_5581)"/>
<path d="M1173.5 220.789C1175.21 218.997 1178.23 219.846 1178.76 222.268L1180.14 228.659C1180.64 230.937 1178.53 232.923 1176.29 232.291L1170.38 230.629C1168.13 229.998 1167.37 227.204 1168.98 225.518L1173.5 220.789Z" fill="#FF914D"/>
<path d="M1122.55 141.239C1122.32 138.771 1124.94 137.049 1127.11 138.24L1132.85 141.382C1134.89 142.502 1135.01 145.397 1133.06 146.677L1127.93 150.047C1125.98 151.327 1123.37 150.072 1123.16 147.75L1122.55 141.239Z" fill="#FF914D"/>
<path d="M1275.63 66.1642C1275.4 63.6969 1278.02 61.9748 1280.2 63.1654L1282.47 64.4103C1284.52 65.5306 1284.63 68.4251 1282.68 69.7055L1280.65 71.0405C1278.7 72.321 1276.09 71.0658 1275.88 68.7442L1275.63 66.1642Z" fill="#FF914D"/>
<path d="M1406.51 126.624C1406.28 124.156 1408.91 122.434 1411.08 123.625L1413.35 124.87C1415.4 125.99 1415.51 128.885 1413.56 130.165L1411.53 131.5C1409.58 132.78 1406.97 131.525 1406.76 129.204L1406.51 126.624Z" fill="#11224E"/>
<path d="M1425.06 272.276C1424.83 269.808 1427.46 268.086 1429.63 269.277L1431.9 270.522C1433.95 271.642 1434.06 274.536 1432.11 275.817L1430.08 277.152C1428.13 278.432 1425.52 277.177 1425.31 274.856L1425.06 272.276Z" fill="#FF914D"/>
<path d="M1418.88 358.499C1418.65 356.031 1421.27 354.309 1423.45 355.5L1425.72 356.745C1427.76 357.865 1427.88 360.76 1425.93 362.04L1423.9 363.375C1421.95 364.655 1419.34 363.4 1419.12 361.079L1418.88 358.499Z" fill="#FF914D"/>
<path d="M1133.07 56.2023C1132.84 53.735 1135.46 52.0129 1137.64 53.2035L1139.91 54.4484C1141.96 55.5686 1142.07 58.4631 1140.12 59.7436L1138.09 61.0786C1136.14 62.3591 1133.53 61.1038 1133.32 58.7823L1133.07 56.2023Z" fill="#FF914D"/>
<path d="M1186.09 24.6535L1232.48 49.684L1219.63 17.9956L1186.09 24.6535Z" stroke="#11224E" stroke-width="9.61852" stroke-linejoin="round"/>
<path d="M1352.58 207.18L1367.13 261.488L1332.08 241.778L1352.58 207.18Z" stroke="#11224E" stroke-width="9.61852" stroke-linejoin="round"/>
</g>
</g>
<g opacity="0.1">
<g clip-path="url(#clip6_607_5581)">
<rect x="742" width="371" height="371" rx="14.84" fill="white"/>
<path d="M1073.15 241.15C1080.48 250.826 1092.01 273.887 1079.51 288.727C1067 303.567 1047.62 305.789 1039.49 305.044" stroke="#11224E" stroke-width="9.61852" stroke-linecap="round" stroke-linejoin="round"/>
<path d="M1039.7 176.949C1035.66 186.673 1035.37 208.075 1066.48 215.896" stroke="#11224E" stroke-width="9.61852" stroke-linecap="round" stroke-linejoin="round"/>
<path d="M1018.19 363.958C1022.04 353.358 1035.19 332.515 1057.06 333.946" stroke="#11224E" stroke-width="9.61852" stroke-linecap="round" stroke-linejoin="round"/>
<path d="M1059.63 57.0239C1053.1 60.8026 1040.56 72.4823 1048.64 97.0438C1055.47 117.827 1078.18 124.583 1089.17 131.911" stroke="#11224E" stroke-width="9.61852" stroke-linecap="round" stroke-linejoin="round"/>
<path d="M931.526 98.7431C925.021 94.7576 909.201 88.7007 897.957 96.3565" stroke="#11224E" stroke-width="9.61852" stroke-linecap="round" stroke-linejoin="round"/>
<path d="M870.81 10.9801C885.47 19.4582 907.72 42.3977 879.442 66.3316" stroke="#FF914D" stroke-width="9.61852" stroke-linecap="round" stroke-linejoin="round"/>
<path d="M745.435 179.66C750.874 189.107 757.802 210.783 742 221.913" stroke="#FF914D" stroke-width="9.61852" stroke-linecap="round" stroke-linejoin="round"/>
<path d="M1116.44 179.66C1121.87 189.107 1128.8 210.783 1113 221.913" stroke="#FF914D" stroke-width="9.61852" stroke-linecap="round" stroke-linejoin="round"/>
<path d="M769.138 178.973C777.44 194.031 785.009 228.337 748.87 245.1" stroke="#11224E" stroke-width="9.61852" stroke-linecap="round" stroke-linejoin="round"/>
<path d="M1018.19 211.951C1029.41 223.917 1048.49 251.455 1035.02 265.883" stroke="#FF914D" stroke-width="9.61852" stroke-linecap="round" stroke-linejoin="round"/>
<path d="M906.545 115.594C900.019 121.319 890.881 139.022 906.545 164.03" stroke="#FF914D" stroke-width="9.61852" stroke-linecap="round" stroke-linejoin="round"/>
<path d="M932.02 69.8876C956.669 70.5975 1000.33 56.0248 977.801 -7.94489" stroke="#FF914D" stroke-width="9.61852" stroke-linecap="round" stroke-linejoin="round"/>
<path d="M932.02 440.887C956.669 441.597 1000.33 427.024 977.801 363.054" stroke="#FF914D" stroke-width="9.61852" stroke-linecap="round" stroke-linejoin="round"/>
<path d="M846.086 356.056C855.934 344.262 881.778 327.75 906.374 356.056" stroke="#FF914D" stroke-width="9.61852" stroke-linecap="round" stroke-linejoin="round"/>
<path d="M886.278 319.784C880.724 316.978 868.552 314.356 864.292 326.311" stroke="#11224E" stroke-width="9.61852" stroke-linecap="round" stroke-linejoin="round"/>
<path d="M1077.1 74.0281H1103.21" stroke="#FF914D" stroke-width="9.61852" stroke-linecap="round" stroke-linejoin="round"/>
<path d="M1074.18 94.8109H1122.96V78.6655" stroke="#FF914D" stroke-width="9.61852" stroke-linecap="round" stroke-linejoin="round"/>
<path d="M703.182 94.8109H751.962V78.6655" stroke="#FF914D" stroke-width="9.61852" stroke-linecap="round" stroke-linejoin="round"/>
<path d="M1022.92 85.0609L987.439 72.1385" stroke="#11224E" stroke-width="9.61852" stroke-linecap="round" stroke-linejoin="round"/>
<path d="M759.938 344.904C767.807 349.687 784.098 358.744 786.31 356.714C788.521 354.683 792.159 347.019 793.702 343.441" stroke="#11224E" stroke-width="9.61852" stroke-linecap="round" stroke-linejoin="round"/>
<path d="M933.855 125.383C939.924 113.989 964.085 99.1036 980.058 115.936C1001.37 138.397 977.138 152.007 965.63 138.438C954.123 124.869 957.73 108.87 978.341 101.336C999.12 93.7412 1012.06 113.474 1015.1 119.715" stroke="#FF914D" stroke-width="9.61852" stroke-linecap="round" stroke-linejoin="round"/>
<path d="M977.654 170.37C987.73 179.989 1008.47 193.455 1010.8 170.37C1013.72 141.515 1017.5 139.797 1047.22 152.507" stroke="#FF914D" stroke-width="9.61852" stroke-linecap="round" stroke-linejoin="round"/>
<path d="M814.511 -8.93018C813.079 -3.67837 807.32 7.58347 795.744 10.6164C781.274 14.4075 783.914 24.2274 789.624 35.9708C795.335 47.7141 809.132 73.8035 782.192 86.9044" stroke="#FF914D" stroke-width="9.61852" stroke-linecap="round" stroke-linejoin="round"/>
<path d="M814.511 362.068C813.079 367.32 807.32 378.582 795.744 381.615C781.274 385.406 783.914 395.226 789.624 406.969C795.335 418.713 809.132 444.802 782.192 457.903" stroke="#FF914D" stroke-width="9.61852" stroke-linecap="round" stroke-linejoin="round"/>
<path d="M768.453 312.247C768.306 294.56 774.827 258.567 802.086 256.091C836.159 252.995 850.552 293.085 829.11 316.373C807.667 339.661 776.384 321.531 787.693 293.232C799.002 264.933 829.11 293.232 804.289 306.204" stroke="#FF914D" stroke-width="9.61852" stroke-linecap="round" stroke-linejoin="round"/>
<path d="M773.604 108.895C780.188 126.357 796.654 159.015 823.586 147.198C857.251 132.426 811.428 90.6888 799.196 122.121C785.627 156.988 806.141 184.073 823.586 197.695C849.318 217.789 902.967 217.237 884.732 186.015C866.497 154.794 814.54 189.85 842.479 236.169C859.912 265.071 868.186 274.929 869.961 276.876" stroke="#FF914D" stroke-width="9.61852" stroke-linecap="round" stroke-linejoin="round"/>
<path d="M933.042 324.708C935.696 331.971 945.165 346.046 961.816 344.238C982.629 341.977 1007.79 296.334 980.599 285.244C953.412 274.153 955.242 338.372 995.831 322.955C1028.3 310.621 1021.04 288.886 1013.35 279.56" stroke="#11224E" stroke-width="9.61852" stroke-linecap="round" stroke-linejoin="round"/>
<path d="M815.199 63.9341C825.543 62.0782 846.065 61.9503 845.4 76.2865C844.736 90.6226 854.424 90.6597 859.351 88.8862C866.948 87.646 878.166 89.6877 862.26 107.777" stroke="#FF914D" stroke-width="9.61852" stroke-linecap="round" stroke-linejoin="round"/>
<path d="M1114.24 284.261C1112.45 288.109 1113.5 305.216 1114.24 313.289C1098.78 307.563 1070.89 302.124 1082.98 326.171" stroke="#FF914D" stroke-width="9.61852" stroke-linecap="round" stroke-linejoin="round"/>
<path d="M743.24 284.261C741.454 288.109 742.496 305.216 743.24 313.289C727.782 307.563 699.888 302.124 711.98 326.171" stroke="#FF914D" stroke-width="9.61852" stroke-linecap="round" stroke-linejoin="round"/>
<path d="M935.057 161.625L954.81 204.05C945.077 200.844 925.164 195.393 923.378 199.241C921.591 203.088 922.633 220.195 923.378 228.268C907.919 222.543 880.026 217.104 892.118 241.15" stroke="#11224E" stroke-width="9.61852" stroke-linecap="round" stroke-linejoin="round"/>
<path d="M1018.96 40.6297C1020.16 33.4158 1025.74 32.7555 1028.75 34.1842C1036.94 38.0617 1032.68 53.3635 1020.51 54.1981C1007.97 55.0575 998.686 42.2216 1008.66 29.1216C1018.63 16.0211 1035.97 14.4397 1046.1 33.587" stroke="#FF914D" stroke-width="9.61852" stroke-linecap="round" stroke-linejoin="round"/>
<circle cx="864.121" cy="136.72" r="12.1949" stroke="#11224E" stroke-width="9.61852"/>
<circle cx="28.512" cy="28.512" r="23.7028" transform="matrix(-0.285974 -0.958237 -0.958237 0.285974 972.686 36.78)" stroke="#FF914D" stroke-width="9.61852"/>
<path d="M959.924 381.835C956.18 369.291 942.977 362.157 930.433 365.9C917.889 369.644 910.755 382.848 914.498 395.392C918.242 407.935 931.446 415.069 943.99 411.325C956.533 407.582 963.667 394.379 959.924 381.835Z" stroke="#FF914D" stroke-width="9.61852"/>
<mask id="path-344-inside-37_607_5581" fill="white">
<rect x="898.988" y="258.055" width="41.9253" height="41.9253" rx="3.43518" transform="rotate(-5.74167 898.988 258.055)"/>
</mask>
<rect x="898.988" y="258.055" width="41.9253" height="41.9253" rx="3.43518" transform="rotate(-5.74167 898.988 258.055)" stroke="#FF914D" stroke-width="19.237" mask="url(#path-344-inside-37_607_5581)"/>
<mask id="path-345-inside-38_607_5581" fill="white">
<rect x="1071.75" y="161.797" width="33.3213" height="33.3213" rx="3.43518" transform="rotate(10.6498 1071.75 161.797)"/>
</mask>
<rect x="1071.75" y="161.797" width="33.3213" height="33.3213" rx="3.43518" transform="rotate(10.6498 1071.75 161.797)" stroke="#FF914D" stroke-width="19.237" mask="url(#path-345-inside-38_607_5581)"/>
<mask id="path-346-inside-39_607_5581" fill="white">
<rect x="1089.22" y="-22.3286" width="55.4917" height="55.4917" rx="3.43518" transform="rotate(24.8076 1089.22 -22.3286)"/>
</mask>
<rect x="1089.22" y="-22.3286" width="55.4917" height="55.4917" rx="3.43518" transform="rotate(24.8076 1089.22 -22.3286)" stroke="#11224E" stroke-width="19.237" mask="url(#path-346-inside-39_607_5581)"/>
<mask id="path-347-inside-40_607_5581" fill="white">
<rect x="1089.22" y="348.671" width="55.4917" height="55.4917" rx="3.43518" transform="rotate(24.8076 1089.22 348.671)"/>
</mask>
<rect x="1089.22" y="348.671" width="55.4917" height="55.4917" rx="3.43518" transform="rotate(24.8076 1089.22 348.671)" stroke="#11224E" stroke-width="19.237" mask="url(#path-347-inside-40_607_5581)"/>
<mask id="path-348-inside-41_607_5581" fill="white">
<rect x="718.222" y="-22.3286" width="55.4917" height="55.4917" rx="3.43518" transform="rotate(24.8076 718.222 -22.3286)"/>
</mask>
<rect x="718.222" y="-22.3286" width="55.4917" height="55.4917" rx="3.43518" transform="rotate(24.8076 718.222 -22.3286)" stroke="#11224E" stroke-width="19.237" mask="url(#path-348-inside-41_607_5581)"/>
<mask id="path-349-inside-42_607_5581" fill="white">
<rect x="718.222" y="348.671" width="55.4917" height="55.4917" rx="3.43518" transform="rotate(24.8076 718.222 348.671)"/>
</mask>
<rect x="718.222" y="348.671" width="55.4917" height="55.4917" rx="3.43518" transform="rotate(24.8076 718.222 348.671)" stroke="#11224E" stroke-width="19.237" mask="url(#path-349-inside-42_607_5581)"/>
<path d="M802.499 220.789C804.21 218.997 807.229 219.846 807.755 222.268L809.144 228.659C809.639 230.937 807.53 232.923 805.286 232.291L799.379 230.629C797.135 229.998 796.37 227.204 797.981 225.518L802.499 220.789Z" fill="#FF914D"/>
<path d="M751.548 141.239C751.317 138.771 753.938 137.049 756.112 138.24L761.847 141.382C763.892 142.502 764.008 145.397 762.06 146.677L756.932 150.047C754.983 151.327 752.373 150.072 752.156 147.75L751.548 141.239Z" fill="#FF914D"/>
<path d="M904.634 66.1642C904.404 63.6969 907.025 61.9748 909.198 63.1654L911.47 64.4103C913.515 65.5306 913.631 68.4251 911.683 69.7055L909.651 71.0405C907.703 72.321 905.092 71.0658 904.875 68.7442L904.634 66.1642Z" fill="#FF914D"/>
<path d="M1035.51 126.624C1035.28 124.156 1037.91 122.434 1040.08 123.625L1042.35 124.87C1044.4 125.99 1044.51 128.885 1042.56 130.165L1040.53 131.5C1038.58 132.78 1035.97 131.525 1035.76 129.204L1035.51 126.624Z" fill="#11224E"/>
<path d="M1054.06 272.276C1053.83 269.808 1056.46 268.086 1058.63 269.277L1060.9 270.522C1062.95 271.642 1063.06 274.536 1061.11 275.817L1059.08 277.152C1057.13 278.432 1054.52 277.177 1054.31 274.856L1054.06 272.276Z" fill="#FF914D"/>
<path d="M1047.88 358.499C1047.65 356.031 1050.27 354.309 1052.45 355.5L1054.72 356.745C1056.76 357.865 1056.88 360.76 1054.93 362.04L1052.9 363.375C1050.95 364.655 1048.34 363.4 1048.12 361.079L1047.88 358.499Z" fill="#FF914D"/>
<path d="M762.074 56.2023C761.844 53.735 764.465 52.0129 766.638 53.2035L768.91 54.4484C770.955 55.5686 771.071 58.4631 769.123 59.7436L767.091 61.0786C765.143 62.3591 762.532 61.1038 762.315 58.7823L762.074 56.2023Z" fill="#FF914D"/>
<path d="M815.089 24.6535L861.481 49.684L848.63 17.9956L815.089 24.6535Z" stroke="#11224E" stroke-width="9.61852" stroke-linejoin="round"/>
<path d="M981.581 207.18L996.132 261.488L961.077 241.778L981.581 207.18Z" stroke="#11224E" stroke-width="9.61852" stroke-linejoin="round"/>
</g>
</g>
<g opacity="0.1">
<g clip-path="url(#clip7_607_5581)">
<rect width="371" height="371" rx="14.84" fill="white"/>
<path d="M331.152 241.15C338.48 250.826 350.011 273.887 337.507 288.727C325.003 303.567 305.617 305.789 297.487 305.044" stroke="#11224E" stroke-width="9.61852" stroke-linecap="round" stroke-linejoin="round"/>
<path d="M297.698 176.949C293.665 186.673 293.375 208.075 324.48 215.896" stroke="#11224E" stroke-width="9.61852" stroke-linecap="round" stroke-linejoin="round"/>
<path d="M276.195 363.958C280.038 353.358 293.194 332.516 315.064 333.946" stroke="#11224E" stroke-width="9.61852" stroke-linecap="round" stroke-linejoin="round"/>
<path d="M317.63 57.0242C311.103 60.8029 298.564 72.4825 306.637 97.0441C313.468 117.827 336.18 124.583 347.172 131.911" stroke="#11224E" stroke-width="9.61852" stroke-linecap="round" stroke-linejoin="round"/>
<path d="M189.526 98.7431C183.021 94.7576 167.201 88.7007 155.957 96.3565" stroke="#11224E" stroke-width="9.61852" stroke-linecap="round" stroke-linejoin="round"/>
<path d="M128.81 10.9804C143.47 19.4584 165.72 42.398 137.442 66.3318" stroke="#FF914D" stroke-width="9.61852" stroke-linecap="round" stroke-linejoin="round"/>
<path d="M3.43518 179.66C8.87423 189.107 15.8019 210.783 0 221.913" stroke="#FF914D" stroke-width="9.61852" stroke-linecap="round" stroke-linejoin="round"/>
<path d="M374.435 179.66C379.874 189.107 386.802 210.783 371 221.913" stroke="#FF914D" stroke-width="9.61852" stroke-linecap="round" stroke-linejoin="round"/>
<path d="M27.138 178.973C35.4396 194.031 43.0085 228.337 6.87036 245.1" stroke="#11224E" stroke-width="9.61852" stroke-linecap="round" stroke-linejoin="round"/>
<path d="M276.189 211.951C287.411 223.917 306.487 251.456 293.021 265.883" stroke="#FF914D" stroke-width="9.61852" stroke-linecap="round" stroke-linejoin="round"/>
<path d="M164.545 115.594C158.019 121.319 148.881 139.022 164.545 164.03" stroke="#FF914D" stroke-width="9.61852" stroke-linecap="round" stroke-linejoin="round"/>
<path d="M190.02 69.8879C214.669 70.5978 258.334 56.025 235.801 -7.94465" stroke="#FF914D" stroke-width="9.61852" stroke-linecap="round" stroke-linejoin="round"/>
<path d="M190.02 440.887C214.669 441.597 258.334 427.024 235.801 363.054" stroke="#FF914D" stroke-width="9.61852" stroke-linecap="round" stroke-linejoin="round"/>
<path d="M104.086 356.056C113.934 344.262 139.778 327.75 164.374 356.056" stroke="#FF914D" stroke-width="9.61852" stroke-linecap="round" stroke-linejoin="round"/>
<path d="M144.278 319.784C138.724 316.979 126.552 314.357 122.292 326.311" stroke="#11224E" stroke-width="9.61852" stroke-linecap="round" stroke-linejoin="round"/>
<path d="M335.102 74.0283H361.21" stroke="#FF914D" stroke-width="9.61852" stroke-linecap="round" stroke-linejoin="round"/>
<path d="M332.182 94.8111H380.962V78.6658" stroke="#FF914D" stroke-width="9.61852" stroke-linecap="round" stroke-linejoin="round"/>
<path d="M-38.8176 94.8111H9.962V78.6658" stroke="#FF914D" stroke-width="9.61852" stroke-linecap="round" stroke-linejoin="round"/>
<path d="M280.919 85.0611L245.439 72.1387" stroke="#11224E" stroke-width="9.61852" stroke-linecap="round" stroke-linejoin="round"/>
<path d="M17.9385 344.904C25.8075 349.687 42.0982 358.745 44.3095 356.714C46.5208 354.683 50.1595 347.019 51.7023 343.441" stroke="#11224E" stroke-width="9.61852" stroke-linecap="round" stroke-linejoin="round"/>
<path d="M191.855 125.383C197.924 113.989 222.085 99.1036 238.058 115.936C259.373 138.397 235.138 152.007 223.63 138.438C212.123 124.869 215.73 108.87 236.341 101.336C257.12 93.7412 270.063 113.474 273.097 119.715" stroke="#FF914D" stroke-width="9.61852" stroke-linecap="round" stroke-linejoin="round"/>
<path d="M235.654 170.37C245.73 179.989 266.467 193.455 268.803 170.37C271.723 141.515 275.502 139.797 305.216 152.507" stroke="#FF914D" stroke-width="9.61852" stroke-linecap="round" stroke-linejoin="round"/>
<path d="M72.5107 -8.93018C71.0787 -3.67837 65.3204 7.58347 53.744 10.6164C39.2736 14.4075 41.9136 24.2274 47.6242 35.9708C53.3349 47.7141 67.1322 73.8035 40.1917 86.9044" stroke="#FF914D" stroke-width="9.61852" stroke-linecap="round" stroke-linejoin="round"/>
<path d="M72.5107 362.068C71.0787 367.32 65.3204 378.582 53.744 381.615C39.2736 385.406 41.9136 395.226 47.6242 406.969C53.3349 418.713 67.1322 444.802 40.1917 457.903" stroke="#FF914D" stroke-width="9.61852" stroke-linecap="round" stroke-linejoin="round"/>
<path d="M26.4533 312.247C26.3065 294.56 32.8274 258.567 60.0859 256.091C94.1591 252.995 108.552 293.085 87.1095 316.373C65.6669 339.661 34.3842 321.531 45.693 293.232C57.0017 264.933 87.1095 293.232 62.289 306.204" stroke="#FF914D" stroke-width="9.61852" stroke-linecap="round" stroke-linejoin="round"/>
<path d="M31.6038 108.895C38.1879 126.357 54.6539 159.015 81.5857 147.198C115.251 132.426 69.428 90.6888 57.1959 122.121C43.6269 156.988 64.1414 184.073 81.5857 197.695C107.318 217.789 160.967 217.237 142.732 186.015C124.497 154.794 72.5402 189.85 100.479 236.169C117.912 265.071 126.186 274.929 127.961 276.876" stroke="#FF914D" stroke-width="9.61852" stroke-linecap="round" stroke-linejoin="round"/>
<path d="M191.042 324.708C193.696 331.971 203.165 346.046 219.816 344.238C240.629 341.977 265.786 296.334 238.599 285.244C211.412 274.153 213.241 338.372 253.831 322.955C286.303 310.621 279.038 288.886 271.346 279.56" stroke="#11224E" stroke-width="9.61852" stroke-linecap="round" stroke-linejoin="round"/>
<path d="M73.1992 63.9341C83.543 62.0782 104.065 61.9503 103.4 76.2865C102.736 90.6226 112.424 90.6597 117.351 88.8862C124.948 87.646 136.166 89.6877 120.26 107.777" stroke="#FF914D" stroke-width="9.61852" stroke-linecap="round" stroke-linejoin="round"/>
<path d="M372.24 284.261C370.454 288.109 371.496 305.216 372.24 313.289C356.782 307.563 328.888 302.124 340.98 326.171" stroke="#FF914D" stroke-width="9.61852" stroke-linecap="round" stroke-linejoin="round"/>
<path d="M1.24008 284.261C-0.546217 288.109 0.495789 305.216 1.24008 313.289C-14.2183 307.563 -42.112 302.124 -30.0201 326.171" stroke="#FF914D" stroke-width="9.61852" stroke-linecap="round" stroke-linejoin="round"/>
<path d="M193.057 161.625L212.81 204.05C203.077 200.844 183.164 195.393 181.378 199.241C179.591 203.088 180.633 220.195 181.378 228.268C165.919 222.543 138.026 217.104 150.118 241.15" stroke="#11224E" stroke-width="9.61852" stroke-linecap="round" stroke-linejoin="round"/>
<path d="M276.962 40.6297C278.164 33.4158 283.736 32.7555 286.752 34.1842C294.939 38.0617 290.685 53.3635 278.507 54.1981C265.969 55.0575 256.686 42.2216 266.656 29.1216C276.627 16.0211 293.966 14.4397 304.1 33.587" stroke="#FF914D" stroke-width="9.61852" stroke-linecap="round" stroke-linejoin="round"/>
<circle cx="122.121" cy="136.72" r="12.1949" stroke="#11224E" stroke-width="9.61852"/>
<circle cx="28.512" cy="28.512" r="23.7028" transform="matrix(-0.285974 -0.958237 -0.958237 0.285974 230.686 36.78)" stroke="#FF914D" stroke-width="9.61852"/>
<path d="M217.924 381.835C214.18 369.291 200.977 362.157 188.433 365.9C175.889 369.644 168.755 382.848 172.498 395.392C176.242 407.935 189.446 415.069 201.99 411.325C214.533 407.582 221.667 394.379 217.924 381.835Z" stroke="#FF914D" stroke-width="9.61852"/>
<mask id="path-395-inside-43_607_5581" fill="white">
<rect x="156.988" y="258.055" width="41.9253" height="41.9253" rx="3.43518" transform="rotate(-5.74167 156.988 258.055)"/>
</mask>
<rect x="156.988" y="258.055" width="41.9253" height="41.9253" rx="3.43518" transform="rotate(-5.74167 156.988 258.055)" stroke="#FF914D" stroke-width="19.237" mask="url(#path-395-inside-43_607_5581)"/>
<mask id="path-396-inside-44_607_5581" fill="white">
<rect x="329.752" y="161.797" width="33.3213" height="33.3213" rx="3.43518" transform="rotate(10.6498 329.752 161.797)"/>
</mask>
<rect x="329.752" y="161.797" width="33.3213" height="33.3213" rx="3.43518" transform="rotate(10.6498 329.752 161.797)" stroke="#FF914D" stroke-width="19.237" mask="url(#path-396-inside-44_607_5581)"/>
<mask id="path-397-inside-45_607_5581" fill="white">
<rect x="347.221" y="-22.3286" width="55.4917" height="55.4917" rx="3.43518" transform="rotate(24.8076 347.221 -22.3286)"/>
</mask>
<rect x="347.221" y="-22.3286" width="55.4917" height="55.4917" rx="3.43518" transform="rotate(24.8076 347.221 -22.3286)" stroke="#11224E" stroke-width="19.237" mask="url(#path-397-inside-45_607_5581)"/>
<mask id="path-398-inside-46_607_5581" fill="white">
<rect x="347.221" y="348.671" width="55.4917" height="55.4917" rx="3.43518" transform="rotate(24.8076 347.221 348.671)"/>
</mask>
<rect x="347.221" y="348.671" width="55.4917" height="55.4917" rx="3.43518" transform="rotate(24.8076 347.221 348.671)" stroke="#11224E" stroke-width="19.237" mask="url(#path-398-inside-46_607_5581)"/>
<mask id="path-399-inside-47_607_5581" fill="white">
<rect x="-23.7783" y="-22.3286" width="55.4917" height="55.4917" rx="3.43518" transform="rotate(24.8076 -23.7783 -22.3286)"/>
</mask>
<rect x="-23.7783" y="-22.3286" width="55.4917" height="55.4917" rx="3.43518" transform="rotate(24.8076 -23.7783 -22.3286)" stroke="#11224E" stroke-width="19.237" mask="url(#path-399-inside-47_607_5581)"/>
<mask id="path-400-inside-48_607_5581" fill="white">
<rect x="-23.7783" y="348.671" width="55.4917" height="55.4917" rx="3.43518" transform="rotate(24.8076 -23.7783 348.671)"/>
</mask>
<rect x="-23.7783" y="348.671" width="55.4917" height="55.4917" rx="3.43518" transform="rotate(24.8076 -23.7783 348.671)" stroke="#11224E" stroke-width="19.237" mask="url(#path-400-inside-48_607_5581)"/>
<path d="M60.4986 220.789C62.2104 218.997 65.2291 219.846 65.7553 222.268L67.1442 228.659C67.6393 230.937 65.5301 232.923 63.2856 232.291L57.3791 230.629C55.1346 229.998 54.3703 227.204 55.9809 225.518L60.4986 220.789Z" fill="#FF914D"/>
<path d="M9.54784 141.239C9.31747 138.771 11.9382 137.049 14.1115 138.24L19.8474 141.382C21.8923 142.502 22.0084 145.397 20.0598 146.677L14.9319 150.047C12.9833 151.327 10.3726 150.072 10.1558 147.75L9.54784 141.239Z" fill="#FF914D"/>
<path d="M162.634 66.1642C162.404 63.6969 165.025 61.9748 167.198 63.1654L169.47 64.4103C171.515 65.5306 171.631 68.4251 169.683 69.7055L167.651 71.0405C165.703 72.321 163.092 71.0658 162.875 68.7442L162.634 66.1642Z" fill="#FF914D"/>
<path d="M293.515 126.624C293.284 124.156 295.905 122.434 298.079 123.625L300.351 124.87C302.396 125.99 302.512 128.885 300.563 130.165L298.532 131.5C296.583 132.78 293.973 131.525 293.756 129.204L293.515 126.624Z" fill="#11224E"/>
<path d="M312.065 272.276C311.835 269.808 314.455 268.086 316.629 269.277L318.901 270.522C320.946 271.642 321.062 274.536 319.114 275.817L317.082 277.152C315.133 278.432 312.523 277.177 312.306 274.856L312.065 272.276Z" fill="#FF914D"/>
<path d="M305.882 358.499C305.651 356.031 308.272 354.309 310.445 355.5L312.718 356.745C314.763 357.865 314.879 360.76 312.93 362.04L310.899 363.375C308.95 364.655 306.339 363.4 306.122 361.079L305.882 358.499Z" fill="#FF914D"/>
<path d="M20.0742 56.2023C19.8438 53.735 22.4645 52.0129 24.6379 53.2035L26.9104 54.4484C28.9553 55.5686 29.0714 58.4631 27.1228 59.7436L25.0912 61.0786C23.1426 62.3591 20.5318 61.1038 20.3151 58.7823L20.0742 56.2023Z" fill="#FF914D"/>
<path d="M73.0886 24.6535L119.481 49.684L106.63 17.9956L73.0886 24.6535Z" stroke="#11224E" stroke-width="9.61852" stroke-linejoin="round"/>
<path d="M239.581 207.18L254.132 261.488L219.077 241.778L239.581 207.18Z" stroke="#11224E" stroke-width="9.61852" stroke-linejoin="round"/>
</g>
</g>
<defs>
<linearGradient id="paint0_linear_607_5581" x1="741.5" y1="352" x2="741.5" y2="677" gradientUnits="userSpaceOnUse">
<stop stop-color="white" stop-opacity="0"/>
<stop offset="1" stop-color="white"/>
</linearGradient>
<clipPath id="clip0_607_5581">
<rect x="371" y="371" width="371" height="371" rx="14.84" fill="white"/>
</clipPath>
<clipPath id="clip1_607_5581">
<rect x="1113" y="371" width="371" height="371" rx="14.84" fill="white"/>
</clipPath>
<clipPath id="clip2_607_5581">
<rect x="742" y="371" width="371" height="371" rx="14.84" fill="white"/>
</clipPath>
<clipPath id="clip3_607_5581">
<rect y="371" width="371" height="371" rx="14.84" fill="white"/>
</clipPath>
<clipPath id="clip4_607_5581">
<rect x="371" width="371" height="371" rx="14.84" fill="white"/>
</clipPath>
<clipPath id="clip5_607_5581">
<rect x="1113" width="371" height="371" rx="14.84" fill="white"/>
</clipPath>
<clipPath id="clip6_607_5581">
<rect x="742" width="371" height="371" rx="14.84" fill="white"/>
</clipPath>
<clipPath id="clip7_607_5581">
<rect width="371" height="371" rx="14.84" fill="white"/>
</clipPath>
</defs>
</svg>
