<svg width="52" height="48" viewBox="0 0 52 48" fill="none" xmlns="http://www.w3.org/2000/svg">
<path d="M7.29656 36.1069C6.72262 35.707 6.07918 35.2717 5.3562 35.2119C3.50891 35.0591 1.89397 36.4515 2.04588 38.3354C2.14965 39.6213 2.94892 40.7975 3.74306 41.7788C5.46372 43.9053 7.88809 46.5147 10.957 46.0834C12.3754 45.8859 13.4721 44.9031 14.1898 43.7198C14.538 43.1501 14.8702 42.5651 15.1162 41.9435C16.1957 39.2213 16.587 34.4467 13.159 33.1701C11.9419 32.7165 10.6803 33.2823 9.92339 34.282C8.80051 35.7652 8.05184 38.2676 9.45416 39.8275" stroke="#7F94CA" stroke-width="2.69253" stroke-miterlimit="1.5" stroke-linecap="round" stroke-linejoin="round"/>
<path d="M35.377 9.48381C34.964 8.26928 34.4867 6.92704 33.4764 6.05804C30.8949 3.8378 26.9535 4.16854 25.0999 7.13702C23.8349 9.16329 23.7262 11.7766 23.8252 14.0943C24.0392 19.1162 24.7677 25.6164 29.8126 28.2849C32.1423 29.5212 34.86 29.241 37.2347 28.2538C38.3821 27.7812 39.5226 27.2687 40.5749 26.6086C45.1872 23.7206 51.0408 17.0346 47.3467 11.436C46.0356 9.44773 43.5327 8.92908 41.3023 9.60075C37.9932 10.5975 34.1161 13.5152 34.4816 17.3504" stroke="#7F94CA" stroke-width="4.97009" stroke-miterlimit="1.5" stroke-linecap="round" stroke-linejoin="round"/>
</svg>
